<svg id="kity_svg_6" xmlns="http://www.w3.org/2000/svg" xmlns:xlink="http://www.w3.org/1999/xlink" version="1.1" width="685" height="265" style="background: rgb(251, 251, 251); visibility: visible;" viewBox="0 0 685 265"><defs id="kity_defs_7"><linearGradient id="kity_linearGradient_17" x1="0" y1="0" x2="0" y2="1"><stop id="kity_stop_18" offset="0" stop-color="rgb(255, 255, 255)"></stop><stop id="kity_stop_19" offset="1" stop-color="rgb(204, 204, 204)"></stop></linearGradient><marker id="kity_marker_2" orient="auto" refX="6" refY="0" viewBox="-7 -7 14 14" markerWidth="7" markerHeight="7" markerUnits="userSpaceOnUse"><path id="kity_path_3" fill="rgb(115, 161, 191)" stroke="none" d="M6,0A6,6,0,1,1,-6,0A6,6,0,1,1,6,0"></path></marker></defs><g id="kity_g_8"><g id="minder1" text-rendering="optimize-speed"><g id="minder_connect_group1"><path id="kity_path_31" fill="none" stroke="rgb(115, 161, 191)" stroke-width="1" d="M240.50000597635778,60.50001193152537v30h-175.5V110.50001193152536"></path><path id="kity_path_63" fill="none" stroke="rgb(115, 161, 191)" stroke-width="1" d="M240.50000597635778,60.50001193152537v30h163V110.50001193152536"></path><path id="kity_path_71" fill="none" stroke="rgb(115, 161, 191)" stroke-width="1" d="M65.50000597635778,136.50001193152536v20h0V171.50001193152536"></path><path id="kity_path_79" fill="none" stroke="rgb(115, 161, 191)" stroke-width="1" d="M65.50000597635778,193.50001193152536v15h0.5V223.50001193152536"></path><path id="kity_path_87" fill="none" stroke="rgb(115, 161, 191)" stroke-width="1" d="M403.5000059763578,136.50001193152536v20h-145V171.50001193152536"></path><path id="kity_path_95" fill="none" stroke="rgb(115, 161, 191)" stroke-width="1" d="M403.5000059763578,136.50001193152536v20h132.5V171.50001193152536"></path><path id="kity_path_103" fill="none" stroke="rgb(115, 161, 191)" stroke-width="1" d="M258.5000059763578,193.50001193152536v15h-46V223.50001193152536"></path><path id="kity_path_111" fill="none" stroke="rgb(115, 161, 191)" stroke-width="1" d="M258.5000059763578,193.50001193152536v15h82.5V223.50001193152536"></path><path id="kity_path_119" fill="none" stroke="rgb(115, 161, 191)" stroke-width="1" d="M536.5000059763578,193.50001193152536v15h-94.5V223.50001193152536"></path><path id="kity_path_127" fill="none" stroke="rgb(115, 161, 191)" stroke-width="1" d="M536.5000059763578,193.50001193152536v15h-5.5V223.50001193152536"></path><path id="kity_path_135" fill="none" stroke="rgb(115, 161, 191)" stroke-width="1" d="M536.5000059763578,193.50001193152536v15h89.5V223.50001193152536"></path></g><g id="minder_node1"><path id="node_outline1" fill="rgb(115, 161, 191)" stroke="rgb(115, 161, 191)" d="M189.50000597635778,20.50001193152537h102a5,5,0,0,1,5,5v30a5,5,0,0,1,-5,5h-102a5,5,0,0,1,-5,-5v-30a5,5,0,0,1,5,-5z" stroke-width="3"></path><g id="node_text1" fill="white"><text id="kity_text_22" text-rendering="inherit" font-size="16" dy=".8em" y="32.50001193152538" x="208.50000597635778">系统实时</text></g></g><g id="kity_g_12"><path id="kity_path_13" fill="none" stroke="none" d="M208.50000597635778,40.500011931525364h0v0h0z"></path></g><g id="kity_g_14"><path id="kity_path_15" fill="none" stroke="none" d="M208.50000597635778,40.500011931525364h0v0h0z"></path><path id="kity_path_16" fill="none" stroke="none"></path></g><g id="minder_node2"><g id="node_expander1" style="cursor: pointer;"><path id="kity_path_36" fill="white" stroke="gray" d="M71.00000247160483,103.50001273685027A6,6,0,1,1,59.00000247160483,103.50001273685027A6,6,0,1,1,71.00000247160483,103.50001273685027"></path><path id="kity_path_37" fill="none" stroke="gray" d="M60.50000247160483,103.50001273685027L69.50000247160483,103.50001273685027"></path></g><path id="node_outline2" fill="rgb(238, 243, 246)" stroke="rgb(115, 161, 191)" d="M33.500002627901495,110.50001369052457h63a3,3,0,0,1,3,3v20a3,3,0,0,1,-3,3h-63a3,3,0,0,1,-3,-3v-20a3,3,0,0,1,3,-3z" stroke-width="1"></path><g id="node_text2" fill="black"><text id="kity_text_33" text-rendering="inherit" font-size="14" dy=".8em" y="116.50001369052458" x="50.500002627901495">指标</text></g></g><g id="minder_node6"><g id="node_expander5" style="cursor: pointer;"><path id="kity_path_68" fill="white" stroke="gray" d="M409.50000957912715,103.50001273685027A6,6,0,1,1,397.50000957912715,103.50001273685027A6,6,0,1,1,409.50000957912715,103.50001273685027"></path><path id="kity_path_69" fill="none" stroke="gray" d="M399.00000957912715,103.50001273685027L408.00000957912715,103.50001273685027"></path></g><path id="node_outline6" fill="rgb(238, 243, 246)" stroke="rgb(115, 161, 191)" d="M358.5000095155489,110.50001369052457h90a3,3,0,0,1,3,3v20a3,3,0,0,1,-3,3h-90a3,3,0,0,1,-3,-3v-20a3,3,0,0,1,3,-3z" stroke-width="1"></path><g id="node_text6" fill="black"><text id="kity_text_65" text-rendering="inherit" font-size="14" dy=".8em" y="116.50001369052458" x="375.5000095155489">优化方法</text></g></g><g id="minder_node7"><g id="node_expander6" style="cursor: pointer;"><path id="kity_path_76" fill="white" stroke="gray" d="M71.00000273651438,165.50001497798485A6,6,0,1,1,59.000002736514375,165.50001497798485A6,6,0,1,1,71.00000273651438,165.50001497798485"></path><path id="kity_path_77" fill="none" stroke="gray" d="M60.500002736514375,165.50001497798485L69.50000273651438,165.50001497798485"></path></g><path id="node_outline7" fill="none" stroke="none" d="M35.50000241597388,171.50001494089747h59a5,5,0,0,1,5,5v12a5,5,0,0,1,-5,5h-59a5,5,0,0,1,-5,-5v-12a5,5,0,0,1,5,-5z" stroke-width="3"></path><g id="node_text7" fill="black"><text id="kity_text_73" text-rendering="inherit" font-size="12" dy=".8em" y="176.50001494089747" x="40.50000241597388">链路延迟</text></g></g><g id="minder_node8"><g id="node_expander7" style="cursor: pointer;" display="none"><path id="kity_path_84" fill="white" stroke="gray" d="M71.50000387297632,217.50001608000846A6,6,0,1,1,59.50000387297632,217.50001608000846A6,6,0,1,1,71.50000387297632,217.50001608000846"></path><path id="kity_path_85" fill="none" stroke="gray"></path></g><path id="node_outline8" fill="none" stroke="none" d="M25.500002204046268,223.5000160429211h80a5,5,0,0,1,5,5v12a5,5,0,0,1,-5,5h-80a5,5,0,0,1,-5,-5v-12a5,5,0,0,1,5,-5z" stroke-width="3"></path><g id="node_text8" fill="black"><text id="kity_text_81" text-rendering="inherit" font-size="12" dy=".8em" y="228.5000160429211" x="30.500002204046268">任务deadline</text></g></g><g id="minder_node9"><g id="node_expander8" style="cursor: pointer;"><path id="kity_path_92" fill="white" stroke="gray" d="M264.50000597635767,165.50001497798485A6,6,0,1,1,252.50000597635767,165.50001497798485A6,6,0,1,1,264.50000597635767,165.50001497798485"></path><path id="kity_path_93" fill="none" stroke="gray" d="M254.00000597635767,165.50001497798485L263.00000597635767,165.50001497798485"></path></g><path id="node_outline9" fill="none" stroke="none" d="M229.50000652736958,171.50001494089747h58a5,5,0,0,1,5,5v12a5,5,0,0,1,-5,5h-58a5,5,0,0,1,-5,-5v-12a5,5,0,0,1,5,-5z" stroke-width="3"></path><g id="node_text9" fill="black"><text id="kity_text_89" text-rendering="inherit" font-size="12" dy=".8em" y="176.50001494089747" x="234.50000652736958">调度优化</text></g></g><g id="minder_node10"><g id="node_expander9" style="cursor: pointer;"><path id="kity_path_100" fill="white" stroke="gray" d="M542.0000121884859,165.50001497798485A6,6,0,1,1,530.0000121884859,165.50001497798485A6,6,0,1,1,542.0000121884859,165.50001497798485"></path><path id="kity_path_101" fill="none" stroke="gray" d="M531.5000121884859,165.50001497798485L540.5000121884859,165.50001497798485"></path></g><path id="node_outline10" fill="none" stroke="none" d="M494.50001214345133,171.50001494089747h83a5,5,0,0,1,5,5v12a5,5,0,0,1,-5,5h-83a5,5,0,0,1,-5,-5v-12a5,5,0,0,1,5,-5z" stroke-width="3"></path><g id="node_text10" fill="black"><text id="kity_text_97" text-rendering="inherit" font-size="12" dy=".8em" y="176.50001494089747" x="499.50001214345133">程序执行优化</text></g></g><g id="minder_node11"><g id="node_expander10" style="cursor: pointer;" display="none"><path id="kity_path_108" fill="white" stroke="gray" d="M218.50000659094792,217.50001608000846A6,6,0,1,1,206.50000659094792,217.50001608000846A6,6,0,1,1,218.50000659094792,217.50001608000846"></path><path id="kity_path_109" fill="none" stroke="gray"></path></g><path id="node_outline11" fill="none" stroke="none" d="M155.50000495910524,223.5000160429211h114a5,5,0,0,1,5,5v12a5,5,0,0,1,-5,5h-114a5,5,0,0,1,-5,-5v-12a5,5,0,0,1,5,-5z" stroke-width="3"></path><g id="node_text11" fill="black"><text id="kity_text_105" text-rendering="inherit" font-size="12" dy=".8em" y="228.5000160429211" x="160.50000495910524">cpu分配与任务编排</text></g></g><g id="minder_node12"><g id="node_expander11" style="cursor: pointer;" display="none"><path id="kity_path_116" fill="white" stroke="gray" d="M347.0000085857165,217.50001608000846A6,6,0,1,1,335.0000085857165,217.50001608000846A6,6,0,1,1,347.0000085857165,217.50001608000846"></path><path id="kity_path_117" fill="none" stroke="gray"></path></g><path id="node_outline12" fill="none" stroke="none" d="M319.5000084347181,223.5000160429211h43a5,5,0,0,1,5,5v12a5,5,0,0,1,-5,5h-43a5,5,0,0,1,-5,-5v-12a5,5,0,0,1,5,-5z" stroke-width="3"></path><g id="node_text12" fill="black"><text id="kity_text_113" text-rendering="inherit" font-size="12" dy=".8em" y="228.5000160429211" x="324.5000084347181">RTOS</text></g></g><g id="minder_node13"><g id="node_expander12" style="cursor: pointer;" display="none"><path id="kity_path_124" fill="white" stroke="gray" d="M447.50000985463305,217.50001608000846A6,6,0,1,1,435.50000985463305,217.50001608000846A6,6,0,1,1,447.50000985463305,217.50001608000846"></path><path id="kity_path_125" fill="none" stroke="gray"></path></g><path id="node_outline13" fill="none" stroke="none" d="M412.50001040564496,223.5000160429211h58a5,5,0,0,1,5,5v12a5,5,0,0,1,-5,5h-58a5,5,0,0,1,-5,-5v-12a5,5,0,0,1,5,-5z" stroke-width="3"></path><g id="node_text13" fill="black"><text id="kity_text_121" text-rendering="inherit" font-size="12" dy=".8em" y="228.5000160429211" x="417.50001040564496">内存分配</text></g></g><g id="minder_node14"><g id="node_expander13" style="cursor: pointer;" display="none"><path id="kity_path_132" fill="white" stroke="gray" d="M536.5000129328816,217.50001608000846A6,6,0,1,1,524.5000129328816,217.50001608000846A6,6,0,1,1,536.5000129328816,217.50001608000846"></path><path id="kity_path_133" fill="none" stroke="gray"></path></g><path id="node_outline14" fill="none" stroke="none" d="M520.5000126944631,223.5000160429211h20a5,5,0,0,1,5,5v12a5,5,0,0,1,-5,5h-20a5,5,0,0,1,-5,-5v-12a5,5,0,0,1,5,-5z" stroke-width="3"></path><g id="node_text14" fill="black"><text id="kity_text_129" text-rendering="inherit" font-size="12" dy=".8em" y="228.5000160429211" x="525.5000126944631">io</text></g></g><g id="minder_node15"><g id="node_expander14" style="cursor: pointer;" display="none"><path id="kity_path_140" fill="white" stroke="gray" d="M631.500015608468,217.50001608000846A6,6,0,1,1,619.500015608468,217.50001608000846A6,6,0,1,1,631.500015608468,217.50001608000846"></path><path id="kity_path_141" fill="none" stroke="gray"></path></g><path id="node_outline15" fill="none" stroke="none" d="M590.5000141779565,223.5000160429211h70a5,5,0,0,1,5,5v12a5,5,0,0,1,-5,5h-70a5,5,0,0,1,-5,-5v-12a5,5,0,0,1,5,-5z" stroke-width="3"></path><g id="node_text15" fill="black"><text id="kity_text_137" text-rendering="inherit" font-size="12" dy=".8em" y="228.5000160429211" x="595.5000141779565">多线程同步</text></g></g></g></g></svg>