<svg id="kity_svg_6" xmlns="http://www.w3.org/2000/svg" xmlns:xlink="http://www.w3.org/1999/xlink" version="1.1" width="818" height="317" style="background: rgb(251, 251, 251); visibility: visible;" viewBox="0 0 818 317"><defs id="kity_defs_7"><linearGradient id="kity_linearGradient_17" x1="0" y1="0" x2="0" y2="1"><stop id="kity_stop_18" offset="0" stop-color="rgb(255, 255, 255)"></stop><stop id="kity_stop_19" offset="1" stop-color="rgb(204, 204, 204)"></stop></linearGradient><marker id="kity_marker_2" orient="auto" refX="6" refY="0" viewBox="-7 -7 14 14" markerWidth="7" markerHeight="7" markerUnits="userSpaceOnUse"><path id="kity_path_3" fill="rgb(115, 161, 191)" stroke="none" d="M6,0A6,6,0,1,1,-6,0A6,6,0,1,1,6,0"></path></marker></defs><g id="kity_g_8"><g id="minder1" text-rendering="optimize-speed"><g id="minder_connect_group1"><path id="kity_path_31" fill="none" stroke="rgb(115, 161, 191)" stroke-width="1" d="M289.5000059763578,60.50001193152537v30h-224.5V110.50001193152536"></path><path id="kity_path_63" fill="none" stroke="rgb(115, 161, 191)" stroke-width="1" d="M289.5000059763578,60.50001193152537v30h211V110.50001193152536"></path><path id="kity_path_71" fill="none" stroke="rgb(115, 161, 191)" stroke-width="1" d="M65.50000597635778,136.50001193152536v20h0V171.50001193152536"></path><path id="kity_path_79" fill="none" stroke="rgb(115, 161, 191)" stroke-width="1" d="M65.50000597635778,193.50001193152536v15h0.5V223.50001193152536"></path><path id="kity_path_87" fill="none" stroke="rgb(115, 161, 191)" stroke-width="1" d="M500.5000059763578,136.50001193152536v20h-181V171.50001193152536"></path><path id="kity_path_95" fill="none" stroke="rgb(115, 161, 191)" stroke-width="1" d="M500.5000059763578,136.50001193152536v20h168.5V171.50001193152536"></path><path id="kity_path_103" fill="none" stroke="rgb(115, 161, 191)" stroke-width="1" d="M319.5000059763578,193.50001193152536v15h-107V223.50001193152536"></path><path id="kity_path_111" fill="none" stroke="rgb(115, 161, 191)" stroke-width="1" d="M319.5000059763578,193.50001193152536v15h21.5V223.50001193152536"></path><path id="kity_path_119" fill="none" stroke="rgb(115, 161, 191)" stroke-width="1" d="M669.5000059763578,193.50001193152536v15h-94.5V223.50001193152536"></path><path id="kity_path_127" fill="none" stroke="rgb(115, 161, 191)" stroke-width="1" d="M669.5000059763578,193.50001193152536v15h-5.5V223.50001193152536"></path><path id="kity_path_135" fill="none" stroke="rgb(115, 161, 191)" stroke-width="1" d="M669.5000059763578,193.50001193152536v15h89.5V223.50001193152536"></path><path id="kity_path_143" fill="none" stroke="rgb(115, 161, 191)" stroke-width="1" d="M319.5000059763578,193.50001193152536v15h134.5V223.50001193152536"></path><path id="kity_path_151" fill="none" stroke="rgb(115, 161, 191)" stroke-width="1" d="M454.5000059763578,245.50001193152536v15h0V275.50001193152536"></path></g><g id="minder_node1"><path id="node_outline1" fill="rgb(115, 161, 191)" stroke="rgb(115, 161, 191)" d="M238.50000597635778,20.50001193152537h102a5,5,0,0,1,5,5v30a5,5,0,0,1,-5,5h-102a5,5,0,0,1,-5,-5v-30a5,5,0,0,1,5,-5z" stroke-width="3"></path><g id="node_text1" fill="white"><text id="kity_text_22" text-rendering="inherit" font-size="16" dy=".8em" y="32.50001193152538" x="257.5000059763578">系统实时</text></g></g><g id="kity_g_12"><path id="kity_path_13" fill="none" stroke="none" d="M257.5000059763578,40.500011931525364h0v0h0z"></path></g><g id="kity_g_14"><path id="kity_path_15" fill="none" stroke="none" d="M257.5000059763578,40.500011931525364h0v0h0z"></path><path id="kity_path_16" fill="none" stroke="none"></path></g><g id="minder_node2"><g id="node_expander1" style="cursor: pointer;"><path id="kity_path_36" fill="white" stroke="gray" d="M71.00000143315953,103.50001273685024A6,6,0,1,1,59.000001433159525,103.50001273685024A6,6,0,1,1,71.00000143315953,103.50001273685024"></path><path id="kity_path_37" fill="none" stroke="gray" d="M60.500001433159525,103.50001273685024L69.50000143315953,103.50001273685024"></path></g><path id="node_outline2" fill="rgb(238, 243, 246)" stroke="rgb(115, 161, 191)" d="M33.50000158945619,110.50001369052455h63a3,3,0,0,1,3,3v20a3,3,0,0,1,-3,3h-63a3,3,0,0,1,-3,-3v-20a3,3,0,0,1,3,-3z" stroke-width="1"></path><g id="node_text2" fill="black"><text id="kity_text_33" text-rendering="inherit" font-size="14" dy=".8em" y="116.50001369052455" x="50.50000158945619">指标</text></g></g><g id="minder_node6"><g id="node_expander5" style="cursor: pointer;"><path id="kity_path_68" fill="white" stroke="gray" d="M506.50001059637975,103.50001273685024A6,6,0,1,1,494.50001059637975,103.50001273685024A6,6,0,1,1,506.50001059637975,103.50001273685024"></path><path id="kity_path_69" fill="none" stroke="gray" d="M496.00001059637975,103.50001273685024L505.00001059637975,103.50001273685024"></path></g><path id="node_outline6" fill="rgb(238, 243, 246)" stroke="rgb(115, 161, 191)" d="M455.5000105328015,110.50001369052455h90a3,3,0,0,1,3,3v20a3,3,0,0,1,-3,3h-90a3,3,0,0,1,-3,-3v-20a3,3,0,0,1,3,-3z" stroke-width="1"></path><g id="node_text6" fill="black"><text id="kity_text_65" text-rendering="inherit" font-size="14" dy=".8em" y="116.50001369052455" x="472.5000105328015">优化方法</text></g></g><g id="minder_node7"><g id="node_expander6" style="cursor: pointer;"><path id="kity_path_76" fill="white" stroke="gray" d="M71.00000169806907,165.50001497798485A6,6,0,1,1,59.00000169806907,165.50001497798485A6,6,0,1,1,71.00000169806907,165.50001497798485"></path><path id="kity_path_77" fill="none" stroke="gray" d="M60.50000169806907,165.50001497798485L69.50000169806907,165.50001497798485"></path></g><path id="node_outline7" fill="none" stroke="none" d="M35.50000137752858,171.50001494089747h59a5,5,0,0,1,5,5v12a5,5,0,0,1,-5,5h-59a5,5,0,0,1,-5,-5v-12a5,5,0,0,1,5,-5z" stroke-width="3"></path><g id="node_text7" fill="black"><text id="kity_text_73" text-rendering="inherit" font-size="12" dy=".8em" y="176.50001494089747" x="40.50000137752858">链路延迟</text></g></g><g id="minder_node8"><g id="node_expander7" style="cursor: pointer;" display="none"><path id="kity_path_84" fill="white" stroke="gray" d="M71.50000283453102,217.50001608000844A6,6,0,1,1,59.50000283453102,217.50001608000844A6,6,0,1,1,71.50000283453102,217.50001608000844"></path><path id="kity_path_85" fill="none" stroke="gray"></path></g><path id="node_outline8" fill="none" stroke="none" d="M25.500001165600963,223.50001604292106h80a5,5,0,0,1,5,5v12a5,5,0,0,1,-5,5h-80a5,5,0,0,1,-5,-5v-12a5,5,0,0,1,5,-5z" stroke-width="3"></path><g id="node_text8" fill="black"><text id="kity_text_81" text-rendering="inherit" font-size="12" dy=".8em" y="228.50001604292106" x="30.500001165600963">任务deadline</text></g></g><g id="minder_node9"><g id="node_expander8" style="cursor: pointer;"><path id="kity_path_92" fill="white" stroke="gray" d="M325.5000062306708,165.50001497798485A6,6,0,1,1,313.5000062306708,165.50001497798485A6,6,0,1,1,325.5000062306708,165.50001497798485"></path><path id="kity_path_93" fill="none" stroke="gray" d="M315.0000062306708,165.50001497798485L324.0000062306708,165.50001497798485"></path></g><path id="node_outline9" fill="none" stroke="none" d="M290.5000067816827,171.50001494089747h58a5,5,0,0,1,5,5v12a5,5,0,0,1,-5,5h-58a5,5,0,0,1,-5,-5v-12a5,5,0,0,1,5,-5z" stroke-width="3"></path><g id="node_text9" fill="black"><text id="kity_text_89" text-rendering="inherit" font-size="12" dy=".8em" y="176.50001494089747" x="295.5000067816827">调度优化</text></g></g><g id="minder_node10"><g id="node_expander9" style="cursor: pointer;"><path id="kity_path_100" fill="white" stroke="gray" d="M675.0000139686779,165.50001497798485A6,6,0,1,1,663.0000139686779,165.50001497798485A6,6,0,1,1,675.0000139686779,165.50001497798485"></path><path id="kity_path_101" fill="none" stroke="gray" d="M664.5000139686779,165.50001497798485L673.5000139686779,165.50001497798485"></path></g><path id="node_outline10" fill="none" stroke="none" d="M627.5000139236433,171.50001494089747h83a5,5,0,0,1,5,5v12a5,5,0,0,1,-5,5h-83a5,5,0,0,1,-5,-5v-12a5,5,0,0,1,5,-5z" stroke-width="3"></path><g id="node_text10" fill="black"><text id="kity_text_97" text-rendering="inherit" font-size="12" dy=".8em" y="176.50001494089747" x="632.5000139236433">程序执行优化</text></g></g><g id="minder_node11"><g id="node_expander10" style="cursor: pointer;" display="none"><path id="kity_path_108" fill="white" stroke="gray" d="M218.5000055525026,217.50001608000844A6,6,0,1,1,206.5000055525026,217.50001608000844A6,6,0,1,1,218.5000055525026,217.50001608000844"></path><path id="kity_path_109" fill="none" stroke="gray"></path></g><path id="node_outline11" fill="none" stroke="none" d="M155.50000392065994,223.50001604292106h114a5,5,0,0,1,5,5v12a5,5,0,0,1,-5,5h-114a5,5,0,0,1,-5,-5v-12a5,5,0,0,1,5,-5z" stroke-width="3"></path><g id="node_text11" fill="black"><text id="kity_text_105" text-rendering="inherit" font-size="12" dy=".8em" y="228.50001604292106" x="160.50000392065994">cpu分配与任务编排</text></g></g><g id="minder_node12"><g id="node_expander11" style="cursor: pointer;" display="none"><path id="kity_path_116" fill="white" stroke="gray" d="M347.0000075472712,217.50001608000844A6,6,0,1,1,335.0000075472712,217.50001608000844A6,6,0,1,1,347.0000075472712,217.50001608000844"></path><path id="kity_path_117" fill="none" stroke="gray"></path></g><path id="node_outline12" fill="none" stroke="none" d="M319.5000073962728,223.50001604292106h43a5,5,0,0,1,5,5v12a5,5,0,0,1,-5,5h-43a5,5,0,0,1,-5,-5v-12a5,5,0,0,1,5,-5z" stroke-width="3"></path><g id="node_text12" fill="black"><text id="kity_text_113" text-rendering="inherit" font-size="12" dy=".8em" y="228.50001604292106" x="324.5000073962728">RTOS</text></g></g><g id="minder_node13"><g id="node_expander12" style="cursor: pointer;" display="none"><path id="kity_path_124" fill="white" stroke="gray" d="M580.500011634825,217.50001608000844A6,6,0,1,1,568.500011634825,217.50001608000844A6,6,0,1,1,580.500011634825,217.50001608000844"></path><path id="kity_path_125" fill="none" stroke="gray"></path></g><path id="node_outline13" fill="none" stroke="none" d="M545.5000121858369,223.50001604292106h58a5,5,0,0,1,5,5v12a5,5,0,0,1,-5,5h-58a5,5,0,0,1,-5,-5v-12a5,5,0,0,1,5,-5z" stroke-width="3"></path><g id="node_text13" fill="black"><text id="kity_text_121" text-rendering="inherit" font-size="12" dy=".8em" y="228.50001604292106" x="550.5000121858369">内存分配</text></g></g><g id="minder_node14"><g id="node_expander13" style="cursor: pointer;" display="none"><path id="kity_path_132" fill="white" stroke="gray" d="M669.5000147130737,217.50001608000844A6,6,0,1,1,657.5000147130737,217.50001608000844A6,6,0,1,1,669.5000147130737,217.50001608000844"></path><path id="kity_path_133" fill="none" stroke="gray"></path></g><path id="node_outline14" fill="none" stroke="none" d="M653.5000144746551,223.50001604292106h20a5,5,0,0,1,5,5v12a5,5,0,0,1,-5,5h-20a5,5,0,0,1,-5,-5v-12a5,5,0,0,1,5,-5z" stroke-width="3"></path><g id="node_text14" fill="black"><text id="kity_text_129" text-rendering="inherit" font-size="12" dy=".8em" y="228.50001604292106" x="658.5000144746551">io</text></g></g><g id="minder_node15"><g id="node_expander14" style="cursor: pointer;" display="none"><path id="kity_path_140" fill="white" stroke="gray" d="M764.5000173886599,217.50001608000844A6,6,0,1,1,752.5000173886599,217.50001608000844A6,6,0,1,1,764.5000173886599,217.50001608000844"></path><path id="kity_path_141" fill="none" stroke="gray"></path></g><path id="node_outline15" fill="none" stroke="none" d="M723.5000159581484,223.50001604292106h70a5,5,0,0,1,5,5v12a5,5,0,0,1,-5,5h-70a5,5,0,0,1,-5,-5v-12a5,5,0,0,1,5,-5z" stroke-width="3"></path><g id="node_text15" fill="black"><text id="kity_text_137" text-rendering="inherit" font-size="12" dy=".8em" y="228.50001604292106" x="728.5000159581484">多线程同步</text></g></g><g id="minder_node16"><g id="node_expander15" style="cursor: pointer;"><path id="kity_path_148" fill="white" stroke="gray" d="M460.0000099420532,217.50001608000844A6,6,0,1,1,448.0000099420532,217.50001608000844A6,6,0,1,1,460.0000099420532,217.50001608000844"></path><path id="kity_path_149" fill="none" stroke="gray" d="M449.5000099420532,217.50001608000844L458.5000099420532,217.50001608000844"></path></g><path id="node_outline16" fill="none" stroke="none" d="M424.50000962151273,223.50001604292106h59a5,5,0,0,1,5,5v12a5,5,0,0,1,-5,5h-59a5,5,0,0,1,-5,-5v-12a5,5,0,0,1,5,-5z" stroke-width="3"></path><g id="node_text16" fill="black"><text id="kity_text_145" text-rendering="inherit" font-size="12" dy=".8em" y="228.50001604292106" x="429.50000962151273">架构优化</text></g></g><g id="minder_node17"><g id="node_expander16" style="cursor: pointer;" display="none"><path id="kity_path_156" fill="white" stroke="gray" d="M460.00000941223414,269.500017182032A6,6,0,1,1,448.00000941223414,269.500017182032A6,6,0,1,1,460.00000941223414,269.500017182032"></path><path id="kity_path_157" fill="none" stroke="gray"></path></g><path id="node_outline17" fill="none" stroke="none" d="M412.5000093671996,275.50001714494465h83a5,5,0,0,1,5,5v12a5,5,0,0,1,-5,5h-83a5,5,0,0,1,-5,-5v-12a5,5,0,0,1,5,-5z" stroke-width="3"></path><g id="node_text17" fill="black"><text id="kity_text_153" text-rendering="inherit" font-size="12" dy=".8em" y="280.50001714494465" x="417.5000093671996">减少任务数量</text></g></g></g></g></svg>