<svg id="kity_svg_6" xmlns="http://www.w3.org/2000/svg" xmlns:xlink="http://www.w3.org/1999/xlink" version="1.1" width="1771" height="525" style="background: rgb(251, 251, 251); visibility: visible;" viewBox="0 0 1771 525"><defs id="kity_defs_7"><linearGradient id="kity_linearGradient_17" x1="0" y1="0" x2="0" y2="1"><stop id="kity_stop_18" offset="0" stop-color="rgb(255, 255, 255)"></stop><stop id="kity_stop_19" offset="1" stop-color="rgb(204, 204, 204)"></stop></linearGradient><marker id="kity_marker_2" orient="auto" refX="6" refY="0" viewBox="-7 -7 14 14" markerWidth="7" markerHeight="7" markerUnits="userSpaceOnUse"><path id="kity_path_3" fill="rgb(115, 161, 191)" stroke="none" d="M6,0A6,6,0,1,1,-6,0A6,6,0,1,1,6,0"></path></marker></defs><g id="kity_g_8"><g id="minder1" text-rendering="optimize-speed"><g id="minder_connect_group1"><path id="kity_path_32" fill="none" stroke="rgb(115, 161, 191)" stroke-width="1" d="M1160.4999835703084,60.500002961688445v30h-436.5V110.50000296168844"></path><path id="kity_path_72" fill="none" stroke="rgb(115, 161, 191)" stroke-width="1" d="M723.4999835703084,193.50000296168844v15h-372.5V223.50000296168844"></path><path id="kity_path_80" fill="none" stroke="rgb(115, 161, 191)" stroke-width="1" d="M723.4999835703084,193.50000296168844v15h339V223.50000296168844"></path><path id="kity_path_136" fill="none" stroke="rgb(115, 161, 191)" stroke-width="1" d="M723.4999835703084,136.50000296168844v20h0V171.50000296168844"></path><path id="kity_path_144" fill="none" stroke="rgb(115, 161, 191)" stroke-width="1" d="M1062.4999835703084,245.50000296168844v15h173.5V275.50000296168844"></path><path id="kity_path_171" fill="none" stroke="rgb(115, 161, 191)" stroke-width="1" d="M351.49998357030836,245.50000296168844v15h0V275.50000296168844"></path><path id="kity_path_228" fill="none" stroke="rgb(115, 161, 191)" stroke-width="1" d="M351.49998357030836,349.50000296168844v15h-242V379.50000296168844"></path><path id="kity_path_229" fill="none" stroke="rgb(115, 161, 191)" stroke-width="1" d="M351.49998357030836,349.50000296168844v15h-11.5V379.50000296168844"></path><path id="kity_path_230" fill="none" stroke="rgb(115, 161, 191)" stroke-width="1" d="M351.49998357030836,349.50000296168844v15h230.5V379.50000296168844"></path><path id="kity_path_232" fill="none" stroke="rgb(115, 161, 191)" stroke-width="1" d="M351.49998357030836,297.50000296168844v15h0V327.50000296168844"></path><path id="kity_path_240" fill="none" stroke="rgb(115, 161, 191)" stroke-width="1" d="M109.49998357030836,401.50000296168844v15h0V431.50000296168844"></path><path id="kity_path_248" fill="none" stroke="rgb(115, 161, 191)" stroke-width="1" d="M339.49998357030836,401.50000296168844v15h0.5V431.50000296168844"></path><path id="kity_path_256" fill="none" stroke="rgb(115, 161, 191)" stroke-width="1" d="M581.4999835703084,401.50000296168844v15h0.5V431.50000296168844"></path><path id="kity_path_264" fill="none" stroke="rgb(115, 161, 191)" stroke-width="1" d="M109.49998357030836,453.50000296168844v15h-53.5V483.50000296168844"></path><path id="kity_path_272" fill="none" stroke="rgb(115, 161, 191)" stroke-width="1" d="M109.49998357030836,453.50000296168844v15h54.5V483.50000296168844"></path><path id="kity_path_280" fill="none" stroke="rgb(115, 161, 191)" stroke-width="1" d="M340.49998357030836,453.50000296168844v15h-53.5V483.50000296168844"></path><path id="kity_path_288" fill="none" stroke="rgb(115, 161, 191)" stroke-width="1" d="M340.49998357030836,453.50000296168844v15h54.5V483.50000296168844"></path><path id="kity_path_296" fill="none" stroke="rgb(115, 161, 191)" stroke-width="1" d="M582.4999835703084,453.50000296168844v15h-53.5V483.50000296168844"></path><path id="kity_path_304" fill="none" stroke="rgb(115, 161, 191)" stroke-width="1" d="M582.4999835703084,453.50000296168844v15h54.5V483.50000296168844"></path><path id="kity_path_312" fill="none" stroke="rgb(115, 161, 191)" stroke-width="1" d="M1160.4999835703084,60.500002961688445v30h436.5V110.50000296168844"></path><path id="kity_path_416" fill="none" stroke="rgb(115, 161, 191)" stroke-width="1" d="M1062.4999835703084,245.50000296168844v15h-186V275.50000296168844"></path><path id="kity_path_489" fill="none" stroke="rgb(115, 161, 191)" stroke-width="1" d="M1596.4999835703084,136.50000296168844v20h-120.5V171.50000296168844"></path><path id="kity_path_490" fill="none" stroke="rgb(115, 161, 191)" stroke-width="1" d="M1596.4999835703084,136.50000296168844v20h-12V171.50000296168844"></path><path id="kity_path_491" fill="none" stroke="rgb(115, 161, 191)" stroke-width="1" d="M877.4999835703084,401.50000296168844v15h-120.5V431.50000296168844"></path><path id="kity_path_492" fill="none" stroke="rgb(115, 161, 191)" stroke-width="1" d="M877.4999835703084,401.50000296168844v15h-12V431.50000296168844"></path><path id="kity_path_493" fill="none" stroke="rgb(115, 161, 191)" stroke-width="1" d="M877.4999835703084,401.50000296168844v15h109V431.50000296168844"></path><path id="kity_path_494" fill="none" stroke="rgb(115, 161, 191)" stroke-width="1" d="M876.4999835703084,349.50000296168844v15h0.5V379.50000296168844"></path><path id="kity_path_495" fill="none" stroke="rgb(115, 161, 191)" stroke-width="1" d="M876.4999835703084,297.50000296168844v15h0V327.50000296168844"></path><path id="kity_path_496" fill="none" stroke="rgb(115, 161, 191)" stroke-width="1" d="M1236.4999835703084,297.50000296168844v15h-87.5V327.50000296168844"></path><path id="kity_path_497" fill="none" stroke="rgb(115, 161, 191)" stroke-width="1" d="M1236.4999835703084,297.50000296168844v15h97.5V327.50000296168844"></path><path id="kity_path_499" fill="none" stroke="rgb(115, 161, 191)" stroke-width="1" d="M1596.4999835703084,136.50000296168844v20h108.5V171.50000296168844"></path></g><g id="minder_node1"><path id="kity_path_30" fill="rgba(0, 0, 0, .25)" stroke="none" d="M1125.4999835703084,18.500002961688445h116a27,27,0,0,1,27,27v0a27,27,0,0,1,-27,27h-116a27,27,0,0,1,-27,-27v0a27,27,0,0,1,27,-27z" display="none"></path><path id="node_outline1" fill="rgb(115, 161, 191)" stroke="rgb(115, 161, 191)" d="M1100.4999835703084,20.500002961688445h119a5,5,0,0,1,5,5v30a5,5,0,0,1,-5,5h-119a5,5,0,0,1,-5,-5v-30a5,5,0,0,1,5,-5z" stroke-width="3"></path><g id="node_text1" fill="white"><text id="kity_text_22" text-rendering="inherit" font-size="16" dy=".8em" y="32.50000296168845" x="1119.4999835703084">无人车安全</text></g></g><g id="kity_g_14" display="none"><path id="kity_path_15" fill="rgba(0, 92, 153, 0.5)" stroke="none" d="M1324.4999835703084,275.50000296168844h20v22h-20z"></path><path id="kity_path_16" fill="none" stroke="rgb(0, 76, 128)" d="M1324.4999835703084,275.50000296168844L1324.4999835703084,297.50000296168844" stroke-width="1"></path></g><g id="minder_node2"><path id="kity_path_172" fill="rgba(0, 0, 0, .25)" stroke="none" d="M689.4999745845776,114.50000472068763h85a10,10,0,0,1,10,10v8a10,10,0,0,1,-10,10h-85a10,10,0,0,1,-10,-10v-8a10,10,0,0,1,10,-10z" display="none"></path><g id="node_expander1" style="cursor: pointer;"><path id="kity_path_37" fill="white" stroke="gray" d="M729.4999746481558,103.50000376701331A6,6,0,1,1,717.4999746481558,103.50000376701331A6,6,0,1,1,729.4999746481558,103.50000376701331"></path><path id="kity_path_38" fill="none" stroke="gray" d="M718.9999746481558,103.50000376701331L727.9999746481558,103.50000376701331"></path></g><path id="node_outline2" fill="rgb(238, 243, 246)" stroke="rgb(115, 161, 191)" d="M678.4999745845776,110.50000472068763h90a3,3,0,0,1,3,3v20a3,3,0,0,1,-3,3h-90a3,3,0,0,1,-3,-3v-20a3,3,0,0,1,3,-3z" stroke-width="1"></path><g id="node_text2" fill="black"><text id="kity_text_34" text-rendering="inherit" font-size="14" dy=".8em" y="116.50000472068763" x="695.4999745845776">功能安全</text></g></g><g id="minder_node7" opacity="1"><g id="node_expander6" style="cursor: pointer;"><path id="kity_path_77" fill="white" stroke="gray" d="M356.99996933672026,217.5000071101715A6,6,0,1,1,344.99996933672026,217.5000071101715A6,6,0,1,1,356.99996933672026,217.5000071101715"></path><path id="kity_path_78" fill="none" stroke="gray" d="M346.49996933672026,217.5000071101715L355.49996933672026,217.5000071101715"></path></g><path id="node_outline7" fill="none" stroke="none" d="M300.49996631940064,223.50000707308413h101a5,5,0,0,1,5,5v12a5,5,0,0,1,-5,5h-101a5,5,0,0,1,-5,-5v-12a5,5,0,0,1,5,-5z" stroke-width="3"></path><g id="node_text7" fill="black"><text id="kity_text_74" text-rendering="inherit" font-size="12" dy=".8em" y="228.50000707308413" x="305.49996631940064">狭义: 安全子系统</text></g></g><g id="minder_node8" opacity="1"><g id="node_expander7" style="cursor: pointer;"><path id="kity_path_85" fill="white" stroke="gray" d="M1068.4999827596853,217.5000071101715A6,6,0,1,1,1056.4999827596853,217.5000071101715A6,6,0,1,1,1068.4999827596853,217.5000071101715"></path><path id="kity_path_86" fill="none" stroke="gray" d="M1057.9999827596853,217.5000071101715L1066.9999827596853,217.5000071101715"></path></g><path id="node_outline8" fill="none" stroke="rgb(57, 80, 96)" d="M978.4999806880928,223.50000707308413h168a5,5,0,0,1,5,5v12a5,5,0,0,1,-5,5h-168a5,5,0,0,1,-5,-5v-12a5,5,0,0,1,5,-5z" stroke-width="3"></path><g id="node_text8" fill="black"><text id="kity_text_82" text-rendering="inherit" font-size="12" dy=".8em" y="228.50000707308413" x="983.4999806880928">广义: 功能安全标准/流程/设计</text></g></g><g id="minder_node15"><g id="node_expander14" style="cursor: pointer;"><path id="kity_path_141" fill="white" stroke="gray" d="M729.4999741183367,165.50000600814795A6,6,0,1,1,717.4999741183367,165.50000600814795A6,6,0,1,1,729.4999741183367,165.50000600814795"></path><path id="kity_path_142" fill="none" stroke="gray" d="M718.9999741183367,165.50000600814795L727.9999741183367,165.50000600814795"></path></g><path id="node_outline15" fill="none" stroke="none" d="M694.4999746693486,171.50000597106057h58a5,5,0,0,1,5,5v12a5,5,0,0,1,-5,5h-58a5,5,0,0,1,-5,-5v-12a5,5,0,0,1,5,-5z" stroke-width="3"></path><g id="node_text15" fill="black"><text id="kity_text_138" text-rendering="inherit" font-size="12" dy=".8em" y="176.50000597106057" font-family="微软雅黑,Microsoft YaHei" x="699.4999746693486">语义分类</text></g><g id="node_priority1" display="none"><path id="kity_path_175" fill="#840023" stroke="none" d="M674.9999734878521,186.0000055048198c0,3.866,3.134,7,7,7h6c3.866,0,7,-3.134,7,-7V180.0000055048198H674.9999734878521V186.0000055048198z"></path><path id="kity_path_176" fill="#FF1200" stroke="none" d="M694.9999734878521,183.0000055048198c0,3.866,-3.134,7,-7,7H681.9999734878521c-3.866,0,-7,-3.134,-7,-7V180.0000055048198c0,-3.866,3.134,-7,7,-7h6c3.866,0,7,3.134,7,7V183.0000055048198z" opacity="0.8"></path><text id="kity_text_177" text-rendering="geometricPrecision" x="683.9999734772557" y="182.50000549422342" text-anchor="middle" font-style="italic" font-size="12" fill="white" dy="4">1</text></g></g><g id="minder_node16" opacity="1"><g id="node_expander15" style="cursor: pointer;"><path id="kity_path_149" fill="white" stroke="gray" d="M1241.999985840583,269.5000082121951A6,6,0,1,1,1229.999985840583,269.5000082121951A6,6,0,1,1,1241.999985840583,269.5000082121951"></path><path id="kity_path_150" fill="none" stroke="gray" d="M1231.499985840583,269.5000082121951L1240.499985840583,269.5000082121951"></path></g><path id="node_outline16" fill="none" stroke="none" d="M1206.4999855200424,275.5000081751077h59a5,5,0,0,1,5,5v12a5,5,0,0,1,-5,5h-59a5,5,0,0,1,-5,-5v-12a5,5,0,0,1,5,-5z" stroke-width="3"></path><g id="node_text16" fill="black"><text id="kity_text_146" text-rendering="inherit" font-size="12" dy=".8em" y="280.5000081751077" x="1211.4999855200424">标准分类</text></g></g><g id="minder_node12" opacity="1"><g id="node_expander11" style="cursor: pointer;"><path id="kity_path_117" fill="white" stroke="gray" d="M356.9999682770821,269.5000082121951A6,6,0,1,1,344.9999682770821,269.5000082121951A6,6,0,1,1,356.9999682770821,269.5000082121951"></path><path id="kity_path_118" fill="none" stroke="gray" d="M346.4999682770821,269.5000082121951L355.4999682770821,269.5000082121951"></path></g><path id="node_outline12" fill="none" stroke="none" d="M276.49996581077437,275.5000081751077h149a5,5,0,0,1,5,5v12a5,5,0,0,1,-5,5h-149a5,5,0,0,1,-5,-5v-12a5,5,0,0,1,5,-5z" stroke-width="3"></path><g id="node_text12" fill="black"><text id="kity_text_114" text-rendering="inherit" font-size="12" dy=".8em" y="280.5000081751077" x="281.49996581077437">Fault-Tolerance(容错设计)</text></g></g><g id="minder_node22" opacity="1"><g id="node_expander20" style="cursor: pointer;"><path id="kity_path_217" fill="white" stroke="gray" d="M114.999965929984,373.5000104162423A6,6,0,1,1,102.999965929984,373.5000104162423A6,6,0,1,1,114.999965929984,373.5000104162423"></path><path id="kity_path_218" fill="none" stroke="gray" d="M104.499965929984,373.5000104162423L113.499965929984,373.5000104162423"></path></g><path id="node_outline21" fill="none" stroke="none" d="M25.49996049139122,379.5000103791549h167a5,5,0,0,1,5,5v12a5,5,0,0,1,-5,5h-167a5,5,0,0,1,-5,-5v-12a5,5,0,0,1,5,-5z" stroke-width="3"></path><g id="node_text21" fill="black"><text id="kity_text_205" text-rendering="inherit" font-size="12" dy=".8em" y="384.5000103791549" x="30.49996049139122">Byzantine Faults(拜占庭错误)</text></g></g><g id="minder_node23" opacity="1"><g id="node_expander21" style="cursor: pointer;"><path id="kity_path_220" fill="white" stroke="gray" d="M345.4999643908591,373.5000104162423A6,6,0,1,1,333.4999643908591,373.5000104162423A6,6,0,1,1,345.4999643908591,373.5000104162423"></path><path id="kity_path_221" fill="none" stroke="gray" d="M334.9999643908591,373.5000104162423L343.9999643908591,373.5000104162423"></path></g><path id="node_outline22" fill="none" stroke="none" d="M242.49996509022048,379.5000103791549h194a5,5,0,0,1,5,5v12a5,5,0,0,1,-5,5h-194a5,5,0,0,1,-5,-5v-12a5,5,0,0,1,5,-5z" stroke-width="3"></path><g id="node_text22" fill="black"><text id="kity_text_207" text-rendering="inherit" font-size="12" dy=".8em" y="384.5000103791549" x="247.49996509022048"> Common Mode Failures(共因失效)</text></g></g><g id="minder_node24" opacity="1"><g id="node_expander22" style="cursor: pointer;"><path id="kity_path_223" fill="white" stroke="gray" d="M587.4999745527887,373.5000104162423A6,6,0,1,1,575.4999745527887,373.5000104162423A6,6,0,1,1,587.4999745527887,373.5000104162423"></path><path id="kity_path_224" fill="none" stroke="gray" d="M576.9999745527887,373.5000104162423L585.9999745527887,373.5000104162423"></path></g><path id="node_outline23" fill="none" stroke="none" d="M486.49997026125425,379.5000103791549h190a5,5,0,0,1,5,5v12a5,5,0,0,1,-5,5h-190a5,5,0,0,1,-5,-5v-12a5,5,0,0,1,5,-5z" stroke-width="3"></path><g id="node_text23" fill="black"><text id="kity_text_209" text-rendering="inherit" font-size="12" dy=".8em" y="384.5000103791549" x="491.49997026125425">Performance Limitation(性能限制)</text></g></g><g id="minder_node25" opacity="1"><g id="node_expander24" style="cursor: pointer;"><path id="kity_path_237" fill="white" stroke="gray" d="M356.99996708498895,321.5000093142187A6,6,0,1,1,344.99996708498895,321.5000093142187A6,6,0,1,1,356.99996708498895,321.5000093142187"></path><path id="kity_path_238" fill="none" stroke="gray" d="M346.49996708498895,321.5000093142187L355.49996708498895,321.5000093142187"></path></g><path id="node_outline25" fill="none" stroke="none" d="M321.49996676444846,327.5000092771313h59a5,5,0,0,1,5,5v12a5,5,0,0,1,-5,5h-59a5,5,0,0,1,-5,-5v-12a5,5,0,0,1,5,-5z" stroke-width="3"></path><g id="node_text25" fill="black"><text id="kity_text_234" text-rendering="inherit" font-size="12" dy=".8em" y="332.5000092771313" x="326.49996676444846">错误分类</text></g></g><g id="minder_node26"><g id="node_expander25" style="cursor: pointer;"><path id="kity_path_245" fill="white" stroke="gray" d="M114.99996195634071,425.50001151826586A6,6,0,1,1,102.99996195634071,425.50001151826586A6,6,0,1,1,114.99996195634071,425.50001151826586"></path><path id="kity_path_246" fill="none" stroke="gray" d="M104.49996195634071,425.50001151826586L113.49996195634071,425.50001151826586"></path></g><path id="node_outline26" fill="none" stroke="none" d="M79.49996163580022,431.5000114811785h59a5,5,0,0,1,5,5v12a5,5,0,0,1,-5,5h-59a5,5,0,0,1,-5,-5v-12a5,5,0,0,1,5,-5z" stroke-width="3"></path><g id="node_text26" fill="black"><text id="kity_text_242" text-rendering="inherit" font-size="12" dy=".8em" y="436.5000114811785" x="84.49996163580022">应对方案</text></g></g><g id="minder_node27" opacity="1"><g id="node_expander26" style="cursor: pointer;"><path id="kity_path_253" fill="white" stroke="gray" d="M345.99996685186863,425.50001151826586A6,6,0,1,1,333.99996685186863,425.50001151826586A6,6,0,1,1,345.99996685186863,425.50001151826586"></path><path id="kity_path_254" fill="none" stroke="gray" d="M335.49996685186863,425.50001151826586L344.49996685186863,425.50001151826586"></path></g><path id="node_outline27" fill="none" stroke="none" d="M310.49996653132814,431.5000114811785h59a5,5,0,0,1,5,5v12a5,5,0,0,1,-5,5h-59a5,5,0,0,1,-5,-5v-12a5,5,0,0,1,5,-5z" stroke-width="3"></path><g id="node_text27" fill="black"><text id="kity_text_250" text-rendering="inherit" font-size="12" dy=".8em" y="436.5000114811785" x="315.49996653132814">应对方案</text></g></g><g id="minder_node28"><g id="node_expander27" style="cursor: pointer;"><path id="kity_path_261" fill="white" stroke="gray" d="M587.999971980517,425.50001151826586A6,6,0,1,1,575.999971980517,425.50001151826586A6,6,0,1,1,587.999971980517,425.50001151826586"></path><path id="kity_path_262" fill="none" stroke="gray" d="M577.499971980517,425.50001151826586L586.499971980517,425.50001151826586"></path></g><path id="node_outline28" fill="none" stroke="none" d="M552.4999716599765,431.5000114811785h59a5,5,0,0,1,5,5v12a5,5,0,0,1,-5,5h-59a5,5,0,0,1,-5,-5v-12a5,5,0,0,1,5,-5z" stroke-width="3"></path><g id="node_text28" fill="black"><text id="kity_text_258" text-rendering="inherit" font-size="12" dy=".8em" y="436.5000114811785" x="557.4999716599765">应对方案</text></g></g><g id="minder_node29"><g id="node_expander28" style="cursor: pointer;" display="none"><path id="kity_path_269" fill="white" stroke="gray" d="M61.49995996157213,477.50001262028945A6,6,0,1,1,49.49995996157213,477.50001262028945A6,6,0,1,1,61.49995996157213,477.50001262028945"></path><path id="kity_path_270" fill="none" stroke="gray"></path></g><path id="node_outline29" fill="none" stroke="none" d="M26.49996051258404,483.5000125832021h58a5,5,0,0,1,5,5v12a5,5,0,0,1,-5,5h-58a5,5,0,0,1,-5,-5v-12a5,5,0,0,1,5,-5z" stroke-width="3"></path><g id="node_text29" fill="black"><text id="kity_text_266" text-rendering="inherit" font-size="12" dy=".8em" y="488.5000125832021" x="31.49996051258404">分支主题</text></g></g><g id="minder_node30"><g id="node_expander29" style="cursor: pointer;" display="none"><path id="kity_path_277" fill="white" stroke="gray" d="M169.49996225039024,477.50001262028945A6,6,0,1,1,157.49996225039024,477.50001262028945A6,6,0,1,1,169.49996225039024,477.50001262028945"></path><path id="kity_path_278" fill="none" stroke="gray"></path></g><path id="node_outline30" fill="none" stroke="none" d="M134.49996280140215,483.5000125832021h58a5,5,0,0,1,5,5v12a5,5,0,0,1,-5,5h-58a5,5,0,0,1,-5,-5v-12a5,5,0,0,1,5,-5z" stroke-width="3"></path><g id="node_text30" fill="black"><text id="kity_text_274" text-rendering="inherit" font-size="12" dy=".8em" y="488.5000125832021" x="139.49996280140215">分支主题</text></g></g><g id="minder_node31"><g id="node_expander30" style="cursor: pointer;" display="none"><path id="kity_path_285" fill="white" stroke="gray" d="M292.49996485709994,477.50001262028945A6,6,0,1,1,280.49996485709994,477.50001262028945A6,6,0,1,1,292.49996485709994,477.50001262028945"></path><path id="kity_path_286" fill="none" stroke="gray"></path></g><path id="node_outline31" fill="none" stroke="none" d="M257.49996540811185,483.5000125832021h58a5,5,0,0,1,5,5v12a5,5,0,0,1,-5,5h-58a5,5,0,0,1,-5,-5v-12a5,5,0,0,1,5,-5z" stroke-width="3"></path><g id="node_text31" fill="black"><text id="kity_text_282" text-rendering="inherit" font-size="12" dy=".8em" y="488.5000125832021" x="262.49996540811185">分支主题</text></g></g><g id="minder_node32"><g id="node_expander31" style="cursor: pointer;" display="none"><path id="kity_path_293" fill="white" stroke="gray" d="M400.49996714591805,477.50001262028945A6,6,0,1,1,388.49996714591805,477.50001262028945A6,6,0,1,1,400.49996714591805,477.50001262028945"></path><path id="kity_path_294" fill="none" stroke="gray"></path></g><path id="node_outline32" fill="none" stroke="none" d="M365.49996769692996,483.5000125832021h58a5,5,0,0,1,5,5v12a5,5,0,0,1,-5,5h-58a5,5,0,0,1,-5,-5v-12a5,5,0,0,1,5,-5z" stroke-width="3"></path><g id="node_text32" fill="black"><text id="kity_text_290" text-rendering="inherit" font-size="12" dy=".8em" y="488.5000125832021" x="370.49996769692996">分支主题</text></g></g><g id="minder_node33"><g id="node_expander32" style="cursor: pointer;" display="none"><path id="kity_path_301" fill="white" stroke="gray" d="M534.4999699857483,477.50001262028945A6,6,0,1,1,522.4999699857483,477.50001262028945A6,6,0,1,1,534.4999699857483,477.50001262028945"></path><path id="kity_path_302" fill="none" stroke="gray"></path></g><path id="node_outline33" fill="none" stroke="none" d="M499.4999705367602,483.5000125832021h58a5,5,0,0,1,5,5v12a5,5,0,0,1,-5,5h-58a5,5,0,0,1,-5,-5v-12a5,5,0,0,1,5,-5z" stroke-width="3"></path><g id="node_text33" fill="black"><text id="kity_text_298" text-rendering="inherit" font-size="12" dy=".8em" y="488.5000125832021" x="504.4999705367602">分支主题</text></g></g><g id="minder_node34"><g id="node_expander33" style="cursor: pointer;" display="none"><path id="kity_path_309" fill="white" stroke="gray" d="M642.4999722745665,477.50001262028945A6,6,0,1,1,630.4999722745665,477.50001262028945A6,6,0,1,1,642.4999722745665,477.50001262028945"></path><path id="kity_path_310" fill="none" stroke="gray"></path></g><path id="node_outline34" fill="none" stroke="none" d="M607.4999728255784,483.5000125832021h58a5,5,0,0,1,5,5v12a5,5,0,0,1,-5,5h-58a5,5,0,0,1,-5,-5v-12a5,5,0,0,1,5,-5z" stroke-width="3"></path><g id="node_text34" fill="black"><text id="kity_text_306" text-rendering="inherit" font-size="12" dy=".8em" y="488.5000125832021" x="612.4999728255784">分支主题</text></g></g><g id="minder_node35" opacity="1"><g id="node_expander34" style="cursor: pointer;"><path id="kity_path_317" fill="white" stroke="gray" d="M1602.4999931494365,103.50000376701331A6,6,0,1,1,1590.4999931494365,103.50000376701331A6,6,0,1,1,1602.4999931494365,103.50000376701331"></path><path id="kity_path_318" fill="none" stroke="gray" d="M1591.9999931494365,103.50000376701331L1600.9999931494365,103.50000376701331"></path></g><path id="node_outline35" fill="rgb(238, 243, 246)" stroke="rgb(115, 161, 191)" d="M1551.4999930858583,110.50000472068763h90a3,3,0,0,1,3,3v20a3,3,0,0,1,-3,3h-90a3,3,0,0,1,-3,-3v-20a3,3,0,0,1,3,-3z" stroke-width="1"></path><g id="node_text35" fill="black"><text id="kity_text_314" text-rendering="inherit" font-size="14" dy=".8em" y="116.50000472068763" x="1568.4999930858583">技术安全</text></g></g><g id="minder_node48" opacity="1"><g id="node_expander47" style="cursor: pointer;"><path id="kity_path_421" fill="white" stroke="gray" d="M882.4999778906483,269.5000082121951A6,6,0,1,1,870.4999778906483,269.5000082121951A6,6,0,1,1,882.4999778906483,269.5000082121951"></path><path id="kity_path_422" fill="none" stroke="gray" d="M871.9999778906483,269.5000082121951L880.9999778906483,269.5000082121951"></path></g><path id="node_outline48" fill="none" stroke="none" d="M859.4999781661543,275.5000081751077h34a5,5,0,0,1,5,5v12a5,5,0,0,1,-5,5h-34a5,5,0,0,1,-5,-5v-12a5,5,0,0,1,5,-5z" stroke-width="3"></path><g id="node_text48" fill="black"><text id="kity_text_418" text-rendering="inherit" font-size="12" dy=".8em" y="280.5000081751077" x="864.4999781661543">设计</text></g></g><g id="minder_node54" opacity="1"><g id="node_expander53" style="cursor: pointer;" display="none"><path id="kity_path_469" fill="white" stroke="gray" d="M1481.9999909268456,165.50000600814795A6,6,0,1,1,1469.9999909268456,165.50000600814795A6,6,0,1,1,1481.9999909268456,165.50000600814795"></path><path id="kity_path_470" fill="none" stroke="gray"></path></g><path id="node_outline54" fill="none" stroke="none" d="M1446.4999906063051,171.50000597106057h59a5,5,0,0,1,5,5v12a5,5,0,0,1,-5,5h-59a5,5,0,0,1,-5,-5v-12a5,5,0,0,1,5,-5z" stroke-width="3"></path><g id="node_text54" fill="black"><text id="kity_text_466" text-rendering="inherit" font-size="12" dy=".8em" y="176.50000597106057" x="1451.4999906063051">决策安全</text></g></g><g id="minder_node55"><g id="node_expander54" style="cursor: pointer;" display="none"><path id="kity_path_477" fill="white" stroke="gray" d="M1590.4999923653043,165.50000600814795A6,6,0,1,1,1578.4999923653043,165.50000600814795A6,6,0,1,1,1590.4999923653043,165.50000600814795"></path><path id="kity_path_478" fill="none" stroke="gray"></path></g><path id="node_outline55" fill="none" stroke="none" d="M1555.4999929163162,171.50000597106057h58a5,5,0,0,1,5,5v12a5,5,0,0,1,-5,5h-58a5,5,0,0,1,-5,-5v-12a5,5,0,0,1,5,-5z" stroke-width="3"></path><g id="node_text55" fill="black"><text id="kity_text_474" text-rendering="inherit" font-size="12" dy=".8em" y="176.50000597106057" x="1560.4999929163162">防撞安全</text></g></g><g id="minder_node52" opacity="1"><g id="node_expander51" style="cursor: pointer;" display="none"><path id="kity_path_453" fill="white" stroke="gray" d="M762.4999748176978,425.50001151826586A6,6,0,1,1,750.4999748176978,425.50001151826586A6,6,0,1,1,762.4999748176978,425.50001151826586"></path><path id="kity_path_454" fill="none" stroke="gray"></path></g><path id="node_outline52" fill="none" stroke="none" d="M727.4999753687097,431.5000114811785h58a5,5,0,0,1,5,5v12a5,5,0,0,1,-5,5h-58a5,5,0,0,1,-5,-5v-12a5,5,0,0,1,5,-5z" stroke-width="3"></path><g id="node_text52" fill="black"><text id="kity_text_450" text-rendering="inherit" font-size="12" dy=".8em" y="436.5000114811785" x="732.4999753687097">实时系统</text></g></g><g id="minder_node53"><g id="node_expander52" style="cursor: pointer;" display="none"><path id="kity_path_461" fill="white" stroke="gray" d="M870.9999779780685,425.50001151826586A6,6,0,1,1,858.9999779780685,425.50001151826586A6,6,0,1,1,870.9999779780685,425.50001151826586"></path><path id="kity_path_462" fill="none" stroke="gray"></path></g><path id="node_outline53" fill="none" stroke="none" d="M835.499977657528,431.5000114811785h59a5,5,0,0,1,5,5v12a5,5,0,0,1,-5,5h-59a5,5,0,0,1,-5,-5v-12a5,5,0,0,1,5,-5z" stroke-width="3"></path><g id="node_text53" fill="black"><text id="kity_text_458" text-rendering="inherit" font-size="12" dy=".8em" y="436.5000114811785" x="840.499977657528">任务编排</text></g></g><g id="minder_node56"><g id="node_expander55" style="cursor: pointer;" display="none"><path id="kity_path_485" fill="white" stroke="gray" d="M991.9999800125735,425.50001151826586A6,6,0,1,1,979.9999800125735,425.50001151826586A6,6,0,1,1,991.9999800125735,425.50001151826586"></path><path id="kity_path_486" fill="none" stroke="gray"></path></g><path id="node_outline56" fill="none" stroke="none" d="M944.4999799675389,431.5000114811785h83a5,5,0,0,1,5,5v12a5,5,0,0,1,-5,5h-83a5,5,0,0,1,-5,-5v-12a5,5,0,0,1,5,-5z" stroke-width="3"></path><g id="node_text56" fill="black"><text id="kity_text_482" text-rendering="inherit" font-size="12" dy=".8em" y="436.5000114811785" x="949.4999799675389">程序逻辑优化</text></g></g><g id="minder_node50"><g id="node_expander49" style="cursor: pointer;"><path id="kity_path_437" fill="white" stroke="gray" d="M882.9999782323816,373.5000104162423A6,6,0,1,1,870.9999782323816,373.5000104162423A6,6,0,1,1,882.9999782323816,373.5000104162423"></path><path id="kity_path_438" fill="none" stroke="gray" d="M872.4999782323816,373.5000104162423L881.4999782323816,373.5000104162423"></path></g><path id="node_outline50" fill="none" stroke="none" d="M847.4999779118411,379.5000103791549h59a5,5,0,0,1,5,5v12a5,5,0,0,1,-5,5h-59a5,5,0,0,1,-5,-5v-12a5,5,0,0,1,5,-5z" stroke-width="3"></path><g id="node_text50" fill="black"><text id="kity_text_434" text-rendering="inherit" font-size="12" dy=".8em" y="384.5000103791549" x="852.4999779118411">应对方案</text></g></g><g id="minder_node49"><g id="node_expander48" style="cursor: pointer;"><path id="kity_path_429" fill="white" stroke="gray" d="M882.4999778906483,321.5000093142187A6,6,0,1,1,870.4999778906483,321.5000093142187A6,6,0,1,1,882.4999778906483,321.5000093142187"></path><path id="kity_path_430" fill="none" stroke="gray" d="M871.9999778906483,321.5000093142187L880.9999778906483,321.5000093142187"></path></g><path id="node_outline49" fill="none" stroke="none" d="M827.4999774879859,327.5000092771313h98a5,5,0,0,1,5,5v12a5,5,0,0,1,-5,5h-98a5,5,0,0,1,-5,-5v-12a5,5,0,0,1,5,-5z" stroke-width="3"></path><g id="node_text49" fill="black"><text id="kity_text_426" text-rendering="inherit" font-size="12" dy=".8em" y="332.5000092771313" x="832.4999774879859">延迟故障/确定性</text></g></g><g id="kity_g_12" display="none"><path id="kity_path_13" fill="none" stroke="rgb(66, 94, 112)" d="M1280.4999835703084,275.50000296168844h34a5,5,0,0,1,5,5v12a5,5,0,0,1,-5,5h-34a5,5,0,0,1,-5,-5v-12a5,5,0,0,1,5,-5z" stroke-width="5"></path></g><g id="minder_node17"><g id="node_expander16" style="cursor: pointer;" display="none"><path id="kity_path_157" fill="white" stroke="gray" d="M1154.499985112082,321.5000093142187A6,6,0,1,1,1142.499985112082,321.5000093142187A6,6,0,1,1,1154.499985112082,321.5000093142187"></path><path id="kity_path_158" fill="none" stroke="gray"></path></g><path id="node_outline17" fill="none" stroke="none" d="M1076.4999827649835,327.5000092771313h144a5,5,0,0,1,5,5v12a5,5,0,0,1,-5,5h-144a5,5,0,0,1,-5,-5v-12a5,5,0,0,1,5,-5z" stroke-width="3"></path><g id="node_text17" fill="black"><text id="kity_text_154" text-rendering="inherit" font-size="12" dy=".8em" y="332.5000092771313" x="1081.4999827649835">系统故障失效(ISO26262)</text></g></g><g id="minder_node18"><g id="node_expander17" style="cursor: pointer;" display="none"><path id="kity_path_165" fill="white" stroke="gray" d="M1339.4999862511925,321.5000093142187A6,6,0,1,1,1327.4999862511925,321.5000093142187A6,6,0,1,1,1339.4999862511925,321.5000093142187"></path><path id="kity_path_166" fill="none" stroke="gray"></path></g><path id="node_outline18" fill="none" stroke="none" d="M1270.4999868763791,327.5000092771313h126a5,5,0,0,1,5,5v12a5,5,0,0,1,-5,5h-126a5,5,0,0,1,-5,-5v-12a5,5,0,0,1,5,-5z" stroke-width="3"></path><g id="node_text18" fill="black"><text id="kity_text_162" text-rendering="inherit" font-size="12" dy=".8em" y="332.5000092771313" x="1275.4999868763791">预期功能安全(SOTIF)</text></g></g><g id="minder_node57"><g id="node_expander56" style="cursor: pointer;" display="none"><path id="kity_path_504" fill="white" stroke="gray" d="M1710.999995250169,165.50000600814795A6,6,0,1,1,1698.999995250169,165.50000600814795A6,6,0,1,1,1710.999995250169,165.50000600814795"></path><path id="kity_path_505" fill="none" stroke="gray"></path></g><path id="node_outline57" fill="none" stroke="none" d="M1663.4999952051344,171.50000597106057h83a5,5,0,0,1,5,5v12a5,5,0,0,1,-5,5h-83a5,5,0,0,1,-5,-5v-12a5,5,0,0,1,5,-5z" stroke-width="3"></path><g id="node_text57" fill="black"><text id="kity_text_501" text-rendering="inherit" font-size="12" dy=".8em" y="176.50000597106057" x="1668.4999952051344">物理碰撞安全</text></g></g></g></g></svg>