<svg id="kity_svg_6" xmlns="http://www.w3.org/2000/svg" xmlns:xlink="http://www.w3.org/1999/xlink" version="1.1" width="2664" height="577" style="background: rgb(251, 251, 251); visibility: visible;" viewBox="0 0 2664 577"><defs id="kity_defs_7"><linearGradient id="kity_linearGradient_17" x1="0" y1="0" x2="0" y2="1"><stop id="kity_stop_18" offset="0" stop-color="rgb(255, 255, 255)"></stop><stop id="kity_stop_19" offset="1" stop-color="rgb(204, 204, 204)"></stop></linearGradient><marker id="kity_marker_2" orient="auto" refX="6" refY="0" viewBox="-7 -7 14 14" markerWidth="7" markerHeight="7" markerUnits="userSpaceOnUse"><path id="kity_path_3" fill="rgb(115, 161, 191)" stroke="none" d="M6,0A6,6,0,1,1,-6,0A6,6,0,1,1,6,0"></path></marker></defs><g id="kity_g_8"><g id="minder1" text-rendering="optimize-speed"><g id="minder_connect_group1"><path id="kity_path_31" fill="none" stroke="rgb(115, 161, 191)" stroke-width="1" d="M1783.500001324547,61.499994590546464v30h-512.5V111.49999459054646"></path><path id="kity_path_33" fill="none" stroke="rgb(115, 161, 191)" stroke-width="1" d="M1270.500001324547,137.49999459054646v20h0V172.49999459054646"></path><path id="kity_path_35" fill="none" stroke="rgb(115, 161, 191)" stroke-width="1" d="M1270.500001324547,194.49999459054646v15h-447.5V224.49999459054646"></path><path id="kity_path_37" fill="none" stroke="rgb(115, 161, 191)" stroke-width="1" d="M823.5000013245469,246.49999459054646v15h0.5V276.49999459054646"></path><path id="kity_path_39" fill="none" stroke="rgb(115, 161, 191)" stroke-width="1" d="M823.5000013245469,298.49999459054646v15h0.5V328.49999459054646"></path><path id="kity_path_41" fill="none" stroke="rgb(115, 161, 191)" stroke-width="1" d="M824.5000013245469,350.49999459054646v15h-579V380.49999459054646"></path><path id="kity_path_43" fill="none" stroke="rgb(115, 161, 191)" stroke-width="1" d="M245.50000132454693,402.49999459054646v15h0V432.49999459054646"></path><path id="kity_path_45" fill="none" stroke="rgb(115, 161, 191)" stroke-width="1" d="M245.50000132454693,454.49999459054646v15h-141.5V484.49999459054646"></path><path id="kity_path_47" fill="none" stroke="rgb(115, 161, 191)" stroke-width="1" d="M245.50000132454693,454.49999459054646v15h64V484.49999459054646"></path><path id="kity_path_49" fill="none" stroke="rgb(115, 161, 191)" stroke-width="1" d="M245.50000132454693,454.49999459054646v15h205.5V484.49999459054646"></path><path id="kity_path_51" fill="none" stroke="rgb(115, 161, 191)" stroke-width="1" d="M824.5000013245469,350.49999459054646v15h135.5V380.49999459054646"></path><path id="kity_path_53" fill="none" stroke="rgb(115, 161, 191)" stroke-width="1" d="M959.5000013245469,402.49999459054646v15h0.5V432.49999459054646"></path><path id="kity_path_55" fill="none" stroke="rgb(115, 161, 191)" stroke-width="1" d="M960.5000013245469,454.49999459054646v15h-220V484.49999459054646"></path><path id="kity_path_57" fill="none" stroke="rgb(115, 161, 191)" stroke-width="1" d="M740.5000013245469,506.49999459054646v15h-174.5V536.4999945905465"></path><path id="kity_path_59" fill="none" stroke="rgb(115, 161, 191)" stroke-width="1" d="M740.5000013245469,506.49999459054646v15h-23.5V536.4999945905465"></path><path id="kity_path_61" fill="none" stroke="rgb(115, 161, 191)" stroke-width="1" d="M740.5000013245469,506.49999459054646v15h111V536.4999945905465"></path><path id="kity_path_63" fill="none" stroke="rgb(115, 161, 191)" stroke-width="1" d="M740.5000013245469,506.49999459054646v15h208.5V536.4999945905465"></path><path id="kity_path_65" fill="none" stroke="rgb(115, 161, 191)" stroke-width="1" d="M960.5000013245469,454.49999459054646v15h170V484.49999459054646"></path><path id="kity_path_67" fill="none" stroke="rgb(115, 161, 191)" stroke-width="1" d="M1130.500001324547,506.49999459054646v15h-73V536.4999945905465"></path><path id="kity_path_69" fill="none" stroke="rgb(115, 161, 191)" stroke-width="1" d="M1130.500001324547,506.49999459054646v15h68.5V536.4999945905465"></path><path id="kity_path_71" fill="none" stroke="rgb(115, 161, 191)" stroke-width="1" d="M824.5000013245469,350.49999459054646v15h567.5V380.49999459054646"></path><path id="kity_path_73" fill="none" stroke="rgb(115, 161, 191)" stroke-width="1" d="M1391.500001324547,402.49999459054646v15h0.5V432.49999459054646"></path><path id="kity_path_75" fill="none" stroke="rgb(115, 161, 191)" stroke-width="1" d="M1392.500001324547,454.49999459054646v15h-50V484.49999459054646"></path><path id="kity_path_77" fill="none" stroke="rgb(115, 161, 191)" stroke-width="1" d="M1392.500001324547,454.49999459054646v15h70.5V484.49999459054646"></path><path id="kity_path_79" fill="none" stroke="rgb(115, 161, 191)" stroke-width="1" d="M1270.500001324547,194.49999459054646v15h425.5V224.49999459054646"></path><path id="kity_path_81" fill="none" stroke="rgb(115, 161, 191)" stroke-width="1" d="M1696.500001324547,246.49999459054646v15h0V276.49999459054646"></path><path id="kity_path_83" fill="none" stroke="rgb(115, 161, 191)" stroke-width="1" d="M1696.500001324547,298.49999459054646v15h-88.5V328.49999459054646"></path><path id="kity_path_85" fill="none" stroke="rgb(115, 161, 191)" stroke-width="1" d="M1696.500001324547,298.49999459054646v15h97.5V328.49999459054646"></path><path id="kity_path_87" fill="none" stroke="rgb(115, 161, 191)" stroke-width="1" d="M1793.500001324547,350.49999459054646v15h0.5V380.49999459054646"></path><path id="kity_path_89" fill="none" stroke="rgb(115, 161, 191)" stroke-width="1" d="M1783.500001324547,61.499994590546464v30h512.5V111.49999459054646"></path><path id="kity_path_91" fill="none" stroke="rgb(115, 161, 191)" stroke-width="1" d="M2295.500001324547,137.49999459054646v20h-195.5V172.49999459054646"></path><path id="kity_path_93" fill="none" stroke="rgb(115, 161, 191)" stroke-width="1" d="M2100.500001324547,194.49999459054646v15h-164V224.49999459054646"></path><path id="kity_path_95" fill="none" stroke="rgb(115, 161, 191)" stroke-width="1" d="M2100.500001324547,194.49999459054646v15h-55.5V224.49999459054646"></path><path id="kity_path_97" fill="none" stroke="rgb(115, 161, 191)" stroke-width="1" d="M2100.500001324547,194.49999459054646v15h65V224.49999459054646"></path><path id="kity_path_99" fill="none" stroke="rgb(115, 161, 191)" stroke-width="1" d="M2100.500001324547,194.49999459054646v15h175V224.49999459054646"></path><path id="kity_path_101" fill="none" stroke="rgb(115, 161, 191)" stroke-width="1" d="M2295.500001324547,137.49999459054646v20h195.5V172.49999459054646"></path><path id="kity_path_103" fill="none" stroke="rgb(115, 161, 191)" stroke-width="1" d="M2491.500001324547,194.49999459054646v15h-130V224.49999459054646"></path><path id="kity_path_113" fill="none" stroke="rgb(115, 161, 191)" stroke-width="1" d="M2491.500001324547,194.49999459054646v15h-45.5V224.49999459054646"></path><path id="kity_path_115" fill="none" stroke="rgb(115, 161, 191)" stroke-width="1" d="M2491.500001324547,194.49999459054646v15h44.5V224.49999459054646"></path><path id="kity_path_117" fill="none" stroke="rgb(115, 161, 191)" stroke-width="1" d="M2491.500001324547,194.49999459054646v15h132.5V224.49999459054646"></path></g><g id="minder_node1"><path id="node_outline1" fill="rgb(115, 161, 191)" stroke="rgb(115, 161, 191)" d="M1731.500001324547,21.499994590546464h103a5,5,0,0,1,5,5v30a5,5,0,0,1,-5,5h-103a5,5,0,0,1,-5,-5v-30a5,5,0,0,1,5,-5z" stroke-width="3"></path><g id="node_text1" fill="white"><text id="kity_text_22" text-rendering="inherit" font-size="16" dy=".8em" y="33.499994590546464" x="1750.500001324547">系统安全</text></g></g><g id="kity_g_12"><path id="kity_path_13" fill="none" stroke="none" d="M1750.500001324547,41.499994590546464h0v0h0z"></path></g><g id="kity_g_14"><path id="kity_path_15" fill="none" stroke="none" d="M1750.500001324547,41.499994590546464h0v0h0z"></path><path id="kity_path_16" fill="none" stroke="none"></path></g><g id="minder_node2"><g id="node_expander29" style="cursor: pointer;"><path id="kity_path_335" fill="white" stroke="gray" d="M1276.4999906222024,104.49999539587134A6,6,0,1,1,1264.4999906222024,104.49999539587134A6,6,0,1,1,1276.4999906222024,104.49999539587134"></path><path id="kity_path_336" fill="none" stroke="gray" d="M1265.9999906222024,104.49999539587134L1274.9999906222024,104.49999539587134"></path></g><path id="node_outline30" fill="rgb(238, 243, 246)" stroke="rgb(115, 161, 191)" d="M1225.4999905586242,111.49999634954565h90a3,3,0,0,1,3,3v20a3,3,0,0,1,-3,3h-90a3,3,0,0,1,-3,-3v-20a3,3,0,0,1,3,-3z" stroke-width="1"></path><g id="node_text30" fill="black"><text id="kity_text_175" text-rendering="inherit" font-size="14" dy=".8em" y="117.49999634954565" x="1242.4999905586242">功能安全</text></g></g><g id="minder_node3"><g id="node_expander28" style="cursor: pointer;"><path id="kity_path_332" fill="white" stroke="gray" d="M1276.4999900923833,166.49999763700595A6,6,0,1,1,1264.4999900923833,166.49999763700595A6,6,0,1,1,1276.4999900923833,166.49999763700595"></path><path id="kity_path_333" fill="none" stroke="gray" d="M1265.9999900923833,166.49999763700595L1274.9999900923833,166.49999763700595"></path></g><path id="node_outline29" fill="#4f81bd" stroke="none" d="M1241.4999906433952,172.49999759991857h58a5,5,0,0,1,5,5v12a5,5,0,0,1,-5,5h-58a5,5,0,0,1,-5,-5v-12a5,5,0,0,1,5,-5z"></path><g id="node_text29" fill="#ffffff"><text id="kity_text_173" text-rendering="inherit" font-family="微软雅黑,Microsoft YaHei" font-size="12" dy=".8em" y="177.49999759991857" x="1246.4999906433952">语义分类</text></g></g><g id="minder_node4"><g id="node_expander22" style="cursor: pointer;"><path id="kity_path_314" fill="white" stroke="gray" d="M828.9999837213096,218.49999873902956A6,6,0,1,1,816.9999837213096,218.49999873902956A6,6,0,1,1,828.9999837213096,218.49999873902956"></path><path id="kity_path_315" fill="none" stroke="gray" d="M818.4999837213096,218.49999873902956L827.4999837213096,218.49999873902956"></path></g><path id="node_outline23" fill="none" stroke="none" d="M772.49998070399,224.4999987019422h101a5,5,0,0,1,5,5v12a5,5,0,0,1,-5,5h-101a5,5,0,0,1,-5,-5v-12a5,5,0,0,1,5,-5z"></path><g id="node_text23" fill="black"><text id="kity_text_161" text-rendering="inherit" font-size="12" dy=".8em" y="229.4999987019422" x="777.49998070399">狭义: 安全子系统</text></g></g><g id="minder_node5"><g id="node_expander21" style="cursor: pointer;"><path id="kity_path_311" fill="white" stroke="gray" d="M829.4999823411309,270.4999998410532A6,6,0,1,1,817.4999823411309,270.4999998410532A6,6,0,1,1,829.4999823411309,270.4999998410532"></path><path id="kity_path_312" fill="none" stroke="gray" d="M818.9999823411309,270.4999998410532L827.9999823411309,270.4999998410532"></path></g><path id="node_outline22" fill="none" stroke="none" d="M761.4999804708697,276.4999998039658h124a5,5,0,0,1,5,5v12a5,5,0,0,1,-5,5h-124a5,5,0,0,1,-5,-5v-12a5,5,0,0,1,5,-5z"></path><g id="node_text22" fill="black"><text id="kity_text_159" text-rendering="inherit" font-size="12" dy=".8em" y="281.4999998039658" x="766.4999804708697">Fault Tolerance(容错)</text></g></g><g id="minder_node6"><g id="node_expander20" style="cursor: pointer;"><path id="kity_path_308" fill="white" stroke="gray" d="M829.9999814907713,322.50000094307666A6,6,0,1,1,817.9999814907713,322.50000094307666A6,6,0,1,1,829.9999814907713,322.50000094307666"></path><path id="kity_path_309" fill="none" stroke="gray" d="M819.4999814907713,322.50000094307666L828.4999814907713,322.50000094307666"></path></g><path id="node_outline21" fill="#4f81bd" stroke="none" d="M794.4999811702309,328.5000009059893h59a5,5,0,0,1,5,5v12a5,5,0,0,1,-5,5h-59a5,5,0,0,1,-5,-5v-12a5,5,0,0,1,5,-5z"></path><g id="node_text21" fill="#ffffff"><text id="kity_text_157" text-rendering="inherit" font-size="12" dy=".8em" y="333.5000009059893" x="799.4999811702309">错误分类</text></g></g><g id="minder_node7"><g id="node_expander5" style="cursor: pointer;"><path id="kity_path_263" fill="white" stroke="gray" d="M250.99997319380577,374.5000020451003A6,6,0,1,1,238.99997319380577,374.5000020451003A6,6,0,1,1,250.99997319380577,374.5000020451003"></path><path id="kity_path_264" fill="none" stroke="gray" d="M240.49997319380577,374.5000020451003L249.49997319380577,374.5000020451003"></path></g><path id="node_outline6" fill="none" stroke="none" d="M161.499967755213,380.5000020080129h167a5,5,0,0,1,5,5v12a5,5,0,0,1,-5,5h-167a5,5,0,0,1,-5,-5v-12a5,5,0,0,1,5,-5z"></path><g id="node_text6" fill="black"><text id="kity_text_127" text-rendering="inherit" font-size="12" dy=".8em" y="385.5000020080129" x="166.499967755213">Byzantine Faults(拜占庭错误)</text></g></g><g id="minder_node8"><g id="node_expander4" style="cursor: pointer;"><path id="kity_path_260" fill="white" stroke="gray" d="M250.99996922016248,426.5000031471239A6,6,0,1,1,238.99996922016248,426.5000031471239A6,6,0,1,1,250.99996922016248,426.5000031471239"></path><path id="kity_path_261" fill="none" stroke="gray" d="M240.49996922016248,426.5000031471239L249.49996922016248,426.5000031471239"></path></g><path id="node_outline5" fill="#4bacc6" stroke="none" d="M215.499968899622,432.5000031100365h59a5,5,0,0,1,5,5v12a5,5,0,0,1,-5,5h-59a5,5,0,0,1,-5,-5v-12a5,5,0,0,1,5,-5z"></path><g id="node_text5" fill="#ffffff"><text id="kity_text_125" text-rendering="inherit" font-size="12" dy=".8em" y="437.5000031100365" x="220.499968899622">应对方案</text></g></g><g id="minder_node9"><g id="node_expander1" display="none" style="cursor: pointer;"><path id="kity_path_251" fill="white" stroke="gray" d="M109.49996668497852,478.50000424914754A6,6,0,1,1,97.49996668497852,478.50000424914754A6,6,0,1,1,109.49996668497852,478.50000424914754"></path><path id="kity_path_252" fill="none" stroke="gray"></path></g><path id="node_outline2" fill="none" stroke="none" d="M24.499964851804634,484.50000421206016h158a5,5,0,0,1,5,5v12a5,5,0,0,1,-5,5h-158a5,5,0,0,1,-5,-5v-12a5,5,0,0,1,5,-5z"></path><g id="node_text2" fill="black"><text id="kity_text_119" text-rendering="inherit" font-size="12" dy=".8em" y="489.50000421206016" x="29.499964851804634">Triple Modular Redundancy</text></g></g><g id="minder_node10"><g id="node_expander2" display="none" style="cursor: pointer;"><path id="kity_path_254" fill="white" stroke="gray" d="M314.99997097386336,478.50000424914754A6,6,0,1,1,302.99997097386336,478.50000424914754A6,6,0,1,1,314.99997097386336,478.50000424914754"></path><path id="kity_path_255" fill="none" stroke="gray"></path></g><path id="node_outline3" fill="none" stroke="none" d="M232.49996925989876,484.50000421206016h153a5,5,0,0,1,5,5v12a5,5,0,0,1,-5,5h-153a5,5,0,0,1,-5,-5v-12a5,5,0,0,1,5,-5z"></path><g id="node_text3" fill="black"><text id="kity_text_121" text-rendering="inherit" font-size="12" dy=".8em" y="489.50000421206016" x="237.49996925989876">Dual Modular Redundancy</text></g></g><g id="minder_node11"><g id="node_expander3" display="none" style="cursor: pointer;"><path id="kity_path_257" fill="white" stroke="gray" d="M456.49997403886664,478.50000424914754A6,6,0,1,1,444.49997403886664,478.50000424914754A6,6,0,1,1,456.49997403886664,478.50000424914754"></path><path id="kity_path_258" fill="none" stroke="gray"></path></g><path id="node_outline4" fill="none" stroke="none" d="M435.4999735620295,484.50000421206016h30a5,5,0,0,1,5,5v12a5,5,0,0,1,-5,5h-30a5,5,0,0,1,-5,-5v-12a5,5,0,0,1,5,-5z"></path><g id="node_text4" fill="black"><text id="kity_text_123" text-rendering="inherit" font-size="12" dy=".8em" y="489.50000421206016" x="440.4999735620295">......</text></g></g><g id="minder_node12"><g id="node_expander15" style="cursor: pointer;"><path id="kity_path_293" fill="white" stroke="gray" d="M965.4999819119772,374.5000020451003A6,6,0,1,1,953.4999819119772,374.5000020451003A6,6,0,1,1,965.4999819119772,374.5000020451003"></path><path id="kity_path_294" fill="none" stroke="gray" d="M954.9999819119772,374.5000020451003L963.9999819119772,374.5000020451003"></path></g><path id="node_outline16" fill="none" stroke="none" d="M862.4999826113386,380.5000020080129h194a5,5,0,0,1,5,5v12a5,5,0,0,1,-5,5h-194a5,5,0,0,1,-5,-5v-12a5,5,0,0,1,5,-5z"></path><g id="node_text16" fill="black"><text id="kity_text_147" text-rendering="inherit" font-size="12" dy=".8em" y="385.5000020080129" x="867.4999826113386"> Common Mode Failures(共因失效)</text></g></g><g id="minder_node13"><g id="node_expander14" style="cursor: pointer;"><path id="kity_path_290" fill="white" stroke="gray" d="M965.9999843729869,426.5000031471239A6,6,0,1,1,953.9999843729869,426.5000031471239A6,6,0,1,1,965.9999843729869,426.5000031471239"></path><path id="kity_path_291" fill="none" stroke="gray" d="M955.4999843729869,426.5000031471239L964.4999843729869,426.5000031471239"></path></g><path id="node_outline15" fill="#4bacc6" stroke="none" d="M930.4999840524464,432.5000031100365h59a5,5,0,0,1,5,5v12a5,5,0,0,1,-5,5h-59a5,5,0,0,1,-5,-5v-12a5,5,0,0,1,5,-5z"></path><g id="node_text15" fill="#ffffff"><text id="kity_text_145" text-rendering="inherit" font-size="12" dy=".8em" y="437.5000031100365" x="935.4999840524464">应对方案</text></g></g><g id="minder_node14"><g id="node_expander10" style="cursor: pointer;"><path id="kity_path_278" fill="white" stroke="gray" d="M745.9999791807604,478.50000424914754A6,6,0,1,1,733.9999791807604,478.50000424914754A6,6,0,1,1,745.9999791807604,478.50000424914754"></path><path id="kity_path_279" fill="none" stroke="gray" d="M735.4999791807604,478.50000424914754L744.4999791807604,478.50000424914754"></path></g><path id="node_outline11" fill="none" stroke="none" d="M714.4999794748101,484.50000421206016h51a5,5,0,0,1,5,5v12a5,5,0,0,1,-5,5h-51a5,5,0,0,1,-5,-5v-12a5,5,0,0,1,5,-5z"></path><g id="node_text11" fill="black"><text id="kity_text_137" text-rendering="inherit" font-size="12" dy=".8em" y="489.50000421206016" x="719.4999794748101">runtime</text></g></g><g id="minder_node15"><g id="node_expander6" display="none" style="cursor: pointer;"><path id="kity_path_266" fill="white" stroke="gray" d="M571.4999756813056,530.5000053511712A6,6,0,1,1,559.4999756813056,530.5000053511712A6,6,0,1,1,571.4999756813056,530.5000053511712"></path><path id="kity_path_267" fill="none" stroke="gray"></path></g><path id="node_outline7" fill="none" stroke="none" d="M516.4999752786432,536.5000053140839h98a5,5,0,0,1,5,5v12a5,5,0,0,1,-5,5h-98a5,5,0,0,1,-5,-5v-12a5,5,0,0,1,5,-5z"></path><g id="node_text7" fill="black"><text id="kity_text_129" text-rendering="inherit" font-size="12" dy=".8em" y="541.5000053140839" x="521.4999752786432">Runtime Checks</text></g></g><g id="minder_node16"><g id="node_expander7" display="none" style="cursor: pointer;"><path id="kity_path_269" fill="white" stroke="gray" d="M722.499979808596,530.5000053511712A6,6,0,1,1,710.499979808596,530.5000053511712A6,6,0,1,1,722.499979808596,530.5000053511712"></path><path id="kity_path_270" fill="none" stroke="gray"></path></g><path id="node_outline8" fill="none" stroke="none" d="M664.4999784151719,536.5000053140839h104a5,5,0,0,1,5,5v12a5,5,0,0,1,-5,5h-104a5,5,0,0,1,-5,-5v-12a5,5,0,0,1,5,-5z"></path><g id="node_text8" fill="black"><text id="kity_text_131" text-rendering="inherit" font-size="12" dy=".8em" y="541.5000053140839" x="669.4999784151719">Watchdog Timers</text></g></g><g id="minder_node17"><g id="node_expander8" display="none" style="cursor: pointer;"><path id="kity_path_272" fill="white" stroke="gray" d="M856.9999829901593,530.5000053511712A6,6,0,1,1,844.9999829901593,530.5000053511712A6,6,0,1,1,856.9999829901593,530.5000053511712"></path><path id="kity_path_273" fill="none" stroke="gray"></path></g><path id="node_outline9" fill="none" stroke="none" d="M818.4999816788571,536.5000053140839h65a5,5,0,0,1,5,5v12a5,5,0,0,1,-5,5h-65a5,5,0,0,1,-5,-5v-12a5,5,0,0,1,5,-5z"></path><g id="node_text9" fill="black"><text id="kity_text_133" text-rendering="inherit" font-size="12" dy=".8em" y="541.5000053140839" x="823.4999816788571">Restarting</text></g></g><g id="minder_node18"><g id="node_expander9" display="none" style="cursor: pointer;"><path id="kity_path_275" fill="white" stroke="gray" d="M954.4999845928618,530.5000053511712A6,6,0,1,1,942.4999845928618,530.5000053511712A6,6,0,1,1,954.4999845928618,530.5000053511712"></path><path id="kity_path_276" fill="none" stroke="gray"></path></g><path id="node_outline10" fill="none" stroke="none" d="M933.4999841160246,536.5000053140839h30a5,5,0,0,1,5,5v12a5,5,0,0,1,-5,5h-30a5,5,0,0,1,-5,-5v-12a5,5,0,0,1,5,-5z"></path><g id="node_text10" fill="black"><text id="kity_text_135" text-rendering="inherit" font-size="12" dy=".8em" y="541.5000053140839" x="938.4999841160246">......</text></g></g><g id="minder_node19"><g id="node_expander13" style="cursor: pointer;"><path id="kity_path_287" fill="white" stroke="gray" d="M1135.9999866512085,478.50000424914754A6,6,0,1,1,1123.9999866512085,478.50000424914754A6,6,0,1,1,1135.9999866512085,478.50000424914754"></path><path id="kity_path_288" fill="none" stroke="gray" d="M1125.4999866512085,478.50000424914754L1134.4999866512085,478.50000424914754"></path></g><path id="node_outline14" fill="none" stroke="none" d="M1054.4999866803487,484.50000421206016h151a5,5,0,0,1,5,5v12a5,5,0,0,1,-5,5h-151a5,5,0,0,1,-5,-5v-12a5,5,0,0,1,5,-5z"></path><g id="node_text14" fill="black"><text id="kity_text_143" text-rendering="inherit" font-size="12" dy=".8em" y="489.50000421206016" x="1059.4999866803487">此处与"功能安全设计"相连</text></g></g><g id="minder_node20"><g id="node_expander11" display="none" style="cursor: pointer;"><path id="kity_path_281" fill="white" stroke="gray" d="M1062.999985104137,530.5000053511712A6,6,0,1,1,1050.999985104137,530.5000053511712A6,6,0,1,1,1062.999985104137,530.5000053511712"></path><path id="kity_path_282" fill="none" stroke="gray"></path></g><path id="node_outline12" fill="none" stroke="none" d="M1013.4999858114455,536.5000053140839h87a5,5,0,0,1,5,5v12a5,5,0,0,1,-5,5h-87a5,5,0,0,1,-5,-5v-12a5,5,0,0,1,5,-5z"></path><g id="node_text12" fill="black"><text id="kity_text_139" text-rendering="inherit" font-size="12" dy=".8em" y="541.5000053140839" x="1018.4999858114455">Fault Removal</text></g></g><g id="minder_node21"><g id="node_expander12" display="none" style="cursor: pointer;"><path id="kity_path_284" fill="white" stroke="gray" d="M1204.499991612964,530.5000053511712A6,6,0,1,1,1192.499991612964,530.5000053511712A6,6,0,1,1,1204.499991612964,530.5000053511712"></path><path id="kity_path_285" fill="none" stroke="gray"></path></g><path id="node_outline13" fill="none" stroke="none" d="M1150.4999887148538,536.5000053140839h96a5,5,0,0,1,5,5v12a5,5,0,0,1,-5,5h-96a5,5,0,0,1,-5,-5v-12a5,5,0,0,1,5,-5z"></path><g id="node_text13" fill="black"><text id="kity_text_141" text-rendering="inherit" font-size="12" dy=".8em" y="541.5000053140839" x="1155.4999887148538">Fault Avoidance</text></g></g><g id="minder_node22"><g id="node_expander19" style="cursor: pointer;"><path id="kity_path_305" fill="white" stroke="gray" d="M1397.4999961005315,374.5000020451003A6,6,0,1,1,1385.4999961005315,374.5000020451003A6,6,0,1,1,1397.4999961005315,374.5000020451003"></path><path id="kity_path_306" fill="none" stroke="gray" d="M1386.9999961005315,374.5000020451003L1395.9999961005315,374.5000020451003"></path></g><path id="node_outline20" fill="none" stroke="none" d="M1296.499991808997,380.5000020080129h190a5,5,0,0,1,5,5v12a5,5,0,0,1,-5,5h-190a5,5,0,0,1,-5,-5v-12a5,5,0,0,1,5,-5z"></path><g id="node_text20" fill="black"><text id="kity_text_155" text-rendering="inherit" font-size="12" dy=".8em" y="385.5000020080129" x="1301.499991808997">Performance Limitation(性能限制)</text></g></g><g id="minder_node23"><g id="node_expander18" style="cursor: pointer;"><path id="kity_path_302" fill="white" stroke="gray" d="M1397.99999352826,426.5000031471239A6,6,0,1,1,1385.99999352826,426.5000031471239A6,6,0,1,1,1397.99999352826,426.5000031471239"></path><path id="kity_path_303" fill="none" stroke="gray" d="M1387.49999352826,426.5000031471239L1396.49999352826,426.5000031471239"></path></g><path id="node_outline19" fill="#4bacc6" stroke="none" d="M1362.4999932077194,432.5000031100365h59a5,5,0,0,1,5,5v12a5,5,0,0,1,-5,5h-59a5,5,0,0,1,-5,-5v-12a5,5,0,0,1,5,-5z"></path><g id="node_text19" fill="#ffffff"><text id="kity_text_153" text-rendering="inherit" font-size="12" dy=".8em" y="437.5000031100365" x="1367.4999932077194">应对方案</text></g></g><g id="minder_node24"><g id="node_expander16" display="none" style="cursor: pointer;"><path id="kity_path_296" fill="white" stroke="gray" d="M1347.999994587898,478.50000424914754A6,6,0,1,1,1335.999994587898,478.50000424914754A6,6,0,1,1,1347.999994587898,478.50000424914754"></path><path id="kity_path_297" fill="none" stroke="gray"></path></g><path id="node_outline17" fill="none" stroke="none" d="M1296.499991808997,484.50000421206016h91a5,5,0,0,1,5,5v12a5,5,0,0,1,-5,5h-91a5,5,0,0,1,-5,-5v-12a5,5,0,0,1,5,-5z"></path><g id="node_text17" fill="black"><text id="kity_text_149" text-rendering="inherit" font-size="12" dy=".8em" y="489.50000421206016" x="1301.499991808997">熔断安全(防撞)</text></g></g><g id="minder_node25"><g id="node_expander17" display="none" style="cursor: pointer;"><path id="kity_path_299" fill="white" stroke="gray" d="M1468.4999957508508,478.50000424914754A6,6,0,1,1,1456.4999957508508,478.50000424914754A6,6,0,1,1,1468.4999957508508,478.50000424914754"></path><path id="kity_path_300" fill="none" stroke="gray"></path></g><path id="node_outline18" fill="none" stroke="none" d="M1437.4999947971764,484.50000421206016h50a5,5,0,0,1,5,5v12a5,5,0,0,1,-5,5h-50a5,5,0,0,1,-5,-5v-12a5,5,0,0,1,5,-5z"></path><g id="node_text18" fill="black"><text id="kity_text_151" text-rendering="inherit" font-size="12" dy=".8em" y="489.50000421206016" x="1442.4999947971764">想象力!</text></g></g><g id="minder_node26"><g id="node_expander27" style="cursor: pointer;"><path id="kity_path_329" fill="white" stroke="gray" d="M1701.9999994410402,218.49999873902956A6,6,0,1,1,1689.9999994410402,218.49999873902956A6,6,0,1,1,1701.9999994410402,218.49999873902956"></path><path id="kity_path_330" fill="none" stroke="gray" d="M1691.4999994410402,218.49999873902956L1700.4999994410402,218.49999873902956"></path></g><path id="node_outline28" fill="none" stroke="none" d="M1622.4999987178373,224.4999987019422h147a5,5,0,0,1,5,5v12a5,5,0,0,1,-5,5h-147a5,5,0,0,1,-5,-5v-12a5,5,0,0,1,5,-5z"></path><g id="node_text28" fill="black"><text id="kity_text_171" text-rendering="inherit" font-size="12" dy=".8em" y="229.4999987019422" x="1627.4999987178373">广义:&#xa0; 安全标准/流程/设计</text></g></g><g id="minder_node27"><g id="node_expander26" style="cursor: pointer;"><path id="kity_path_326" fill="white" stroke="gray" d="M1701.9999999708593,270.4999998410532A6,6,0,1,1,1689.9999999708593,270.4999998410532A6,6,0,1,1,1701.9999999708593,270.4999998410532"></path><path id="kity_path_327" fill="none" stroke="gray" d="M1691.4999999708593,270.4999998410532L1700.4999999708593,270.4999998410532"></path></g><path id="node_outline27" fill="#4f81bd" stroke="none" d="M1666.4999996503188,276.4999998039658h59a5,5,0,0,1,5,5v12a5,5,0,0,1,-5,5h-59a5,5,0,0,1,-5,-5v-12a5,5,0,0,1,5,-5z"></path><g id="node_text27" fill="#ffffff"><text id="kity_text_169" text-rendering="inherit" font-size="12" dy=".8em" y="281.4999998039658" x="1671.4999996503188">标准分类</text></g></g><g id="minder_node28"><g id="node_expander23" display="none" style="cursor: pointer;"><path id="kity_path_317" fill="white" stroke="gray" d="M1613.4999992211656,322.50000094307666A6,6,0,1,1,1601.4999992211656,322.50000094307666A6,6,0,1,1,1613.4999992211656,322.50000094307666"></path><path id="kity_path_318" fill="none" stroke="gray"></path></g><path id="node_outline24" fill="none" stroke="none" d="M1535.4999968740672,328.5000009059893h144a5,5,0,0,1,5,5v12a5,5,0,0,1,-5,5h-144a5,5,0,0,1,-5,-5v-12a5,5,0,0,1,5,-5z"></path><g id="node_text24" fill="black"><text id="kity_text_163" text-rendering="inherit" font-size="12" dy=".8em" y="333.5000009059893" x="1540.4999968740672">系统故障失效(ISO26262)</text></g></g><g id="minder_node29"><g id="node_expander25" style="cursor: pointer;"><path id="kity_path_323" fill="white" stroke="gray" d="M1799.500000381469,322.50000094307666A6,6,0,1,1,1787.500000381469,322.50000094307666A6,6,0,1,1,1799.500000381469,322.50000094307666"></path><path id="kity_path_324" fill="none" stroke="gray" d="M1789.000000381469,322.50000094307666L1798.000000381469,322.50000094307666"></path></g><path id="node_outline26" fill="none" stroke="none" d="M1730.5000010066556,328.5000009059893h126a5,5,0,0,1,5,5v12a5,5,0,0,1,-5,5h-126a5,5,0,0,1,-5,-5v-12a5,5,0,0,1,5,-5z"></path><g id="node_text26" fill="black"><text id="kity_text_167" text-rendering="inherit" font-size="12" dy=".8em" y="333.5000009059893" x="1735.5000010066556">预期功能安全(SOTIF)</text></g></g><g id="minder_node30"><g id="node_expander24" display="none" style="cursor: pointer;"><path id="kity_path_320" fill="white" stroke="gray" d="M1800.0000012530213,374.5000020451003A6,6,0,1,1,1788.0000012530213,374.5000020451003A6,6,0,1,1,1800.0000012530213,374.5000020451003"></path><path id="kity_path_321" fill="none" stroke="gray"></path></g><path id="node_outline25" fill="none" stroke="none" d="M1730.5000010066556,380.5000020080129h127a5,5,0,0,1,5,5v12a5,5,0,0,1,-5,5h-127a5,5,0,0,1,-5,-5v-12a5,5,0,0,1,5,-5z"></path><g id="node_text25" fill="black"><text id="kity_text_165" text-rendering="inherit" font-size="12" dy=".8em" y="385.5000020080129" x="1735.5000010066556">此处与"技术安全"相连</text></g></g><g id="minder_node31"><g id="node_expander44" style="cursor: pointer;"><path id="kity_path_380" fill="white" stroke="gray" d="M2301.5000123447826,104.49999539587134A6,6,0,1,1,2289.5000123447826,104.49999539587134A6,6,0,1,1,2301.5000123447826,104.49999539587134"></path><path id="kity_path_381" fill="none" stroke="gray" d="M2291.0000123447826,104.49999539587134L2300.0000123447826,104.49999539587134"></path></g><path id="node_outline45" fill="rgb(238, 243, 246)" stroke="rgb(115, 161, 191)" d="M2250.5000122812044,111.49999634954565h90a3,3,0,0,1,3,3v20a3,3,0,0,1,-3,3h-90a3,3,0,0,1,-3,-3v-20a3,3,0,0,1,3,-3z" stroke-width="1"></path><g id="node_text45" fill="black"><text id="kity_text_205" text-rendering="inherit" font-size="14" dy=".8em" y="117.49999634954565" x="2267.5000122812044">技术安全</text></g></g><g id="minder_node32"><g id="node_expander34" style="cursor: pointer;"><path id="kity_path_350" fill="white" stroke="gray" d="M2106.0000085327347,166.49999763700595A6,6,0,1,1,2094.0000085327347,166.49999763700595A6,6,0,1,1,2106.0000085327347,166.49999763700595"></path><path id="kity_path_351" fill="none" stroke="gray" d="M2095.5000085327347,166.49999763700595L2104.5000085327347,166.49999763700595"></path></g><path id="node_outline35" fill="#4f81bd" stroke="none" d="M2070.500008212194,172.49999759991857h59a5,5,0,0,1,5,5v12a5,5,0,0,1,-5,5h-59a5,5,0,0,1,-5,-5v-12a5,5,0,0,1,5,-5z"></path><g id="node_text35" fill="#ffffff"><text id="kity_text_185" text-rendering="inherit" font-size="12" dy=".8em" y="177.49999759991857" x="2075.500008212194">技术分类</text></g></g><g id="minder_node33"><g id="node_expander30" display="none" style="cursor: pointer;"><path id="kity_path_338" fill="white" stroke="gray" d="M1942.000005057122,218.49999873902956A6,6,0,1,1,1930.000005057122,218.49999873902956A6,6,0,1,1,1942.000005057122,218.49999873902956"></path><path id="kity_path_339" fill="none" stroke="gray"></path></g><path id="node_outline31" fill="none" stroke="none" d="M1906.5000047365816,224.4999987019422h59a5,5,0,0,1,5,5v12a5,5,0,0,1,-5,5h-59a5,5,0,0,1,-5,-5v-12a5,5,0,0,1,5,-5z"></path><g id="node_text31" fill="black"><text id="kity_text_177" text-rendering="inherit" font-size="12" dy=".8em" y="229.4999987019422" x="1911.5000047365816">决策安全</text></g></g><g id="minder_node34"><g id="node_expander31" display="none" style="cursor: pointer;"><path id="kity_path_341" fill="white" stroke="gray" d="M2050.5000064955807,218.49999873902956A6,6,0,1,1,2038.5000064955807,218.49999873902956A6,6,0,1,1,2050.5000064955807,218.49999873902956"></path><path id="kity_path_342" fill="none" stroke="gray"></path></g><path id="node_outline32" fill="none" stroke="none" d="M2015.5000070465926,224.4999987019422h58a5,5,0,0,1,5,5v12a5,5,0,0,1,-5,5h-58a5,5,0,0,1,-5,-5v-12a5,5,0,0,1,5,-5z"></path><g id="node_text32" fill="black"><text id="kity_text_179" text-rendering="inherit" font-size="12" dy=".8em" y="229.4999987019422" x="2020.5000070465926">交互安全</text></g></g><g id="minder_node35"><g id="node_expander32" display="none" style="cursor: pointer;"><path id="kity_path_344" fill="white" stroke="gray" d="M2171.000009380445,218.49999873902956A6,6,0,1,1,2159.000009380445,218.49999873902956A6,6,0,1,1,2171.000009380445,218.49999873902956"></path><path id="kity_path_345" fill="none" stroke="gray"></path></g><path id="node_outline33" fill="none" stroke="none" d="M2123.5000093354106,224.4999987019422h83a5,5,0,0,1,5,5v12a5,5,0,0,1,-5,5h-83a5,5,0,0,1,-5,-5v-12a5,5,0,0,1,5,-5z"></path><g id="node_text33" fill="black"><text id="kity_text_181" text-rendering="inherit" font-size="12" dy=".8em" y="229.4999987019422" x="2128.5000093354106">物理碰撞安全</text></g></g><g id="minder_node36"><g id="node_expander33" display="none" style="cursor: pointer;"><path id="kity_path_347" fill="white" stroke="gray" d="M2281.000012373923,218.4999974144818A6,6,0,1,1,2269.000012373923,218.4999974144818A6,6,0,1,1,2281.000012373923,218.4999974144818"></path><path id="kity_path_348" fill="none" stroke="gray"></path></g><path id="node_outline34" fill="none" stroke="none" d="M2256.500012154048,224.49999874432768h37a5,5,0,0,1,5,5v16a5,5,0,0,1,-5,5h-37a5,5,0,0,1,-5,-5v-16a5,5,0,0,1,5,-5z"></path><g id="node_text34" fill="black"><text id="kity_text_183" text-rendering="inherit" font-size="16" dy=".8em" y="229.49999874432768" x="2261.500012154048">......</text></g></g><g id="minder_node37"><g id="node_expander43" style="cursor: pointer;"><path id="kity_path_377" fill="white" stroke="gray" d="M2497.0000168191045,166.49999763700595A6,6,0,1,1,2485.0000168191045,166.49999763700595A6,6,0,1,1,2497.0000168191045,166.49999763700595"></path><path id="kity_path_378" fill="none" stroke="gray" d="M2486.5000168191045,166.49999763700595L2495.5000168191045,166.49999763700595"></path></g><path id="node_outline44" fill="#4f81bd" stroke="none" d="M2461.500016498564,172.49999759991857h59a5,5,0,0,1,5,5v12a5,5,0,0,1,-5,5h-59a5,5,0,0,1,-5,-5v-12a5,5,0,0,1,5,-5z"></path><g id="node_text44" fill="#ffffff"><text id="kity_text_203" text-rendering="inherit" font-size="12" dy=".8em" y="177.49999759991857" x="2466.500016498564">指标优化</text></g></g><g id="minder_node38"><g id="node_expander39" style="cursor: pointer;" display="none"><path id="kity_path_365" fill="white" stroke="gray" d="M2367.0000145938648,218.49999873902956A6,6,0,1,1,2355.0000145938648,218.49999873902956A6,6,0,1,1,2367.0000145938648,218.49999873902956"></path><path id="kity_path_366" fill="none" stroke="gray" d="M2356.5000145938648,218.49999873902956L2365.5000145938648,218.49999873902956"></path></g><path id="node_outline40" fill="none" stroke="rgb(57, 80, 96)" d="M2343.5000139978183,224.4999987019422h35a5,5,0,0,1,5,5v12a5,5,0,0,1,-5,5h-35a5,5,0,0,1,-5,-5v-12a5,5,0,0,1,5,-5z" stroke-width="3"></path><g id="node_text40" fill="black"><text id="kity_text_195" text-rendering="inherit" font-size="12" dy=".8em" y="229.4999987019422" x="2348.5000139978183">延迟</text></g></g><g id="minder_node43"><g id="node_expander40" display="none" style="cursor: pointer;"><path id="kity_path_368" fill="white" stroke="gray" d="M2451.5000155236967,218.49999873902956A6,6,0,1,1,2439.5000155236967,218.49999873902956A6,6,0,1,1,2451.5000155236967,218.49999873902956"></path><path id="kity_path_369" fill="none" stroke="gray"></path></g><path id="node_outline41" fill="none" stroke="none" d="M2428.5000157992026,224.4999987019422h34a5,5,0,0,1,5,5v12a5,5,0,0,1,-5,5h-34a5,5,0,0,1,-5,-5v-12a5,5,0,0,1,5,-5z"></path><g id="node_text41" fill="black"><text id="kity_text_197" text-rendering="inherit" font-size="12" dy=".8em" y="229.4999987019422" x="2433.5000157992026">盲区</text></g></g><g id="minder_node44"><g id="node_expander41" display="none" style="cursor: pointer;"><path id="kity_path_371" fill="white" stroke="gray" d="M2541.500017166136,218.49999873902956A6,6,0,1,1,2529.500017166136,218.49999873902956A6,6,0,1,1,2541.500017166136,218.49999873902956"></path><path id="kity_path_372" fill="none" stroke="gray"></path></g><path id="node_outline42" fill="none" stroke="none" d="M2512.500017579395,224.4999987019422h46a5,5,0,0,1,5,5v12a5,5,0,0,1,-5,5h-46a5,5,0,0,1,-5,-5v-12a5,5,0,0,1,5,-5z"></path><g id="node_text42" fill="black"><text id="kity_text_199" text-rendering="inherit" font-size="12" dy=".8em" y="229.4999987019422" x="2517.500017579395">准确率</text></g></g><g id="minder_node45"><g id="node_expander42" display="none" style="cursor: pointer;"><path id="kity_path_374" fill="white" stroke="gray" d="M2629.500020090737,218.49999873902956A6,6,0,1,1,2617.500020090737,218.49999873902956A6,6,0,1,1,2629.500020090737,218.49999873902956"></path><path id="kity_path_375" fill="none" stroke="gray"></path></g><path id="node_outline43" fill="none" stroke="none" d="M2608.5000196139,224.4999987019422h30a5,5,0,0,1,5,5v12a5,5,0,0,1,-5,5h-30a5,5,0,0,1,-5,-5v-12a5,5,0,0,1,5,-5z"></path><g id="node_text43" fill="black"><text id="kity_text_201" text-rendering="inherit" font-size="12" dy=".8em" y="229.4999987019422" x="2613.5000196139">......</text></g></g></g></g></svg>