<svg id="kity_svg_6" xmlns="http://www.w3.org/2000/svg" xmlns:xlink="http://www.w3.org/1999/xlink" version="1.1" width="2903" height="577" style="background: rgb(251, 251, 251); visibility: visible;" viewBox="0 0 2903 577"><defs id="kity_defs_7"><linearGradient id="kity_linearGradient_17" x1="0" y1="0" x2="0" y2="1"><stop id="kity_stop_18" offset="0" stop-color="rgb(255, 255, 255)"></stop><stop id="kity_stop_19" offset="1" stop-color="rgb(204, 204, 204)"></stop></linearGradient><marker id="kity_marker_2" orient="auto" refX="6" refY="0" viewBox="-7 -7 14 14" markerWidth="7" markerHeight="7" markerUnits="userSpaceOnUse"><path id="kity_path_3" fill="rgb(115, 161, 191)" stroke="none" d="M6,0A6,6,0,1,1,-6,0A6,6,0,1,1,6,0"></path></marker></defs><g id="kity_g_8"><g id="minder1" text-rendering="optimize-speed"><g id="minder_connect_group1"><path id="kity_path_31" fill="none" stroke="rgb(115, 161, 191)" stroke-width="1" d="M1827.5000522295622,60.50000486903704v30h-557.5V110.50000486903704"></path><path id="kity_path_33" fill="none" stroke="rgb(115, 161, 191)" stroke-width="1" d="M1269.5000522295622,136.50000486903704v20h0V171.50000486903704"></path><path id="kity_path_35" fill="none" stroke="rgb(115, 161, 191)" stroke-width="1" d="M1269.5000522295622,193.50000486903704v15h-447.5V223.50000486903704"></path><path id="kity_path_37" fill="none" stroke="rgb(115, 161, 191)" stroke-width="1" d="M822.5000522295622,245.50000486903704v15h0.5V275.50000486903707"></path><path id="kity_path_39" fill="none" stroke="rgb(115, 161, 191)" stroke-width="1" d="M822.5000522295622,297.50000486903707v15h0.5V327.50000486903707"></path><path id="kity_path_41" fill="none" stroke="rgb(115, 161, 191)" stroke-width="1" d="M823.5000522295622,349.50000486903707v15h-578V379.50000486903707"></path><path id="kity_path_43" fill="none" stroke="rgb(115, 161, 191)" stroke-width="1" d="M245.50005222956224,401.50000486903707v15h0V431.50000486903707"></path><path id="kity_path_45" fill="none" stroke="rgb(115, 161, 191)" stroke-width="1" d="M245.50005222956224,453.50000486903707v15h-141.5V483.50000486903707"></path><path id="kity_path_47" fill="none" stroke="rgb(115, 161, 191)" stroke-width="1" d="M245.50005222956224,453.50000486903707v15h64V483.50000486903707"></path><path id="kity_path_49" fill="none" stroke="rgb(115, 161, 191)" stroke-width="1" d="M245.50005222956224,453.50000486903707v15h205.5V483.50000486903707"></path><path id="kity_path_51" fill="none" stroke="rgb(115, 161, 191)" stroke-width="1" d="M823.5000522295622,349.50000486903707v15h135.5V379.50000486903707"></path><path id="kity_path_53" fill="none" stroke="rgb(115, 161, 191)" stroke-width="1" d="M958.5000522295622,401.50000486903707v15h0.5V431.50000486903707"></path><path id="kity_path_55" fill="none" stroke="rgb(115, 161, 191)" stroke-width="1" d="M959.5000522295622,453.50000486903707v15h-220V483.50000486903707"></path><path id="kity_path_57" fill="none" stroke="rgb(115, 161, 191)" stroke-width="1" d="M739.5000522295622,505.50000486903707v15h-174.5V535.5000048690371"></path><path id="kity_path_59" fill="none" stroke="rgb(115, 161, 191)" stroke-width="1" d="M739.5000522295622,505.50000486903707v15h-23.5V535.5000048690371"></path><path id="kity_path_61" fill="none" stroke="rgb(115, 161, 191)" stroke-width="1" d="M739.5000522295622,505.50000486903707v15h111V535.5000048690371"></path><path id="kity_path_63" fill="none" stroke="rgb(115, 161, 191)" stroke-width="1" d="M739.5000522295622,505.50000486903707v15h208.5V535.5000048690371"></path><path id="kity_path_65" fill="none" stroke="rgb(115, 161, 191)" stroke-width="1" d="M959.5000522295622,453.50000486903707v15h170V483.50000486903707"></path><path id="kity_path_67" fill="none" stroke="rgb(115, 161, 191)" stroke-width="1" d="M1129.5000522295622,505.50000486903707v15h-73V535.5000048690371"></path><path id="kity_path_69" fill="none" stroke="rgb(115, 161, 191)" stroke-width="1" d="M1129.5000522295622,505.50000486903707v15h68.5V535.5000048690371"></path><path id="kity_path_71" fill="none" stroke="rgb(115, 161, 191)" stroke-width="1" d="M823.5000522295622,349.50000486903707v15h567.5V379.50000486903707"></path><path id="kity_path_73" fill="none" stroke="rgb(115, 161, 191)" stroke-width="1" d="M1269.5000522295622,193.50000486903704v15h424.5V223.50000486903704"></path><path id="kity_path_75" fill="none" stroke="rgb(115, 161, 191)" stroke-width="1" d="M1694.5000522295622,245.50000486903704v15h0V275.50000486903707"></path><path id="kity_path_77" fill="none" stroke="rgb(115, 161, 191)" stroke-width="1" d="M1694.5000522295622,297.50000486903707v15h-88.5V327.50000486903707"></path><path id="kity_path_79" fill="none" stroke="rgb(115, 161, 191)" stroke-width="1" d="M1694.5000522295622,297.50000486903707v15h97.5V327.50000486903707"></path><path id="kity_path_81" fill="none" stroke="rgb(115, 161, 191)" stroke-width="1" d="M1791.5000522295622,349.50000486903707v15h0.5V379.50000486903707"></path><path id="kity_path_83" fill="none" stroke="rgb(115, 161, 191)" stroke-width="1" d="M1827.5000522295622,60.50000486903704v30h557.5V110.50000486903704"></path><path id="kity_path_85" fill="none" stroke="rgb(115, 161, 191)" stroke-width="1" d="M2384.5000522295622,136.50000486903704v20h-285.5V171.50000486903704"></path><path id="kity_path_87" fill="none" stroke="rgb(115, 161, 191)" stroke-width="1" d="M2099.5000522295622,193.50000486903704v15h-164V223.50000486903704"></path><path id="kity_path_89" fill="none" stroke="rgb(115, 161, 191)" stroke-width="1" d="M2099.5000522295622,193.50000486903704v15h-55.5V223.50000486903704"></path><path id="kity_path_91" fill="none" stroke="rgb(115, 161, 191)" stroke-width="1" d="M2099.5000522295622,193.50000486903704v15h65V223.50000486903704"></path><path id="kity_path_93" fill="none" stroke="rgb(115, 161, 191)" stroke-width="1" d="M2099.5000522295622,193.50000486903704v15h175V223.50000486903704"></path><path id="kity_path_95" fill="none" stroke="rgb(115, 161, 191)" stroke-width="1" d="M2384.5000522295622,136.50000486903704v20h285.5V171.50000486903704"></path><path id="kity_path_97" fill="none" stroke="rgb(115, 161, 191)" stroke-width="1" d="M2670.5000522295622,193.50000486903704v15h-190V223.50000486903704"></path><path id="kity_path_99" fill="none" stroke="rgb(115, 161, 191)" stroke-width="1" d="M2480.5000522295622,245.50000486903704v15h0V275.50000486903707"></path><path id="kity_path_101" fill="none" stroke="rgb(115, 161, 191)" stroke-width="1" d="M2480.5000522295622,297.50000486903707v15h-108.5V327.50000486903707"></path><path id="kity_path_103" fill="none" stroke="rgb(115, 161, 191)" stroke-width="1" d="M2480.5000522295622,297.50000486903707v15h0V327.50000486903707"></path><path id="kity_path_105" fill="none" stroke="rgb(115, 161, 191)" stroke-width="1" d="M2480.5000522295622,297.50000486903707v15h109V327.50000486903707"></path><path id="kity_path_107" fill="none" stroke="rgb(115, 161, 191)" stroke-width="1" d="M2670.5000522295622,193.50000486903704v15h14.5V223.50000486903704"></path><path id="kity_path_109" fill="none" stroke="rgb(115, 161, 191)" stroke-width="1" d="M2670.5000522295622,193.50000486903704v15h104.5V223.50000486903704"></path><path id="kity_path_111" fill="none" stroke="rgb(115, 161, 191)" stroke-width="1" d="M2670.5000522295622,193.50000486903704v15h192.5V223.50000486903704"></path></g><g id="minder_node1"><path id="node_outline1" fill="rgb(115, 161, 191)" stroke="rgb(115, 161, 191)" d="M1775.5000522295622,20.500004869037042h103a5,5,0,0,1,5,5v30a5,5,0,0,1,-5,5h-103a5,5,0,0,1,-5,-5v-30a5,5,0,0,1,5,-5z" stroke-width="3"></path><g id="node_text1" fill="white"><text id="kity_text_22" text-rendering="inherit" font-size="16" dy=".8em" y="32.50000486903704" x="1794.5000522295622">系统安全</text></g></g><g id="kity_g_12"><path id="kity_path_13" fill="none" stroke="none" d="M1794.5000522295622,40.50000486903704h0v0h0z"></path></g><g id="kity_g_14"><path id="kity_path_15" fill="none" stroke="none" d="M1794.5000522295622,40.50000486903704h0v0h0z"></path><path id="kity_path_16" fill="none" stroke="none"></path></g><g id="minder_node2"><g id="node_expander26" style="cursor: pointer;"><path id="kity_path_311" fill="white" stroke="gray" d="M1275.5000405735432,103.50000567436192A6,6,0,1,1,1263.5000405735432,103.50000567436192A6,6,0,1,1,1275.5000405735432,103.50000567436192"></path><path id="kity_path_312" fill="none" stroke="gray" d="M1265.0000405735432,103.50000567436192L1274.0000405735432,103.50000567436192"></path></g><path id="node_outline27" fill="rgb(238, 243, 246)" stroke="rgb(115, 161, 191)" d="M1224.500040509965,110.50000662803623h90a3,3,0,0,1,3,3v20a3,3,0,0,1,-3,3h-90a3,3,0,0,1,-3,-3v-20a3,3,0,0,1,3,-3z" stroke-width="1"></path><g id="node_text27" fill="black"><text id="kity_text_163" text-rendering="inherit" font-size="14" dy=".8em" y="116.50000662803623" x="1241.500040509965">功能安全</text></g></g><g id="minder_node3"><g id="node_expander25" style="cursor: pointer;"><path id="kity_path_308" fill="white" stroke="gray" d="M1275.5000400437243,165.50000791549652A6,6,0,1,1,1263.5000400437243,165.50000791549652A6,6,0,1,1,1275.5000400437243,165.50000791549652"></path><path id="kity_path_309" fill="none" stroke="gray" d="M1265.0000400437243,165.50000791549652L1274.0000400437243,165.50000791549652"></path></g><path id="node_outline26" fill="#4f81bd" stroke="none" d="M1240.5000405947362,171.50000787840915h58a5,5,0,0,1,5,5v12a5,5,0,0,1,-5,5h-58a5,5,0,0,1,-5,-5v-12a5,5,0,0,1,5,-5z"></path><g id="node_text26" fill="#ffffff"><text id="kity_text_161" text-rendering="inherit" font-family="微软雅黑,Microsoft YaHei" font-size="12" dy=".8em" y="176.50000787840915" x="1245.5000405947362">语义分类</text></g></g><g id="minder_node4"><g id="node_expander19" style="cursor: pointer;"><path id="kity_path_290" fill="white" stroke="gray" d="M828.0000336726507,217.50000901752014A6,6,0,1,1,816.0000336726507,217.50000901752014A6,6,0,1,1,828.0000336726507,217.50000901752014"></path><path id="kity_path_291" fill="none" stroke="gray" d="M817.5000336726507,217.50000901752014L826.5000336726507,217.50000901752014"></path></g><path id="node_outline20" fill="none" stroke="none" d="M771.5000306553311,223.50000898043277h101a5,5,0,0,1,5,5v12a5,5,0,0,1,-5,5h-101a5,5,0,0,1,-5,-5v-12a5,5,0,0,1,5,-5z"></path><g id="node_text20" fill="black"><text id="kity_text_149" text-rendering="inherit" font-size="12" dy=".8em" y="228.50000898043277" x="776.5000306553311">狭义: 安全子系统</text></g></g><g id="minder_node5"><g id="node_expander18" style="cursor: pointer;"><path id="kity_path_287" fill="white" stroke="gray" d="M828.5000322924718,269.50001011954373A6,6,0,1,1,816.5000322924718,269.50001011954373A6,6,0,1,1,828.5000322924718,269.50001011954373"></path><path id="kity_path_288" fill="none" stroke="gray" d="M818.0000322924718,269.50001011954373L827.0000322924718,269.50001011954373"></path></g><path id="node_outline19" fill="none" stroke="none" d="M760.5000304222106,275.50001008245636h124a5,5,0,0,1,5,5v12a5,5,0,0,1,-5,5h-124a5,5,0,0,1,-5,-5v-12a5,5,0,0,1,5,-5z"></path><g id="node_text19" fill="black"><text id="kity_text_147" text-rendering="inherit" font-size="12" dy=".8em" y="280.50001008245636" x="765.5000304222106">Fault Tolerance(容错)</text></g></g><g id="minder_node6"><g id="node_expander17" style="cursor: pointer;"><path id="kity_path_284" fill="white" stroke="gray" d="M829.0000314421125,321.5000112215672A6,6,0,1,1,817.0000314421125,321.5000112215672A6,6,0,1,1,829.0000314421125,321.5000112215672"></path><path id="kity_path_285" fill="none" stroke="gray" d="M818.5000314421125,321.5000112215672L827.5000314421125,321.5000112215672"></path></g><path id="node_outline18" fill="#4f81bd" stroke="none" d="M793.500031121572,327.50001118447983h59a5,5,0,0,1,5,5v12a5,5,0,0,1,-5,5h-59a5,5,0,0,1,-5,-5v-12a5,5,0,0,1,5,-5z"></path><g id="node_text18" fill="#ffffff"><text id="kity_text_145" text-rendering="inherit" font-size="12" dy=".8em" y="332.50001118447983" x="798.500031121572">错误分类</text></g></g><g id="minder_node7"><g id="node_expander5" style="cursor: pointer;"><path id="kity_path_248" fill="white" stroke="gray" d="M251.00002316633936,373.5000123235909A6,6,0,1,1,239.00002316633936,373.5000123235909A6,6,0,1,1,251.00002316633936,373.5000123235909"></path><path id="kity_path_249" fill="none" stroke="gray" d="M240.50002316633936,373.5000123235909L249.50002316633936,373.5000123235909"></path></g><path id="node_outline6" fill="none" stroke="none" d="M161.50001772774658,379.50001228650353h167a5,5,0,0,1,5,5v12a5,5,0,0,1,-5,5h-167a5,5,0,0,1,-5,-5v-12a5,5,0,0,1,5,-5z"></path><g id="node_text6" fill="black"><text id="kity_text_121" text-rendering="inherit" font-size="12" dy=".8em" y="384.50001228650353" x="166.50001772774658">Byzantine Faults(拜占庭错误)</text></g></g><g id="minder_node8"><g id="node_expander4" style="cursor: pointer;"><path id="kity_path_245" fill="white" stroke="gray" d="M251.0000191926963,425.5000134256145A6,6,0,1,1,239.0000191926963,425.5000134256145A6,6,0,1,1,251.0000191926963,425.5000134256145"></path><path id="kity_path_246" fill="none" stroke="gray" d="M240.5000191926963,425.5000134256145L249.5000191926963,425.5000134256145"></path></g><path id="node_outline5" fill="#4bacc6" stroke="none" d="M215.5000188721558,431.5000133885271h59a5,5,0,0,1,5,5v12a5,5,0,0,1,-5,5h-59a5,5,0,0,1,-5,-5v-12a5,5,0,0,1,5,-5z"></path><g id="node_text5" fill="#ffffff"><text id="kity_text_119" text-rendering="inherit" font-size="12" dy=".8em" y="436.5000133885271" x="220.5000188721558">应对方案</text></g></g><g id="minder_node9"><g id="node_expander1" style="cursor: pointer;" display="none"><path id="kity_path_236" fill="white" stroke="gray" d="M109.50001665751212,477.5000145276381A6,6,0,1,1,97.50001665751212,477.5000145276381A6,6,0,1,1,109.50001665751212,477.5000145276381"></path><path id="kity_path_237" fill="none" stroke="gray"></path></g><path id="node_outline2" fill="none" stroke="none" d="M24.500014824338223,483.5000144905507h158a5,5,0,0,1,5,5v12a5,5,0,0,1,-5,5h-158a5,5,0,0,1,-5,-5v-12a5,5,0,0,1,5,-5z" stroke-width="3"></path><g id="node_text2" fill="black"><text id="kity_text_113" text-rendering="inherit" font-size="12" dy=".8em" y="488.5000144905507" x="29.500014824338223">Triple Modular Redundancy</text></g></g><g id="minder_node10"><g id="node_expander2" style="cursor: pointer;" display="none"><path id="kity_path_239" fill="white" stroke="gray" d="M315.00002094639717,477.5000145276381A6,6,0,1,1,303.00002094639717,477.5000145276381A6,6,0,1,1,315.00002094639717,477.5000145276381"></path><path id="kity_path_240" fill="none" stroke="gray"></path></g><path id="node_outline3" fill="none" stroke="none" d="M232.50001923243258,483.5000144905507h153a5,5,0,0,1,5,5v12a5,5,0,0,1,-5,5h-153a5,5,0,0,1,-5,-5v-12a5,5,0,0,1,5,-5z" stroke-width="3"></path><g id="node_text3" fill="black"><text id="kity_text_115" text-rendering="inherit" font-size="12" dy=".8em" y="488.5000144905507" x="237.50001923243258">Dual Modular Redundancy</text></g></g><g id="minder_node11"><g id="node_expander3" style="cursor: pointer;" display="none"><path id="kity_path_242" fill="white" stroke="gray" d="M456.5000240114002,477.5000145276381A6,6,0,1,1,444.5000240114002,477.5000145276381A6,6,0,1,1,456.5000240114002,477.5000145276381"></path><path id="kity_path_243" fill="none" stroke="gray"></path></g><path id="node_outline4" fill="none" stroke="none" d="M435.50002353456307,483.5000144905507h30a5,5,0,0,1,5,5v12a5,5,0,0,1,-5,5h-30a5,5,0,0,1,-5,-5v-12a5,5,0,0,1,5,-5z"></path><g id="node_text4" fill="black"><text id="kity_text_117" text-rendering="inherit" font-size="12" dy=".8em" y="488.5000144905507" x="440.50002353456307">......</text></g></g><g id="minder_node12"><g id="node_expander15" style="cursor: pointer;"><path id="kity_path_278" fill="white" stroke="gray" d="M964.5000318633183,373.5000123235909A6,6,0,1,1,952.5000318633183,373.5000123235909A6,6,0,1,1,964.5000318633183,373.5000123235909"></path><path id="kity_path_279" fill="none" stroke="gray" d="M954.0000318633183,373.5000123235909L963.0000318633183,373.5000123235909"></path></g><path id="node_outline16" fill="none" stroke="none" d="M861.5000325626797,379.50001228650353h194a5,5,0,0,1,5,5v12a5,5,0,0,1,-5,5h-194a5,5,0,0,1,-5,-5v-12a5,5,0,0,1,5,-5z"></path><g id="node_text16" fill="black"><text id="kity_text_141" text-rendering="inherit" font-size="12" dy=".8em" y="384.50001228650353" x="866.5000325626797"> Common Mode Failures(共因失效)</text></g></g><g id="minder_node13"><g id="node_expander14" style="cursor: pointer;"><path id="kity_path_275" fill="white" stroke="gray" d="M965.000034324328,425.5000134256145A6,6,0,1,1,953.000034324328,425.5000134256145A6,6,0,1,1,965.000034324328,425.5000134256145"></path><path id="kity_path_276" fill="none" stroke="gray" d="M954.500034324328,425.5000134256145L963.500034324328,425.5000134256145"></path></g><path id="node_outline15" fill="#4bacc6" stroke="none" d="M929.5000340037875,431.5000133885271h59a5,5,0,0,1,5,5v12a5,5,0,0,1,-5,5h-59a5,5,0,0,1,-5,-5v-12a5,5,0,0,1,5,-5z"></path><g id="node_text15" fill="#ffffff"><text id="kity_text_139" text-rendering="inherit" font-size="12" dy=".8em" y="436.5000133885271" x="934.5000340037875">应对方案</text></g></g><g id="minder_node14"><g id="node_expander10" style="cursor: pointer;"><path id="kity_path_263" fill="white" stroke="gray" d="M745.0000291321014,477.5000145276381A6,6,0,1,1,733.0000291321014,477.5000145276381A6,6,0,1,1,745.0000291321014,477.5000145276381"></path><path id="kity_path_264" fill="none" stroke="gray" d="M734.5000291321014,477.5000145276381L743.5000291321014,477.5000145276381"></path></g><path id="node_outline11" fill="none" stroke="none" d="M713.5000294261511,483.5000144905507h51a5,5,0,0,1,5,5v12a5,5,0,0,1,-5,5h-51a5,5,0,0,1,-5,-5v-12a5,5,0,0,1,5,-5z"></path><g id="node_text11" fill="black"><text id="kity_text_131" text-rendering="inherit" font-size="12" dy=".8em" y="488.5000144905507" x="718.5000294261511">runtime</text></g></g><g id="minder_node15"><g id="node_expander6" style="cursor: pointer;" display="none"><path id="kity_path_251" fill="white" stroke="gray" d="M570.5000256326464,529.5000156296618A6,6,0,1,1,558.5000256326464,529.5000156296618A6,6,0,1,1,570.5000256326464,529.5000156296618"></path><path id="kity_path_252" fill="none" stroke="gray"></path></g><path id="node_outline7" fill="none" stroke="none" d="M515.500025229984,535.5000155925744h98a5,5,0,0,1,5,5v12a5,5,0,0,1,-5,5h-98a5,5,0,0,1,-5,-5v-12a5,5,0,0,1,5,-5z"></path><g id="node_text7" fill="black"><text id="kity_text_123" text-rendering="inherit" font-size="12" dy=".8em" y="540.5000155925744" x="520.500025229984">Runtime Checks</text></g></g><g id="minder_node16"><g id="node_expander7" style="cursor: pointer;" display="none"><path id="kity_path_254" fill="white" stroke="gray" d="M721.500029759937,529.5000156296618A6,6,0,1,1,709.500029759937,529.5000156296618A6,6,0,1,1,721.500029759937,529.5000156296618"></path><path id="kity_path_255" fill="none" stroke="gray"></path></g><path id="node_outline8" fill="none" stroke="none" d="M663.5000283665129,535.5000155925744h104a5,5,0,0,1,5,5v12a5,5,0,0,1,-5,5h-104a5,5,0,0,1,-5,-5v-12a5,5,0,0,1,5,-5z"></path><g id="node_text8" fill="black"><text id="kity_text_125" text-rendering="inherit" font-size="12" dy=".8em" y="540.5000155925744" x="668.5000283665129">Watchdog Timers</text></g></g><g id="minder_node17"><g id="node_expander8" style="cursor: pointer;" display="none"><path id="kity_path_257" fill="white" stroke="gray" d="M856.0000329415004,529.5000156296618A6,6,0,1,1,844.0000329415004,529.5000156296618A6,6,0,1,1,856.0000329415004,529.5000156296618"></path><path id="kity_path_258" fill="none" stroke="gray"></path></g><path id="node_outline9" fill="none" stroke="none" d="M817.5000316301982,535.5000155925744h65a5,5,0,0,1,5,5v12a5,5,0,0,1,-5,5h-65a5,5,0,0,1,-5,-5v-12a5,5,0,0,1,5,-5z"></path><g id="node_text9" fill="black"><text id="kity_text_127" text-rendering="inherit" font-size="12" dy=".8em" y="540.5000155925744" x="822.5000316301982">Restarting</text></g></g><g id="minder_node18"><g id="node_expander9" style="cursor: pointer;" display="none"><path id="kity_path_260" fill="white" stroke="gray" d="M953.5000345442029,529.5000156296618A6,6,0,1,1,941.5000345442029,529.5000156296618A6,6,0,1,1,953.5000345442029,529.5000156296618"></path><path id="kity_path_261" fill="none" stroke="gray"></path></g><path id="node_outline10" fill="none" stroke="none" d="M932.5000340673657,535.5000155925744h30a5,5,0,0,1,5,5v12a5,5,0,0,1,-5,5h-30a5,5,0,0,1,-5,-5v-12a5,5,0,0,1,5,-5z"></path><g id="node_text10" fill="black"><text id="kity_text_129" text-rendering="inherit" font-size="12" dy=".8em" y="540.5000155925744" x="937.5000340673657">......</text></g></g><g id="minder_node19"><g id="node_expander13" style="cursor: pointer;"><path id="kity_path_272" fill="white" stroke="gray" d="M1135.0000366025497,477.5000145276381A6,6,0,1,1,1123.0000366025497,477.5000145276381A6,6,0,1,1,1135.0000366025497,477.5000145276381"></path><path id="kity_path_273" fill="none" stroke="gray" d="M1124.5000366025497,477.5000145276381L1133.5000366025497,477.5000145276381"></path></g><path id="node_outline14" fill="none" stroke="none" d="M1053.50003663169,483.5000144905507h151a5,5,0,0,1,5,5v12a5,5,0,0,1,-5,5h-151a5,5,0,0,1,-5,-5v-12a5,5,0,0,1,5,-5z"></path><g id="node_text14" fill="black"><text id="kity_text_137" text-rendering="inherit" font-size="12" dy=".8em" y="488.5000144905507" x="1058.50003663169">此处与"功能安全设计"相连</text></g></g><g id="minder_node20"><g id="node_expander11" style="cursor: pointer;" display="none"><path id="kity_path_266" fill="white" stroke="gray" d="M1062.0000350554778,529.5000156296618A6,6,0,1,1,1050.0000350554778,529.5000156296618A6,6,0,1,1,1062.0000350554778,529.5000156296618"></path><path id="kity_path_267" fill="none" stroke="gray"></path></g><path id="node_outline12" fill="none" stroke="none" d="M1012.5000357627865,535.5000155925744h87a5,5,0,0,1,5,5v12a5,5,0,0,1,-5,5h-87a5,5,0,0,1,-5,-5v-12a5,5,0,0,1,5,-5z"></path><g id="node_text12" fill="black"><text id="kity_text_133" text-rendering="inherit" font-size="12" dy=".8em" y="540.5000155925744" x="1017.5000357627865">Fault Removal</text></g></g><g id="minder_node21"><g id="node_expander12" style="cursor: pointer;" display="none"><path id="kity_path_269" fill="white" stroke="gray" d="M1203.5000415643053,529.5000156296618A6,6,0,1,1,1191.5000415643053,529.5000156296618A6,6,0,1,1,1203.5000415643053,529.5000156296618"></path><path id="kity_path_270" fill="none" stroke="gray"></path></g><path id="node_outline13" fill="none" stroke="none" d="M1149.500038666195,535.5000155925744h96a5,5,0,0,1,5,5v12a5,5,0,0,1,-5,5h-96a5,5,0,0,1,-5,-5v-12a5,5,0,0,1,5,-5z"></path><g id="node_text13" fill="black"><text id="kity_text_135" text-rendering="inherit" font-size="12" dy=".8em" y="540.5000155925744" x="1154.500038666195">Fault Avoidance</text></g></g><g id="minder_node22"><g id="node_expander16" style="cursor: pointer;" display="none"><path id="kity_path_281" fill="white" stroke="gray" d="M1396.5000460518725,373.5000123235909A6,6,0,1,1,1384.5000460518725,373.5000123235909A6,6,0,1,1,1396.5000460518725,373.5000123235909"></path><path id="kity_path_282" fill="none" stroke="gray"></path></g><path id="node_outline17" fill="none" stroke="none" d="M1295.500041760338,379.50001228650353h190a5,5,0,0,1,5,5v12a5,5,0,0,1,-5,5h-190a5,5,0,0,1,-5,-5v-12a5,5,0,0,1,5,-5z"></path><g id="node_text17" fill="black"><text id="kity_text_143" text-rendering="inherit" font-size="12" dy=".8em" y="384.50001228650353" x="1300.500041760338">Performance Limitation(性能限制)</text></g></g><g id="minder_node23"><g id="node_expander24" style="cursor: pointer;"><path id="kity_path_305" fill="white" stroke="gray" d="M1700.0000493711884,217.50000901752014A6,6,0,1,1,1688.0000493711884,217.50000901752014A6,6,0,1,1,1700.0000493711884,217.50000901752014"></path><path id="kity_path_306" fill="none" stroke="gray" d="M1689.5000493711884,217.50000901752014L1698.5000493711884,217.50000901752014"></path></g><path id="node_outline25" fill="none" stroke="none" d="M1620.5000486479855,223.50000898043277h147a5,5,0,0,1,5,5v12a5,5,0,0,1,-5,5h-147a5,5,0,0,1,-5,-5v-12a5,5,0,0,1,5,-5z"></path><g id="node_text25" fill="black"><text id="kity_text_159" text-rendering="inherit" font-size="12" dy=".8em" y="228.50000898043277" x="1625.5000486479855">广义:&#xa0; 安全标准/流程/设计</text></g></g><g id="minder_node24"><g id="node_expander23" style="cursor: pointer;"><path id="kity_path_302" fill="white" stroke="gray" d="M1700.0000499010075,269.50001011954373A6,6,0,1,1,1688.0000499010075,269.50001011954373A6,6,0,1,1,1700.0000499010075,269.50001011954373"></path><path id="kity_path_303" fill="none" stroke="gray" d="M1689.5000499010075,269.50001011954373L1698.5000499010075,269.50001011954373"></path></g><path id="node_outline24" fill="#4f81bd" stroke="none" d="M1664.500049580467,275.50001008245636h59a5,5,0,0,1,5,5v12a5,5,0,0,1,-5,5h-59a5,5,0,0,1,-5,-5v-12a5,5,0,0,1,5,-5z"></path><g id="node_text24" fill="#ffffff"><text id="kity_text_157" text-rendering="inherit" font-size="12" dy=".8em" y="280.50001008245636" x="1669.500049580467">标准分类</text></g></g><g id="minder_node25"><g id="node_expander20" style="cursor: pointer;" display="none"><path id="kity_path_293" fill="white" stroke="gray" d="M1611.5000491513138,321.5000112215672A6,6,0,1,1,1599.5000491513138,321.5000112215672A6,6,0,1,1,1611.5000491513138,321.5000112215672"></path><path id="kity_path_294" fill="none" stroke="gray"></path></g><path id="node_outline21" fill="none" stroke="none" d="M1533.5000468042153,327.50001118447983h144a5,5,0,0,1,5,5v12a5,5,0,0,1,-5,5h-144a5,5,0,0,1,-5,-5v-12a5,5,0,0,1,5,-5z"></path><g id="node_text21" fill="black"><text id="kity_text_151" text-rendering="inherit" font-size="12" dy=".8em" y="332.50001118447983" x="1538.5000468042153">系统故障失效(ISO26262)</text></g></g><g id="minder_node26"><g id="node_expander22" style="cursor: pointer;"><path id="kity_path_299" fill="white" stroke="gray" d="M1797.500050311617,321.5000112215672A6,6,0,1,1,1785.500050311617,321.5000112215672A6,6,0,1,1,1797.500050311617,321.5000112215672"></path><path id="kity_path_300" fill="none" stroke="gray" d="M1787.000050311617,321.5000112215672L1796.000050311617,321.5000112215672"></path></g><path id="node_outline23" fill="none" stroke="none" d="M1728.5000509368037,327.50001118447983h126a5,5,0,0,1,5,5v12a5,5,0,0,1,-5,5h-126a5,5,0,0,1,-5,-5v-12a5,5,0,0,1,5,-5z"></path><g id="node_text23" fill="black"><text id="kity_text_155" text-rendering="inherit" font-size="12" dy=".8em" y="332.50001118447983" x="1733.5000509368037">预期功能安全(SOTIF)</text></g></g><g id="minder_node27"><g id="node_expander21" style="cursor: pointer;" display="none"><path id="kity_path_296" fill="white" stroke="gray" d="M1798.0000511831695,373.5000123235909A6,6,0,1,1,1786.0000511831695,373.5000123235909A6,6,0,1,1,1798.0000511831695,373.5000123235909"></path><path id="kity_path_297" fill="none" stroke="gray"></path></g><path id="node_outline22" fill="none" stroke="none" d="M1728.5000509368037,379.50001228650353h127a5,5,0,0,1,5,5v12a5,5,0,0,1,-5,5h-127a5,5,0,0,1,-5,-5v-12a5,5,0,0,1,5,-5z"></path><g id="node_text22" fill="black"><text id="kity_text_153" text-rendering="inherit" font-size="12" dy=".8em" y="384.50001228650353" x="1733.5000509368037">此处与"技术安全"相连</text></g></g><g id="minder_node28"><g id="node_expander41" style="cursor: pointer;"><path id="kity_path_356" fill="white" stroke="gray" d="M2390.5000642034724,103.50000567436192A6,6,0,1,1,2378.5000642034724,103.50000567436192A6,6,0,1,1,2390.5000642034724,103.50000567436192"></path><path id="kity_path_357" fill="none" stroke="gray" d="M2380.0000642034724,103.50000567436192L2389.0000642034724,103.50000567436192"></path></g><path id="node_outline42" fill="rgb(238, 243, 246)" stroke="rgb(115, 161, 191)" d="M2339.500064139894,110.50000662803623h90a3,3,0,0,1,3,3v20a3,3,0,0,1,-3,3h-90a3,3,0,0,1,-3,-3v-20a3,3,0,0,1,3,-3z" stroke-width="1"></path><g id="node_text42" fill="black"><text id="kity_text_193" text-rendering="inherit" font-size="14" dy=".8em" y="116.50000662803623" x="2356.500064139894">技术安全</text></g></g><g id="minder_node29"><g id="node_expander31" style="cursor: pointer;"><path id="kity_path_326" fill="white" stroke="gray" d="M2105.000058484076,165.50000791549652A6,6,0,1,1,2093.000058484076,165.50000791549652A6,6,0,1,1,2105.000058484076,165.50000791549652"></path><path id="kity_path_327" fill="none" stroke="gray" d="M2094.500058484076,165.50000791549652L2103.500058484076,165.50000791549652"></path></g><path id="node_outline32" fill="#4f81bd" stroke="none" d="M2069.5000581635354,171.50000787840915h59a5,5,0,0,1,5,5v12a5,5,0,0,1,-5,5h-59a5,5,0,0,1,-5,-5v-12a5,5,0,0,1,5,-5z"></path><g id="node_text32" fill="#ffffff"><text id="kity_text_173" text-rendering="inherit" font-size="12" dy=".8em" y="176.50000787840915" x="2074.5000581635354">技术分类</text></g></g><g id="minder_node30"><g id="node_expander27" style="cursor: pointer;" display="none"><path id="kity_path_314" fill="white" stroke="gray" d="M1941.000055008463,217.50000901752014A6,6,0,1,1,1929.000055008463,217.50000901752014A6,6,0,1,1,1941.000055008463,217.50000901752014"></path><path id="kity_path_315" fill="none" stroke="gray"></path></g><path id="node_outline28" fill="none" stroke="none" d="M1905.5000546879226,223.50000898043277h59a5,5,0,0,1,5,5v12a5,5,0,0,1,-5,5h-59a5,5,0,0,1,-5,-5v-12a5,5,0,0,1,5,-5z"></path><g id="node_text28" fill="black"><text id="kity_text_165" text-rendering="inherit" font-size="12" dy=".8em" y="228.50000898043277" x="1910.5000546879226">决策安全</text></g></g><g id="minder_node31"><g id="node_expander28" style="cursor: pointer;" display="none"><path id="kity_path_317" fill="white" stroke="gray" d="M2049.500056446922,217.50000901752014A6,6,0,1,1,2037.5000564469217,217.50000901752014A6,6,0,1,1,2049.500056446922,217.50000901752014"></path><path id="kity_path_318" fill="none" stroke="gray"></path></g><path id="node_outline29" fill="none" stroke="none" d="M2014.5000569979336,223.50000898043277h58a5,5,0,0,1,5,5v12a5,5,0,0,1,-5,5h-58a5,5,0,0,1,-5,-5v-12a5,5,0,0,1,5,-5z"></path><g id="node_text29" fill="black"><text id="kity_text_167" text-rendering="inherit" font-size="12" dy=".8em" y="228.50000898043277" x="2019.5000569979336">交互安全</text></g></g><g id="minder_node32"><g id="node_expander29" style="cursor: pointer;" display="none"><path id="kity_path_320" fill="white" stroke="gray" d="M2170.0000593317864,217.50000901752014A6,6,0,1,1,2158.0000593317864,217.50000901752014A6,6,0,1,1,2170.0000593317864,217.50000901752014"></path><path id="kity_path_321" fill="none" stroke="gray"></path></g><path id="node_outline30" fill="none" stroke="none" d="M2122.500059286752,223.50000898043277h83a5,5,0,0,1,5,5v12a5,5,0,0,1,-5,5h-83a5,5,0,0,1,-5,-5v-12a5,5,0,0,1,5,-5z"></path><g id="node_text30" fill="black"><text id="kity_text_169" text-rendering="inherit" font-size="12" dy=".8em" y="228.50000898043277" x="2127.500059286752">物理碰撞安全</text></g></g><g id="minder_node33"><g id="node_expander30" style="cursor: pointer;" display="none"><path id="kity_path_323" fill="white" stroke="gray" d="M2280.000062325264,217.5000076929724A6,6,0,1,1,2268.000062325264,217.5000076929724A6,6,0,1,1,2280.000062325264,217.5000076929724"></path><path id="kity_path_324" fill="none" stroke="gray"></path></g><path id="node_outline31" fill="none" stroke="none" d="M2255.500062105389,223.50000902281826h37a5,5,0,0,1,5,5v16a5,5,0,0,1,-5,5h-37a5,5,0,0,1,-5,-5v-16a5,5,0,0,1,5,-5z"></path><g id="node_text31" fill="black"><text id="kity_text_171" text-rendering="inherit" font-size="16" dy=".8em" y="228.50000902281826" x="2260.500062105389">......</text></g></g><g id="minder_node34"><g id="node_expander40" style="cursor: pointer;"><path id="kity_path_353" fill="white" stroke="gray" d="M2676.0000705851426,165.50000791549652A6,6,0,1,1,2664.0000705851426,165.50000791549652A6,6,0,1,1,2676.0000705851426,165.50000791549652"></path><path id="kity_path_354" fill="none" stroke="gray" d="M2665.5000705851426,165.50000791549652L2674.5000705851426,165.50000791549652"></path></g><path id="node_outline41" fill="#4f81bd" stroke="none" d="M2640.500070264602,171.50000787840915h59a5,5,0,0,1,5,5v12a5,5,0,0,1,-5,5h-59a5,5,0,0,1,-5,-5v-12a5,5,0,0,1,5,-5z"></path><g id="node_text41" fill="#ffffff"><text id="kity_text_191" text-rendering="inherit" font-size="12" dy=".8em" y="176.50000787840915" x="2645.500070264602">指标优化</text></g></g><g id="minder_node35"><g id="node_expander36" style="cursor: pointer;"><path id="kity_path_341" fill="white" stroke="gray" d="M2486.0000670883373,217.50000901752014A6,6,0,1,1,2474.0000670883373,217.50000901752014A6,6,0,1,1,2486.0000670883373,217.50000901752014"></path><path id="kity_path_342" fill="none" stroke="gray" d="M2475.5000670883373,217.50000901752014L2484.5000670883373,217.50000901752014"></path></g><path id="node_outline37" fill="none" stroke="none" d="M2462.500066492291,223.50000898043277h35a5,5,0,0,1,5,5v12a5,5,0,0,1,-5,5h-35a5,5,0,0,1,-5,-5v-12a5,5,0,0,1,5,-5z"></path><g id="node_text37" fill="black"><text id="kity_text_183" text-rendering="inherit" font-size="12" dy=".8em" y="228.50000898043277" x="2467.500066492291">延迟</text></g></g><g id="minder_node36"><g id="node_expander35" style="cursor: pointer;"><path id="kity_path_338" fill="white" stroke="gray" d="M2486.000066558518,269.50001011954373A6,6,0,1,1,2474.000066558518,269.50001011954373A6,6,0,1,1,2486.000066558518,269.50001011954373"></path><path id="kity_path_339" fill="none" stroke="gray" d="M2475.500066558518,269.50001011954373L2484.500066558518,269.50001011954373"></path></g><path id="node_outline36" fill="#4bacc6" stroke="none" d="M2450.5000662379775,275.50001008245636h59a5,5,0,0,1,5,5v12a5,5,0,0,1,-5,5h-59a5,5,0,0,1,-5,-5v-12a5,5,0,0,1,5,-5z"></path><g id="node_text36" fill="#ffffff"><text id="kity_text_181" text-rendering="inherit" font-size="12" dy=".8em" y="280.50001008245636" x="2455.5000662379775">应对方案</text></g></g><g id="minder_node37"><g id="node_expander32" style="cursor: pointer;" display="none"><path id="kity_path_329" fill="white" stroke="gray" d="M2377.5000633981476,321.5000112215672A6,6,0,1,1,2365.5000633981476,321.5000112215672A6,6,0,1,1,2377.5000633981476,321.5000112215672"></path><path id="kity_path_330" fill="none" stroke="gray"></path></g><path id="node_outline33" fill="none" stroke="none" d="M2342.5000639491595,327.50001118447983h58a5,5,0,0,1,5,5v12a5,5,0,0,1,-5,5h-58a5,5,0,0,1,-5,-5v-12a5,5,0,0,1,5,-5z"></path><g id="node_text33" fill="black"><text id="kity_text_175" text-rendering="inherit" font-size="12" dy=".8em" y="332.50001118447983" x="2347.5000639491595">实时系统</text></g></g><g id="minder_node38"><g id="node_expander33" style="cursor: pointer;" display="none"><path id="kity_path_332" fill="white" stroke="gray" d="M2486.000066558518,321.5000112215672A6,6,0,1,1,2474.000066558518,321.5000112215672A6,6,0,1,1,2486.000066558518,321.5000112215672"></path><path id="kity_path_333" fill="none" stroke="gray"></path></g><path id="node_outline34" fill="none" stroke="none" d="M2450.5000662379775,327.50001118447983h59a5,5,0,0,1,5,5v12a5,5,0,0,1,-5,5h-59a5,5,0,0,1,-5,-5v-12a5,5,0,0,1,5,-5z"></path><g id="node_text34" fill="black"><text id="kity_text_177" text-rendering="inherit" font-size="12" dy=".8em" y="332.50001118447983" x="2455.5000662379775">任务编排</text></g></g><g id="minder_node39"><g id="node_expander34" style="cursor: pointer;" display="none"><path id="kity_path_335" fill="white" stroke="gray" d="M2595.000068868529,321.5000112215672A6,6,0,1,1,2583.000068868529,321.5000112215672A6,6,0,1,1,2595.000068868529,321.5000112215672"></path><path id="kity_path_336" fill="none" stroke="gray"></path></g><path id="node_outline35" fill="none" stroke="none" d="M2559.5000685479886,327.50001118447983h59a5,5,0,0,1,5,5v12a5,5,0,0,1,-5,5h-59a5,5,0,0,1,-5,-5v-12a5,5,0,0,1,5,-5z"></path><g id="node_text35" fill="black"><text id="kity_text_179" text-rendering="inherit" font-size="12" dy=".8em" y="332.50001118447983" x="2564.5000685479886">程序逻辑</text></g></g><g id="minder_node40"><g id="node_expander37" style="cursor: pointer;" display="none"><path id="kity_path_344" fill="white" stroke="gray" d="M2690.500070561301,217.50000901752014A6,6,0,1,1,2678.500070561301,217.50000901752014A6,6,0,1,1,2690.500070561301,217.50000901752014"></path><path id="kity_path_345" fill="none" stroke="gray"></path></g><path id="node_outline38" fill="none" stroke="none" d="M2667.500070836807,223.50000898043277h34a5,5,0,0,1,5,5v12a5,5,0,0,1,-5,5h-34a5,5,0,0,1,-5,-5v-12a5,5,0,0,1,5,-5z"></path><g id="node_text38" fill="black"><text id="kity_text_185" text-rendering="inherit" font-size="12" dy=".8em" y="228.50000898043277" x="2672.500070836807">盲区</text></g></g><g id="minder_node41"><g id="node_expander38" style="cursor: pointer;" display="none"><path id="kity_path_347" fill="white" stroke="gray" d="M2780.50007220374,217.50000901752014A6,6,0,1,1,2768.50007220374,217.50000901752014A6,6,0,1,1,2780.50007220374,217.50000901752014"></path><path id="kity_path_348" fill="none" stroke="gray"></path></g><path id="node_outline39" fill="none" stroke="none" d="M2751.5000726169988,223.50000898043277h46a5,5,0,0,1,5,5v12a5,5,0,0,1,-5,5h-46a5,5,0,0,1,-5,-5v-12a5,5,0,0,1,5,-5z"></path><g id="node_text39" fill="black"><text id="kity_text_187" text-rendering="inherit" font-size="12" dy=".8em" y="228.50000898043277" x="2756.5000726169988">准确率</text></g></g><g id="minder_node42"><g id="node_expander39" style="cursor: pointer;" display="none"><path id="kity_path_350" fill="white" stroke="gray" d="M2868.500075128341,217.50000901752014A6,6,0,1,1,2856.500075128341,217.50000901752014A6,6,0,1,1,2868.500075128341,217.50000901752014"></path><path id="kity_path_351" fill="none" stroke="gray"></path></g><path id="node_outline40" fill="none" stroke="none" d="M2847.500074651504,223.50000898043277h30a5,5,0,0,1,5,5v12a5,5,0,0,1,-5,5h-30a5,5,0,0,1,-5,-5v-12a5,5,0,0,1,5,-5z"></path><g id="node_text40" fill="black"><text id="kity_text_189" text-rendering="inherit" font-size="12" dy=".8em" y="228.50000898043277" x="2852.500074651504">......</text></g></g></g></g></svg>