<svg id="kity_svg_6" xmlns="http://www.w3.org/2000/svg" xmlns:xlink="http://www.w3.org/1999/xlink" version="1.1" width="1771" height="525" style="background: rgb(251, 251, 251); visibility: visible;" viewBox="0 0 1771 525"><defs id="kity_defs_7"><linearGradient id="kity_linearGradient_17" x1="0" y1="0" x2="0" y2="1"><stop id="kity_stop_18" offset="0" stop-color="rgb(255, 255, 255)"></stop><stop id="kity_stop_19" offset="1" stop-color="rgb(204, 204, 204)"></stop></linearGradient><marker id="kity_marker_2" orient="auto" refX="6" refY="0" viewBox="-7 -7 14 14" markerWidth="7" markerHeight="7" markerUnits="userSpaceOnUse"><path id="kity_path_3" fill="rgb(115, 161, 191)" stroke="none" d="M6,0A6,6,0,1,1,-6,0A6,6,0,1,1,6,0"></path></marker></defs><g id="kity_g_8"><g id="minder1" text-rendering="optimize-speed"><g id="minder_connect_group1"><path id="kity_path_32" fill="none" stroke="rgb(115, 161, 191)" stroke-width="1" d="M1027.5000276671517,60.50000400543184v30h-392.5V110.50000400543183"></path><path id="kity_path_72" fill="none" stroke="rgb(115, 161, 191)" stroke-width="1" d="M634.5000276671516,193.50000400543183v15h-284.5V223.50000400543183"></path><path id="kity_path_80" fill="none" stroke="rgb(115, 161, 191)" stroke-width="1" d="M634.5000276671516,193.50000400543183v15h251V223.50000400543183"></path><path id="kity_path_136" fill="none" stroke="rgb(115, 161, 191)" stroke-width="1" d="M634.5000276671516,136.50000400543183v20h0V171.50000400543183"></path><path id="kity_path_144" fill="none" stroke="rgb(115, 161, 191)" stroke-width="1" d="M885.5000276671516,245.50000400543183v15h0.5V275.50000400543183"></path><path id="kity_path_171" fill="none" stroke="rgb(115, 161, 191)" stroke-width="1" d="M350.5000276671516,245.50000400543183v15h0V275.50000400543183"></path><path id="kity_path_228" fill="none" stroke="rgb(115, 161, 191)" stroke-width="1" d="M350.5000276671516,349.50000400543183v15h-242V379.50000400543183"></path><path id="kity_path_229" fill="none" stroke="rgb(115, 161, 191)" stroke-width="1" d="M350.5000276671516,349.50000400543183v15h-11.5V379.50000400543183"></path><path id="kity_path_230" fill="none" stroke="rgb(115, 161, 191)" stroke-width="1" d="M350.5000276671516,349.50000400543183v15h230.5V379.50000400543183"></path><path id="kity_path_232" fill="none" stroke="rgb(115, 161, 191)" stroke-width="1" d="M350.5000276671516,297.50000400543183v15h0V327.50000400543183"></path><path id="kity_path_240" fill="none" stroke="rgb(115, 161, 191)" stroke-width="1" d="M108.50002766715158,401.50000400543183v15h0V431.50000400543183"></path><path id="kity_path_248" fill="none" stroke="rgb(115, 161, 191)" stroke-width="1" d="M338.5000276671516,401.50000400543183v15h0.5V431.50000400543183"></path><path id="kity_path_256" fill="none" stroke="rgb(115, 161, 191)" stroke-width="1" d="M580.5000276671516,401.50000400543183v15h0.5V431.50000400543183"></path><path id="kity_path_264" fill="none" stroke="rgb(115, 161, 191)" stroke-width="1" d="M108.50002766715158,453.50000400543183v15h-53.5V483.50000400543183"></path><path id="kity_path_272" fill="none" stroke="rgb(115, 161, 191)" stroke-width="1" d="M108.50002766715158,453.50000400543183v15h54.5V483.50000400543183"></path><path id="kity_path_280" fill="none" stroke="rgb(115, 161, 191)" stroke-width="1" d="M339.5000276671516,453.50000400543183v15h-53.5V483.50000400543183"></path><path id="kity_path_288" fill="none" stroke="rgb(115, 161, 191)" stroke-width="1" d="M339.5000276671516,453.50000400543183v15h54.5V483.50000400543183"></path><path id="kity_path_296" fill="none" stroke="rgb(115, 161, 191)" stroke-width="1" d="M581.5000276671516,453.50000400543183v15h-53.5V483.50000400543183"></path><path id="kity_path_304" fill="none" stroke="rgb(115, 161, 191)" stroke-width="1" d="M581.5000276671516,453.50000400543183v15h54.5V483.50000400543183"></path><path id="kity_path_312" fill="none" stroke="rgb(115, 161, 191)" stroke-width="1" d="M1027.5000276671517,60.50000400543184v30h392.5V110.50000400543183"></path><path id="kity_path_416" fill="none" stroke="rgb(115, 161, 191)" stroke-width="1" d="M1419.5000276671517,136.50000400543183v20h175V171.50000400543183"></path><path id="kity_path_489" fill="none" stroke="rgb(115, 161, 191)" stroke-width="1" d="M1245.5000276671517,193.50000400543183v15h-120V223.50000400543183"></path><path id="kity_path_490" fill="none" stroke="rgb(115, 161, 191)" stroke-width="1" d="M1245.5000276671517,193.50000400543183v15h121.5V223.50000400543183"></path><path id="kity_path_496" fill="none" stroke="rgb(115, 161, 191)" stroke-width="1" d="M886.5000276671516,297.50000400543183v15h-87.5V327.50000400543183"></path><path id="kity_path_497" fill="none" stroke="rgb(115, 161, 191)" stroke-width="1" d="M886.5000276671516,297.50000400543183v15h97.5V327.50000400543183"></path><path id="kity_path_499" fill="none" stroke="rgb(115, 161, 191)" stroke-width="1" d="M1245.5000276671517,193.50000400543183v15h1V223.50000400543183"></path><path id="kity_path_506" fill="none" stroke="rgb(115, 161, 191)" stroke-width="1" d="M1595.5000276671517,297.50000400543183v15h-120.5V327.50000400543183"></path><path id="kity_path_507" fill="none" stroke="rgb(115, 161, 191)" stroke-width="1" d="M1595.5000276671517,297.50000400543183v15h-12V327.50000400543183"></path><path id="kity_path_508" fill="none" stroke="rgb(115, 161, 191)" stroke-width="1" d="M1595.5000276671517,297.50000400543183v15h109V327.50000400543183"></path><path id="kity_path_509" fill="none" stroke="rgb(115, 161, 191)" stroke-width="1" d="M1594.5000276671517,245.50000400543183v15h0.5V275.50000400543183"></path><path id="kity_path_510" fill="none" stroke="rgb(115, 161, 191)" stroke-width="1" d="M1594.5000276671517,193.50000400543183v15h0V223.50000400543183"></path><path id="kity_path_512" fill="none" stroke="rgb(115, 161, 191)" stroke-width="1" d="M1419.5000276671517,136.50000400543183v20h-174.5V171.50000400543183"></path></g><g id="minder_node1"><path id="kity_path_30" fill="rgba(0, 0, 0, .25)" stroke="none" d="M992.5000276671516,18.50000400543184h116a27,27,0,0,1,27,27v0a27,27,0,0,1,-27,27h-116a27,27,0,0,1,-27,-27v0a27,27,0,0,1,27,-27z" display="none"></path><path id="node_outline1" fill="rgb(115, 161, 191)" stroke="rgb(115, 161, 191)" d="M967.5000276671516,20.50000400543184h119a5,5,0,0,1,5,5v30a5,5,0,0,1,-5,5h-119a5,5,0,0,1,-5,-5v-30a5,5,0,0,1,5,-5z" stroke-width="3"></path><g id="node_text1" fill="white"><text id="kity_text_22" text-rendering="inherit" font-size="16" dy=".8em" y="32.50000400543185" x="986.5000276671516">无人车安全</text></g></g><g id="kity_g_14" display="none"><path id="kity_path_15" fill="rgba(0, 92, 153, 0.5)" stroke="none" d="M1062.5000276671517,223.50000400543183h20v22h-20z"></path><path id="kity_path_16" fill="none" stroke="rgb(0, 76, 128)" d="M1082.5000276671517,223.50000400543183L1082.5000276671517,245.50000400543183" stroke-width="1"></path></g><g id="minder_node2"><path id="kity_path_172" fill="rgba(0, 0, 0, .25)" stroke="none" d="M600.5000196139022,114.50000576443102h85a10,10,0,0,1,10,10v8a10,10,0,0,1,-10,10h-85a10,10,0,0,1,-10,-10v-8a10,10,0,0,1,10,-10z" display="none"></path><g id="node_expander1" style="cursor: pointer;"><path id="kity_path_37" fill="white" stroke="gray" d="M640.5000196774804,103.5000048107567A6,6,0,1,1,628.5000196774804,103.5000048107567A6,6,0,1,1,640.5000196774804,103.5000048107567"></path><path id="kity_path_38" fill="none" stroke="gray" d="M630.0000196774804,103.5000048107567L639.0000196774804,103.5000048107567"></path></g><path id="node_outline2" fill="rgb(238, 243, 246)" stroke="rgb(115, 161, 191)" d="M589.5000196139022,110.50000576443102h90a3,3,0,0,1,3,3v20a3,3,0,0,1,-3,3h-90a3,3,0,0,1,-3,-3v-20a3,3,0,0,1,3,-3z" stroke-width="1"></path><g id="node_text2" fill="black"><text id="kity_text_34" text-rendering="inherit" font-size="14" dy=".8em" y="116.50000576443102" x="606.5000196139022">功能安全</text></g></g><g id="minder_node7" opacity="1"><g id="node_expander6" style="cursor: pointer;"><path id="kity_path_77" fill="white" stroke="gray" d="M356.000016231008,217.5000081539149A6,6,0,1,1,344.000016231008,217.5000081539149A6,6,0,1,1,356.000016231008,217.5000081539149"></path><path id="kity_path_78" fill="none" stroke="gray" d="M345.500016231008,217.5000081539149L354.500016231008,217.5000081539149"></path></g><path id="node_outline7" fill="none" stroke="none" d="M299.50001321368836,223.50000811682753h101a5,5,0,0,1,5,5v12a5,5,0,0,1,-5,5h-101a5,5,0,0,1,-5,-5v-12a5,5,0,0,1,5,-5z" stroke-width="3"></path><g id="node_text7" fill="black"><text id="kity_text_74" text-rendering="inherit" font-size="12" dy=".8em" y="228.50000811682753" x="304.50001321368836">狭义: 安全子系统</text></g></g><g id="minder_node8" opacity="1"><g id="node_expander7" style="cursor: pointer;"><path id="kity_path_85" fill="white" stroke="gray" d="M891.500025924047,217.5000081539149A6,6,0,1,1,879.500025924047,217.5000081539149A6,6,0,1,1,891.500025924047,217.5000081539149"></path><path id="kity_path_86" fill="none" stroke="gray" d="M881.000025924047,217.5000081539149L890.000025924047,217.5000081539149"></path></g><path id="node_outline8" fill="none" stroke="none" d="M801.5000238524545,223.50000811682753h168a5,5,0,0,1,5,5v12a5,5,0,0,1,-5,5h-168a5,5,0,0,1,-5,-5v-12a5,5,0,0,1,5,-5z" stroke-width="3"></path><g id="node_text8" fill="black"><text id="kity_text_82" text-rendering="inherit" font-size="12" dy=".8em" y="228.50000811682753" x="806.5000238524545">广义: 功能安全标准/流程/设计</text></g></g><g id="minder_node15"><g id="node_expander14" style="cursor: pointer;"><path id="kity_path_141" fill="white" stroke="gray" d="M640.5000191476614,165.50000705189134A6,6,0,1,1,628.5000191476614,165.50000705189134A6,6,0,1,1,640.5000191476614,165.50000705189134"></path><path id="kity_path_142" fill="none" stroke="gray" d="M630.0000191476614,165.50000705189134L639.0000191476614,165.50000705189134"></path></g><path id="node_outline15" fill="none" stroke="none" d="M605.5000196986733,171.50000701480397h58a5,5,0,0,1,5,5v12a5,5,0,0,1,-5,5h-58a5,5,0,0,1,-5,-5v-12a5,5,0,0,1,5,-5z" stroke-width="3"></path><g id="node_text15" fill="black"><text id="kity_text_138" text-rendering="inherit" font-size="12" dy=".8em" y="176.50000701480397" font-family="微软雅黑,Microsoft YaHei" x="610.5000196986733">语义分类</text></g><g id="node_priority1" display="none"><path id="kity_path_175" fill="#840023" stroke="none" d="M586.0000185171768,186.0000065485632c0,3.866,3.134,7,7,7h6c3.866,0,7,-3.134,7,-7V180.0000065485632H586.0000185171768V186.0000065485632z"></path><path id="kity_path_176" fill="#FF1200" stroke="none" d="M606.0000185171768,183.0000065485632c0,3.866,-3.134,7,-7,7H593.0000185171768c-3.866,0,-7,-3.134,-7,-7V180.0000065485632c0,-3.866,3.134,-7,7,-7h6c3.866,0,7,3.134,7,7V183.0000065485632z" opacity="0.8"></path><text id="kity_text_177" text-rendering="geometricPrecision" x="595.0000185065804" y="182.5000065379668" text-anchor="middle" font-style="italic" font-size="12" fill="white" dy="4">1</text></g></g><g id="minder_node16" opacity="1"><g id="node_expander15" style="cursor: pointer;"><path id="kity_path_149" fill="white" stroke="gray" d="M892.0000253385969,269.5000092559385A6,6,0,1,1,880.0000253385969,269.5000092559385A6,6,0,1,1,892.0000253385969,269.5000092559385"></path><path id="kity_path_150" fill="none" stroke="gray" d="M881.5000253385969,269.5000092559385L890.5000253385969,269.5000092559385"></path></g><path id="node_outline16" fill="none" stroke="none" d="M856.5000250180564,275.5000092188511h59a5,5,0,0,1,5,5v12a5,5,0,0,1,-5,5h-59a5,5,0,0,1,-5,-5v-12a5,5,0,0,1,5,-5z" stroke-width="3"></path><g id="node_text16" fill="black"><text id="kity_text_146" text-rendering="inherit" font-size="12" dy=".8em" y="280.5000092188511" x="861.5000250180564">标准分类</text></g></g><g id="minder_node12" opacity="1"><g id="node_expander11" style="cursor: pointer;"><path id="kity_path_117" fill="white" stroke="gray" d="M356.0000151713698,269.5000092559385A6,6,0,1,1,344.0000151713698,269.5000092559385A6,6,0,1,1,356.0000151713698,269.5000092559385"></path><path id="kity_path_118" fill="none" stroke="gray" d="M345.5000151713698,269.5000092559385L354.5000151713698,269.5000092559385"></path></g><path id="node_outline12" fill="none" stroke="none" d="M275.5000127050621,275.5000092188511h149a5,5,0,0,1,5,5v12a5,5,0,0,1,-5,5h-149a5,5,0,0,1,-5,-5v-12a5,5,0,0,1,5,-5z" stroke-width="3"></path><g id="node_text12" fill="black"><text id="kity_text_114" text-rendering="inherit" font-size="12" dy=".8em" y="280.5000092188511" x="280.5000127050621">Fault-Tolerance(容错设计)</text></g></g><g id="minder_node22" opacity="1"><g id="node_expander20" style="cursor: pointer;"><path id="kity_path_217" fill="white" stroke="gray" d="M114.00001282427172,373.50001145998567A6,6,0,1,1,102.00001282427172,373.50001145998567A6,6,0,1,1,114.00001282427172,373.50001145998567"></path><path id="kity_path_218" fill="none" stroke="gray" d="M103.50001282427172,373.50001145998567L112.50001282427172,373.50001145998567"></path></g><path id="node_outline21" fill="none" stroke="none" d="M24.50000738567894,379.5000114228983h167a5,5,0,0,1,5,5v12a5,5,0,0,1,-5,5h-167a5,5,0,0,1,-5,-5v-12a5,5,0,0,1,5,-5z" stroke-width="3"></path><g id="node_text21" fill="black"><text id="kity_text_205" text-rendering="inherit" font-size="12" dy=".8em" y="384.5000114228983" x="29.50000738567894">Byzantine Faults(拜占庭错误)</text></g></g><g id="minder_node23" opacity="1"><g id="node_expander21" style="cursor: pointer;"><path id="kity_path_220" fill="white" stroke="gray" d="M344.5000112851468,373.50001145998567A6,6,0,1,1,332.5000112851468,373.50001145998567A6,6,0,1,1,344.5000112851468,373.50001145998567"></path><path id="kity_path_221" fill="none" stroke="gray" d="M334.0000112851468,373.50001145998567L343.0000112851468,373.50001145998567"></path></g><path id="node_outline22" fill="none" stroke="none" d="M241.5000119845082,379.5000114228983h194a5,5,0,0,1,5,5v12a5,5,0,0,1,-5,5h-194a5,5,0,0,1,-5,-5v-12a5,5,0,0,1,5,-5z" stroke-width="3"></path><g id="node_text22" fill="black"><text id="kity_text_207" text-rendering="inherit" font-size="12" dy=".8em" y="384.5000114228983" x="246.5000119845082"> Common Mode Failures(共因失效)</text></g></g><g id="minder_node24" opacity="1"><g id="node_expander22" style="cursor: pointer;"><path id="kity_path_223" fill="white" stroke="gray" d="M586.5000214470763,373.50001145998567A6,6,0,1,1,574.5000214470763,373.50001145998567A6,6,0,1,1,586.5000214470763,373.50001145998567"></path><path id="kity_path_224" fill="none" stroke="gray" d="M576.0000214470763,373.50001145998567L585.0000214470763,373.50001145998567"></path></g><path id="node_outline23" fill="none" stroke="none" d="M485.5000171555419,379.5000114228983h190a5,5,0,0,1,5,5v12a5,5,0,0,1,-5,5h-190a5,5,0,0,1,-5,-5v-12a5,5,0,0,1,5,-5z" stroke-width="3"></path><g id="node_text23" fill="black"><text id="kity_text_209" text-rendering="inherit" font-size="12" dy=".8em" y="384.5000114228983" x="490.5000171555419">Performance Limitation(性能限制)</text></g></g><g id="minder_node25" opacity="1"><g id="node_expander24" style="cursor: pointer;"><path id="kity_path_237" fill="white" stroke="gray" d="M356.0000139792767,321.5000103579621A6,6,0,1,1,344.0000139792767,321.5000103579621A6,6,0,1,1,356.0000139792767,321.5000103579621"></path><path id="kity_path_238" fill="none" stroke="gray" d="M345.5000139792767,321.5000103579621L354.5000139792767,321.5000103579621"></path></g><path id="node_outline25" fill="none" stroke="none" d="M320.5000136587362,327.5000103208747h59a5,5,0,0,1,5,5v12a5,5,0,0,1,-5,5h-59a5,5,0,0,1,-5,-5v-12a5,5,0,0,1,5,-5z" stroke-width="3"></path><g id="node_text25" fill="black"><text id="kity_text_234" text-rendering="inherit" font-size="12" dy=".8em" y="332.5000103208747" x="325.5000136587362">错误分类</text></g></g><g id="minder_node26"><g id="node_expander25" style="cursor: pointer;"><path id="kity_path_245" fill="white" stroke="gray" d="M114.00000885062866,425.50001256200926A6,6,0,1,1,102.00000885062866,425.50001256200926A6,6,0,1,1,114.00000885062866,425.50001256200926"></path><path id="kity_path_246" fill="none" stroke="gray" d="M103.50000885062866,425.50001256200926L112.50000885062866,425.50001256200926"></path></g><path id="node_outline26" fill="none" stroke="none" d="M78.50000853008817,431.5000125249219h59a5,5,0,0,1,5,5v12a5,5,0,0,1,-5,5h-59a5,5,0,0,1,-5,-5v-12a5,5,0,0,1,5,-5z" stroke-width="3"></path><g id="node_text26" fill="black"><text id="kity_text_242" text-rendering="inherit" font-size="12" dy=".8em" y="436.5000125249219" x="83.50000853008817">应对方案</text></g></g><g id="minder_node27" opacity="1"><g id="node_expander26" style="cursor: pointer;"><path id="kity_path_253" fill="white" stroke="gray" d="M345.00001374615647,425.50001256200926A6,6,0,1,1,333.00001374615647,425.50001256200926A6,6,0,1,1,345.00001374615647,425.50001256200926"></path><path id="kity_path_254" fill="none" stroke="gray" d="M334.50001374615647,425.50001256200926L343.50001374615647,425.50001256200926"></path></g><path id="node_outline27" fill="none" stroke="none" d="M309.500013425616,431.5000125249219h59a5,5,0,0,1,5,5v12a5,5,0,0,1,-5,5h-59a5,5,0,0,1,-5,-5v-12a5,5,0,0,1,5,-5z" stroke-width="3"></path><g id="node_text27" fill="black"><text id="kity_text_250" text-rendering="inherit" font-size="12" dy=".8em" y="436.5000125249219" x="314.500013425616">应对方案</text></g></g><g id="minder_node28"><g id="node_expander27" style="cursor: pointer;"><path id="kity_path_261" fill="white" stroke="gray" d="M587.0000188748047,425.50001256200926A6,6,0,1,1,575.0000188748047,425.50001256200926A6,6,0,1,1,587.0000188748047,425.50001256200926"></path><path id="kity_path_262" fill="none" stroke="gray" d="M576.5000188748047,425.50001256200926L585.5000188748047,425.50001256200926"></path></g><path id="node_outline28" fill="none" stroke="none" d="M551.5000185542642,431.5000125249219h59a5,5,0,0,1,5,5v12a5,5,0,0,1,-5,5h-59a5,5,0,0,1,-5,-5v-12a5,5,0,0,1,5,-5z" stroke-width="3"></path><g id="node_text28" fill="black"><text id="kity_text_258" text-rendering="inherit" font-size="12" dy=".8em" y="436.5000125249219" x="556.5000185542642">应对方案</text></g></g><g id="minder_node29"><g id="node_expander28" style="cursor: pointer;" display="none"><path id="kity_path_269" fill="white" stroke="gray" d="M60.50000685585974,477.50001366403285A6,6,0,1,1,48.50000685585974,477.50001366403285A6,6,0,1,1,60.50000685585974,477.50001366403285"></path><path id="kity_path_270" fill="none" stroke="gray"></path></g><path id="node_outline29" fill="none" stroke="none" d="M25.500007406871646,483.5000136269455h58a5,5,0,0,1,5,5v12a5,5,0,0,1,-5,5h-58a5,5,0,0,1,-5,-5v-12a5,5,0,0,1,5,-5z" stroke-width="3"></path><g id="node_text29" fill="black"><text id="kity_text_266" text-rendering="inherit" font-size="12" dy=".8em" y="488.5000136269455" x="30.500007406871646">分支主题</text></g></g><g id="minder_node30"><g id="node_expander29" style="cursor: pointer;" display="none"><path id="kity_path_277" fill="white" stroke="gray" d="M168.50000914467796,477.50001366403285A6,6,0,1,1,156.50000914467796,477.50001366403285A6,6,0,1,1,168.50000914467796,477.50001366403285"></path><path id="kity_path_278" fill="none" stroke="gray"></path></g><path id="node_outline30" fill="none" stroke="none" d="M133.50000969568987,483.5000136269455h58a5,5,0,0,1,5,5v12a5,5,0,0,1,-5,5h-58a5,5,0,0,1,-5,-5v-12a5,5,0,0,1,5,-5z" stroke-width="3"></path><g id="node_text30" fill="black"><text id="kity_text_274" text-rendering="inherit" font-size="12" dy=".8em" y="488.5000136269455" x="138.50000969568987">分支主题</text></g></g><g id="minder_node31"><g id="node_expander30" style="cursor: pointer;" display="none"><path id="kity_path_285" fill="white" stroke="gray" d="M291.50001175138766,477.50001366403285A6,6,0,1,1,279.50001175138766,477.50001366403285A6,6,0,1,1,291.50001175138766,477.50001366403285"></path><path id="kity_path_286" fill="none" stroke="gray"></path></g><path id="node_outline31" fill="none" stroke="none" d="M256.50001230239957,483.5000136269455h58a5,5,0,0,1,5,5v12a5,5,0,0,1,-5,5h-58a5,5,0,0,1,-5,-5v-12a5,5,0,0,1,5,-5z" stroke-width="3"></path><g id="node_text31" fill="black"><text id="kity_text_282" text-rendering="inherit" font-size="12" dy=".8em" y="488.5000136269455" x="261.50001230239957">分支主题</text></g></g><g id="minder_node32"><g id="node_expander31" style="cursor: pointer;" display="none"><path id="kity_path_293" fill="white" stroke="gray" d="M399.50001404020577,477.50001366403285A6,6,0,1,1,387.50001404020577,477.50001366403285A6,6,0,1,1,399.50001404020577,477.50001366403285"></path><path id="kity_path_294" fill="none" stroke="gray"></path></g><path id="node_outline32" fill="none" stroke="none" d="M364.5000145912177,483.5000136269455h58a5,5,0,0,1,5,5v12a5,5,0,0,1,-5,5h-58a5,5,0,0,1,-5,-5v-12a5,5,0,0,1,5,-5z" stroke-width="3"></path><g id="node_text32" fill="black"><text id="kity_text_290" text-rendering="inherit" font-size="12" dy=".8em" y="488.5000136269455" x="369.5000145912177">分支主题</text></g></g><g id="minder_node33"><g id="node_expander32" style="cursor: pointer;" display="none"><path id="kity_path_301" fill="white" stroke="gray" d="M533.5000168800359,477.50001366403285A6,6,0,1,1,521.5000168800359,477.50001366403285A6,6,0,1,1,533.5000168800359,477.50001366403285"></path><path id="kity_path_302" fill="none" stroke="gray"></path></g><path id="node_outline33" fill="none" stroke="none" d="M498.5000174310478,483.5000136269455h58a5,5,0,0,1,5,5v12a5,5,0,0,1,-5,5h-58a5,5,0,0,1,-5,-5v-12a5,5,0,0,1,5,-5z" stroke-width="3"></path><g id="node_text33" fill="black"><text id="kity_text_298" text-rendering="inherit" font-size="12" dy=".8em" y="488.5000136269455" x="503.5000174310478">分支主题</text></g></g><g id="minder_node34"><g id="node_expander33" style="cursor: pointer;" display="none"><path id="kity_path_309" fill="white" stroke="gray" d="M641.5000191688541,477.50001366403285A6,6,0,1,1,629.5000191688541,477.50001366403285A6,6,0,1,1,641.5000191688541,477.50001366403285"></path><path id="kity_path_310" fill="none" stroke="gray"></path></g><path id="node_outline34" fill="none" stroke="none" d="M606.500019719866,483.5000136269455h58a5,5,0,0,1,5,5v12a5,5,0,0,1,-5,5h-58a5,5,0,0,1,-5,-5v-12a5,5,0,0,1,5,-5z" stroke-width="3"></path><g id="node_text34" fill="black"><text id="kity_text_306" text-rendering="inherit" font-size="12" dy=".8em" y="488.5000136269455" x="611.500019719866">分支主题</text></g></g><g id="minder_node35" opacity="1"><g id="node_expander34" style="cursor: pointer;"><path id="kity_path_317" fill="white" stroke="gray" d="M1425.5000363137983,103.5000048107567A6,6,0,1,1,1413.5000363137983,103.5000048107567A6,6,0,1,1,1425.5000363137983,103.5000048107567"></path><path id="kity_path_318" fill="none" stroke="gray" d="M1415.0000363137983,103.5000048107567L1424.0000363137983,103.5000048107567"></path></g><path id="node_outline35" fill="rgb(238, 243, 246)" stroke="rgb(115, 161, 191)" d="M1374.50003625022,110.50000576443102h90a3,3,0,0,1,3,3v20a3,3,0,0,1,-3,3h-90a3,3,0,0,1,-3,-3v-20a3,3,0,0,1,3,-3z" stroke-width="1"></path><g id="node_text35" fill="black"><text id="kity_text_314" text-rendering="inherit" font-size="14" dy=".8em" y="116.50000576443102" x="1391.50003625022">技术安全</text></g></g><g id="minder_node48" opacity="1"><g id="node_expander47" style="cursor: pointer;"><path id="kity_path_421" fill="white" stroke="gray" d="M1600.5000394927124,165.50000705189134A6,6,0,1,1,1588.5000394927124,165.50000705189134A6,6,0,1,1,1600.5000394927124,165.50000705189134"></path><path id="kity_path_422" fill="none" stroke="gray" d="M1590.0000394927124,165.50000705189134L1599.0000394927124,165.50000705189134"></path></g><path id="node_outline48" fill="none" stroke="none" d="M1565.5000400437243,171.50000701480397h58a5,5,0,0,1,5,5v12a5,5,0,0,1,-5,5h-58a5,5,0,0,1,-5,-5v-12a5,5,0,0,1,5,-5z" stroke-width="3"></path><g id="node_text48" fill="black"><text id="kity_text_418" text-rendering="inherit" font-size="12" dy=".8em" y="176.50000701480397" x="1570.5000400437243">设计要点</text></g></g><g id="minder_node54" opacity="1"><g id="node_expander53" style="cursor: pointer;" display="none"><path id="kity_path_469" fill="white" stroke="gray" d="M1131.0000304036669,217.5000081539149A6,6,0,1,1,1119.0000304036669,217.5000081539149A6,6,0,1,1,1131.0000304036669,217.5000081539149"></path><path id="kity_path_470" fill="none" stroke="gray"></path></g><path id="node_outline54" fill="none" stroke="none" d="M1095.5000300831264,223.50000811682753h59a5,5,0,0,1,5,5v12a5,5,0,0,1,-5,5h-59a5,5,0,0,1,-5,-5v-12a5,5,0,0,1,5,-5z" stroke-width="3"></path><g id="node_text54" fill="black"><text id="kity_text_466" text-rendering="inherit" font-size="12" dy=".8em" y="228.50000811682753" x="1100.5000300831264">决策安全</text></g></g><g id="minder_node55" opacity="1"><g id="node_expander54" style="cursor: pointer;" display="none"><path id="kity_path_477" fill="white" stroke="gray" d="M1372.5000346607628,217.5000081539149A6,6,0,1,1,1360.5000346607628,217.5000081539149A6,6,0,1,1,1372.5000346607628,217.5000081539149"></path><path id="kity_path_478" fill="none" stroke="gray"></path></g><path id="node_outline55" fill="none" stroke="none" d="M1337.5000352117747,223.50000811682753h58a5,5,0,0,1,5,5v12a5,5,0,0,1,-5,5h-58a5,5,0,0,1,-5,-5v-12a5,5,0,0,1,5,-5z" stroke-width="3"></path><g id="node_text55" fill="black"><text id="kity_text_474" text-rendering="inherit" font-size="12" dy=".8em" y="228.50000811682753" x="1342.5000352117747">防撞安全</text></g></g><g id="minder_node17"><g id="node_expander16" style="cursor: pointer;" display="none"><path id="kity_path_157" fill="white" stroke="gray" d="M804.5000246100958,321.5000103579621A6,6,0,1,1,792.5000246100958,321.5000103579621A6,6,0,1,1,804.5000246100958,321.5000103579621"></path><path id="kity_path_158" fill="none" stroke="gray"></path></g><path id="node_outline17" fill="none" stroke="none" d="M726.5000222629974,327.5000103208747h144a5,5,0,0,1,5,5v12a5,5,0,0,1,-5,5h-144a5,5,0,0,1,-5,-5v-12a5,5,0,0,1,5,-5z" stroke-width="3"></path><g id="node_text17" fill="black"><text id="kity_text_154" text-rendering="inherit" font-size="12" dy=".8em" y="332.5000103208747" x="731.5000222629974">系统故障失效(ISO26262)</text></g></g><g id="minder_node18"><g id="node_expander17" style="cursor: pointer;" display="none"><path id="kity_path_165" fill="white" stroke="gray" d="M989.5000257492065,321.5000103579621A6,6,0,1,1,977.5000257492065,321.5000103579621A6,6,0,1,1,989.5000257492065,321.5000103579621"></path><path id="kity_path_166" fill="none" stroke="gray"></path></g><path id="node_outline18" fill="none" stroke="none" d="M920.5000263743932,327.5000103208747h126a5,5,0,0,1,5,5v12a5,5,0,0,1,-5,5h-126a5,5,0,0,1,-5,-5v-12a5,5,0,0,1,5,-5z" stroke-width="3"></path><g id="node_text18" fill="black"><text id="kity_text_162" text-rendering="inherit" font-size="12" dy=".8em" y="332.5000103208747" x="925.5000263743932">预期功能安全(SOTIF)</text></g></g><g id="minder_node57" opacity="1"><g id="node_expander56" style="cursor: pointer;" display="none"><path id="kity_path_504" fill="white" stroke="gray" d="M1252.000032438172,217.5000081539149A6,6,0,1,1,1240.000032438172,217.5000081539149A6,6,0,1,1,1252.000032438172,217.5000081539149"></path><path id="kity_path_505" fill="none" stroke="gray"></path></g><path id="node_outline57" fill="none" stroke="none" d="M1204.5000323931374,223.50000811682753h83a5,5,0,0,1,5,5v12a5,5,0,0,1,-5,5h-83a5,5,0,0,1,-5,-5v-12a5,5,0,0,1,5,-5z" stroke-width="3"></path><g id="node_text57" fill="black"><text id="kity_text_501" text-rendering="inherit" font-size="12" dy=".8em" y="228.50000811682753" x="1209.5000323931374">物理碰撞安全</text></g></g><g id="minder_node52" opacity="1"><g id="node_expander51" style="cursor: pointer;" display="none"><path id="kity_path_453" fill="white" stroke="gray" d="M1480.500036949581,321.5000103579621A6,6,0,1,1,1468.500036949581,321.5000103579621A6,6,0,1,1,1480.500036949581,321.5000103579621"></path><path id="kity_path_454" fill="none" stroke="gray"></path></g><path id="node_outline52" fill="none" stroke="none" d="M1445.500037500593,327.5000103208747h58a5,5,0,0,1,5,5v12a5,5,0,0,1,-5,5h-58a5,5,0,0,1,-5,-5v-12a5,5,0,0,1,5,-5z" stroke-width="3"></path><g id="node_text52" fill="black"><text id="kity_text_450" text-rendering="inherit" font-size="12" dy=".8em" y="332.5000103208747" x="1450.500037500593">实时系统</text></g></g><g id="minder_node53"><g id="node_expander52" style="cursor: pointer;" display="none"><path id="kity_path_461" fill="white" stroke="gray" d="M1589.0000401099514,321.5000103579621A6,6,0,1,1,1577.0000401099514,321.5000103579621A6,6,0,1,1,1589.0000401099514,321.5000103579621"></path><path id="kity_path_462" fill="none" stroke="gray"></path></g><path id="node_outline53" fill="none" stroke="none" d="M1553.500039789411,327.5000103208747h59a5,5,0,0,1,5,5v12a5,5,0,0,1,-5,5h-59a5,5,0,0,1,-5,-5v-12a5,5,0,0,1,5,-5z" stroke-width="3"></path><g id="node_text53" fill="black"><text id="kity_text_458" text-rendering="inherit" font-size="12" dy=".8em" y="332.5000103208747" x="1558.500039789411">任务编排</text></g></g><g id="minder_node56"><g id="node_expander55" style="cursor: pointer;" display="none"><path id="kity_path_485" fill="white" stroke="gray" d="M1710.0000421444565,321.5000103579621A6,6,0,1,1,1698.0000421444565,321.5000103579621A6,6,0,1,1,1710.0000421444565,321.5000103579621"></path><path id="kity_path_486" fill="none" stroke="gray"></path></g><path id="node_outline56" fill="none" stroke="none" d="M1662.500042099422,327.5000103208747h83a5,5,0,0,1,5,5v12a5,5,0,0,1,-5,5h-83a5,5,0,0,1,-5,-5v-12a5,5,0,0,1,5,-5z" stroke-width="3"></path><g id="node_text56" fill="black"><text id="kity_text_482" text-rendering="inherit" font-size="12" dy=".8em" y="332.5000103208747" x="1667.500042099422">程序逻辑优化</text></g></g><g id="minder_node50"><g id="node_expander49" style="cursor: pointer;"><path id="kity_path_437" fill="white" stroke="gray" d="M1601.0000403642648,269.5000092559385A6,6,0,1,1,1589.0000403642648,269.5000092559385A6,6,0,1,1,1601.0000403642648,269.5000092559385"></path><path id="kity_path_438" fill="none" stroke="gray" d="M1590.5000403642648,269.5000092559385L1599.5000403642648,269.5000092559385"></path></g><path id="node_outline50" fill="none" stroke="none" d="M1565.5000400437243,275.5000092188511h59a5,5,0,0,1,5,5v12a5,5,0,0,1,-5,5h-59a5,5,0,0,1,-5,-5v-12a5,5,0,0,1,5,-5z" stroke-width="3"></path><g id="node_text50" fill="black"><text id="kity_text_434" text-rendering="inherit" font-size="12" dy=".8em" y="280.5000092188511" x="1570.5000400437243">应对方案</text></g></g><g id="minder_node49"><g id="node_expander48" style="cursor: pointer;"><path id="kity_path_429" fill="white" stroke="gray" d="M1600.5000405523506,217.5000081539149A6,6,0,1,1,1588.5000405523506,217.5000081539149A6,6,0,1,1,1600.5000405523506,217.5000081539149"></path><path id="kity_path_430" fill="none" stroke="gray" d="M1590.0000405523506,217.5000081539149L1599.0000405523506,217.5000081539149"></path></g><path id="node_outline49" fill="none" stroke="none" d="M1557.5000398741822,223.50000811682753h74a5,5,0,0,1,5,5v12a5,5,0,0,1,-5,5h-74a5,5,0,0,1,-5,-5v-12a5,5,0,0,1,5,-5z" stroke-width="3"></path><g id="node_text49" fill="black"><text id="kity_text_426" text-rendering="inherit" font-size="12" dy=".8em" y="228.50000811682753" x="1562.5000398741822">延迟/确定性</text></g></g><g id="minder_node58" opacity="1"><g id="node_expander57" style="cursor: pointer;"><path id="kity_path_517" fill="white" stroke="gray" d="M1251.0000329467982,165.50000705189134A6,6,0,1,1,1239.0000329467982,165.50000705189134A6,6,0,1,1,1251.0000329467982,165.50000705189134"></path><path id="kity_path_518" fill="none" stroke="gray" d="M1240.5000329467982,165.50000705189134L1249.5000329467982,165.50000705189134"></path></g><path id="node_outline58" fill="none" stroke="none" d="M1215.5000326262577,171.50000701480397h59a5,5,0,0,1,5,5v12a5,5,0,0,1,-5,5h-59a5,5,0,0,1,-5,-5v-12a5,5,0,0,1,5,-5z" stroke-width="3"></path><g id="node_text58" fill="black"><text id="kity_text_514" text-rendering="inherit" font-size="12" dy=".8em" y="176.50000701480397" x="1220.5000326262577">技术分类</text></g></g><g id="kity_g_12" display="none"><path id="kity_path_13" fill="none" stroke="rgb(66, 94, 112)" d="M1092.5000276671517,223.50000400543183h83a5,5,0,0,1,5,5v12a5,5,0,0,1,-5,5h-83a5,5,0,0,1,-5,-5v-12a5,5,0,0,1,5,-5z" stroke-width="5"></path></g></g></g></svg>