<svg id="kity_svg_6" xmlns="http://www.w3.org/2000/svg" xmlns:xlink="http://www.w3.org/1999/xlink" version="1.1" width="2896" height="577" style="background: rgb(251, 251, 251); visibility: visible;" viewBox="0 0 2896 577"><defs id="kity_defs_7"><linearGradient id="kity_linearGradient_17" x1="0" y1="0" x2="0" y2="1"><stop id="kity_stop_18" offset="0" stop-color="rgb(255, 255, 255)"></stop><stop id="kity_stop_19" offset="1" stop-color="rgb(204, 204, 204)"></stop></linearGradient><marker id="kity_marker_2" orient="auto" refX="6" refY="0" viewBox="-7 -7 14 14" markerWidth="7" markerHeight="7" markerUnits="userSpaceOnUse"><path id="kity_path_3" fill="rgb(115, 161, 191)" stroke="none" d="M6,0A6,6,0,1,1,-6,0A6,6,0,1,1,6,0"></path></marker></defs><g id="kity_g_8"><g id="minder1" text-rendering="optimize-speed"><g id="minder_connect_group1"><path id="kity_path_32" fill="none" stroke="rgb(115, 161, 191)" stroke-width="1" d="M1822.4999885823954,59.50000011126198v30h-556.5V109.50000011126198"></path><path id="kity_path_72" fill="none" stroke="rgb(115, 161, 191)" stroke-width="1" d="M1265.4999885823954,192.50000011126198v15h-446.5V222.50000011126198"></path><path id="kity_path_80" fill="none" stroke="rgb(115, 161, 191)" stroke-width="1" d="M1265.4999885823954,192.50000011126198v15h423.5V222.50000011126198"></path><path id="kity_path_136" fill="none" stroke="rgb(115, 161, 191)" stroke-width="1" d="M1265.4999885823954,135.50000011126198v20h0V170.50000011126198"></path><path id="kity_path_144" fill="none" stroke="rgb(115, 161, 191)" stroke-width="1" d="M1689.4999885823954,244.50000011126198v15h0V274.500000111262"></path><path id="kity_path_232" fill="none" stroke="rgb(115, 161, 191)" stroke-width="1" d="M819.4999885823954,244.50000011126198v15h0.5V274.500000111262"></path><path id="kity_path_312" fill="none" stroke="rgb(115, 161, 191)" stroke-width="1" d="M1822.4999885823954,59.50000011126198v30h556.5V109.50000011126198"></path><path id="kity_path_416" fill="none" stroke="rgb(115, 161, 191)" stroke-width="1" d="M2378.4999885823954,135.50000011126198v20h285.5V170.50000011126198"></path><path id="kity_path_489" fill="none" stroke="rgb(115, 161, 191)" stroke-width="1" d="M2093.4999885823954,192.50000011126198v15h-164V222.50000011126198"></path><path id="kity_path_496" fill="none" stroke="rgb(115, 161, 191)" stroke-width="1" d="M1689.4999885823954,296.500000111262v15h-87.5V326.500000111262"></path><path id="kity_path_497" fill="none" stroke="rgb(115, 161, 191)" stroke-width="1" d="M1689.4999885823954,296.500000111262v15h97.5V326.500000111262"></path><path id="kity_path_499" fill="none" stroke="rgb(115, 161, 191)" stroke-width="1" d="M2093.4999885823954,192.50000011126198v15h65V222.50000011126198"></path><path id="kity_path_512" fill="none" stroke="rgb(115, 161, 191)" stroke-width="1" d="M2378.4999885823954,135.50000011126198v20h-285.5V170.50000011126198"></path><path id="kity_path_534" fill="none" stroke="rgb(115, 161, 191)" stroke-width="1" d="M2093.4999885823954,192.50000011126198v15h-55.5V222.50000011126198"></path><path id="kity_path_542" fill="none" stroke="rgb(115, 161, 191)" stroke-width="1" d="M2093.4999885823954,192.50000011126198v15h175V222.50000011126198"></path><path id="kity_path_557" fill="none" stroke="rgb(115, 161, 191)" stroke-width="1" d="M2474.4999885823954,296.500000111262v15h-108.5V326.500000111262"></path><path id="kity_path_558" fill="none" stroke="rgb(115, 161, 191)" stroke-width="1" d="M2474.4999885823954,296.500000111262v15h0V326.500000111262"></path><path id="kity_path_559" fill="none" stroke="rgb(115, 161, 191)" stroke-width="1" d="M2474.4999885823954,296.500000111262v15h109V326.500000111262"></path><path id="kity_path_560" fill="none" stroke="rgb(115, 161, 191)" stroke-width="1" d="M2474.4999885823954,244.50000011126198v15h0V274.500000111262"></path><path id="kity_path_561" fill="none" stroke="rgb(115, 161, 191)" stroke-width="1" d="M2664.4999885823954,192.50000011126198v15h-190V222.50000011126198"></path><path id="kity_path_562" fill="none" stroke="rgb(115, 161, 191)" stroke-width="1" d="M2664.4999885823954,192.50000011126198v15h14.5V222.50000011126198"></path><path id="kity_path_563" fill="none" stroke="rgb(115, 161, 191)" stroke-width="1" d="M2664.4999885823954,192.50000011126198v15h104.5V222.50000011126198"></path><path id="kity_path_565" fill="none" stroke="rgb(115, 161, 191)" stroke-width="1" d="M2664.4999885823954,192.50000011126198v15h192.5V222.50000011126198"></path><path id="kity_path_793" fill="none" stroke="rgb(115, 161, 191)" stroke-width="1" d="M819.4999885823954,296.500000111262v15h0.5V326.500000111262"></path><path id="kity_path_795" fill="none" stroke="rgb(115, 161, 191)" stroke-width="1" d="M820.4999885823954,348.500000111262v15h-577V378.500000111262"></path><path id="kity_path_797" fill="none" stroke="rgb(115, 161, 191)" stroke-width="1" d="M243.49998858239542,400.500000111262v15h0V430.500000111262"></path><path id="kity_path_799" fill="none" stroke="rgb(115, 161, 191)" stroke-width="1" d="M243.49998858239542,452.500000111262v15h-118V482.500000111262"></path><path id="kity_path_801" fill="none" stroke="rgb(115, 161, 191)" stroke-width="1" d="M243.49998858239542,452.500000111262v15h85V482.500000111262"></path><path id="kity_path_803" fill="none" stroke="rgb(115, 161, 191)" stroke-width="1" d="M820.4999885823954,348.500000111262v15h134.5V378.500000111262"></path><path id="kity_path_805" fill="none" stroke="rgb(115, 161, 191)" stroke-width="1" d="M954.4999885823954,400.500000111262v15h0.5V430.500000111262"></path><path id="kity_path_813" fill="none" stroke="rgb(115, 161, 191)" stroke-width="1" d="M955.4999885823954,452.500000111262v15h-220V482.500000111262"></path><path id="kity_path_817" fill="none" stroke="rgb(115, 161, 191)" stroke-width="1" d="M820.4999885823954,348.500000111262v15h565.5V378.500000111262"></path><path id="kity_path_897" fill="none" stroke="rgb(115, 161, 191)" stroke-width="1" d="M955.4999885823954,452.500000111262v15h170V482.500000111262"></path><path id="kity_path_912" fill="none" stroke="rgb(115, 161, 191)" stroke-width="1" d="M1125.4999885823954,504.500000111262v15h-73V534.500000111262"></path><path id="kity_path_913" fill="none" stroke="rgb(115, 161, 191)" stroke-width="1" d="M1125.4999885823954,504.500000111262v15h68.5V534.500000111262"></path><path id="kity_path_915" fill="none" stroke="rgb(115, 161, 191)" stroke-width="1" d="M735.4999885823954,504.500000111262v15h-23.5V534.500000111262"></path><path id="kity_path_923" fill="none" stroke="rgb(115, 161, 191)" stroke-width="1" d="M735.4999885823954,504.500000111262v15h-174.5V534.500000111262"></path><path id="kity_path_931" fill="none" stroke="rgb(115, 161, 191)" stroke-width="1" d="M735.4999885823954,504.500000111262v15h111V534.500000111262"></path><path id="kity_path_939" fill="none" stroke="rgb(115, 161, 191)" stroke-width="1" d="M735.4999885823954,504.500000111262v15h208.5V534.500000111262"></path><path id="kity_path_947" fill="none" stroke="rgb(115, 161, 191)" stroke-width="1" d="M243.49998858239542,452.500000111262v15h203.5V482.500000111262"></path></g><g id="minder_node1"><path id="kity_path_30" fill="rgba(0, 0, 0, .25)" stroke="none" d="M1795.4999885823954,17.500000111261983h116a27,27,0,0,1,27,27v0a27,27,0,0,1,-27,27h-116a27,27,0,0,1,-27,-27v0a27,27,0,0,1,27,-27z" display="none"></path><path id="node_outline1" fill="rgb(115, 161, 191)" stroke="rgb(115, 161, 191)" d="M1770.4999885823954,19.500000111261983h103a5,5,0,0,1,5,5v30a5,5,0,0,1,-5,5h-103a5,5,0,0,1,-5,-5v-30a5,5,0,0,1,5,-5z" stroke-width="3"></path><g id="node_text1" fill="white"><text id="kity_text_22" text-rendering="inherit" font-size="16" dy=".8em" y="31.500000111261983" x="1789.4999885823954">系统安全</text></g></g><g id="kity_g_14" display="none"><path id="kity_path_15" fill="rgba(0, 92, 153, 0.5)" stroke="none" d="M636.4999885823954,586.500000111262h20v22h-20z"></path><path id="kity_path_16" fill="none" stroke="rgb(0, 76, 128)" d="M656.4999885823954,586.500000111262L656.4999885823954,608.500000111262" stroke-width="1"></path></g><g id="minder_node2"><path id="kity_path_172" fill="rgba(0, 0, 0, .25)" stroke="none" d="M1231.4999768839912,113.50000187026117h85a10,10,0,0,1,10,10v8a10,10,0,0,1,-10,10h-85a10,10,0,0,1,-10,-10v-8a10,10,0,0,1,10,-10z" display="none"></path><g id="node_expander1" style="cursor: pointer;"><path id="kity_path_37" fill="white" stroke="gray" d="M1271.4999769475694,102.50000091658686A6,6,0,1,1,1259.4999769475694,102.50000091658686A6,6,0,1,1,1271.4999769475694,102.50000091658686"></path><path id="kity_path_38" fill="none" stroke="gray" d="M1260.9999769475694,102.50000091658686L1269.9999769475694,102.50000091658686"></path></g><path id="node_outline2" fill="rgb(238, 243, 246)" stroke="rgb(115, 161, 191)" d="M1220.4999768839912,109.50000187026117h90a3,3,0,0,1,3,3v20a3,3,0,0,1,-3,3h-90a3,3,0,0,1,-3,-3v-20a3,3,0,0,1,3,-3z" stroke-width="1"></path><g id="node_text2" fill="black"><text id="kity_text_34" text-rendering="inherit" font-size="14" dy=".8em" y="115.50000187026117" x="1237.4999768839912">功能安全</text></g></g><g id="minder_node7" opacity="1"><g id="node_expander6" style="cursor: pointer;"><path id="kity_path_77" fill="white" stroke="gray" d="M824.9999700678694,216.50000425974508A6,6,0,1,1,812.9999700678694,216.50000425974508A6,6,0,1,1,824.9999700678694,216.50000425974508"></path><path id="kity_path_78" fill="none" stroke="gray" d="M814.4999700678694,216.50000425974508L823.4999700678694,216.50000425974508"></path></g><path id="node_outline7" fill="none" stroke="none" d="M768.4999670505498,222.5000042226577h101a5,5,0,0,1,5,5v12a5,5,0,0,1,-5,5h-101a5,5,0,0,1,-5,-5v-12a5,5,0,0,1,5,-5z" stroke-width="3"></path><g id="node_text7" fill="black"><text id="kity_text_74" text-rendering="inherit" font-size="12" dy=".8em" y="227.5000042226577" x="773.4999670505498">狭义: 安全子系统</text></g></g><g id="minder_node8" opacity="1"><g id="node_expander7" style="cursor: pointer;"><path id="kity_path_85" fill="white" stroke="gray" d="M1694.9999857240216,216.50000425974508A6,6,0,1,1,1682.9999857240216,216.50000425974508A6,6,0,1,1,1694.9999857240216,216.50000425974508"></path><path id="kity_path_86" fill="none" stroke="gray" d="M1684.4999857240216,216.50000425974508L1693.4999857240216,216.50000425974508"></path></g><path id="node_outline8" fill="none" stroke="none" d="M1615.4999850008187,222.5000042226577h147a5,5,0,0,1,5,5v12a5,5,0,0,1,-5,5h-147a5,5,0,0,1,-5,-5v-12a5,5,0,0,1,5,-5z" stroke-width="3"></path><g id="node_text8" fill="black"><text id="kity_text_82" text-rendering="inherit" font-size="12" dy=".8em" y="227.5000042226577" x="1620.4999850008187">广义:&#xa0; 安全标准/流程/设计</text></g></g><g id="minder_node15"><g id="node_expander14" style="cursor: pointer;"><path id="kity_path_141" fill="white" stroke="gray" d="M1271.4999764177503,164.50000315772147A6,6,0,1,1,1259.4999764177503,164.50000315772147A6,6,0,1,1,1271.4999764177503,164.50000315772147"></path><path id="kity_path_142" fill="none" stroke="gray" d="M1260.9999764177503,164.50000315772147L1269.9999764177503,164.50000315772147"></path></g><path id="node_outline15" fill="#4f81bd" stroke="none" d="M1236.4999769687622,170.5000031206341h58a5,5,0,0,1,5,5v12a5,5,0,0,1,-5,5h-58a5,5,0,0,1,-5,-5v-12a5,5,0,0,1,5,-5z" stroke-width="3"></path><g id="node_text15" fill="#ffffff"><text id="kity_text_138" text-rendering="inherit" font-size="12" dy=".8em" y="175.5000031206341" font-family="微软雅黑,Microsoft YaHei" x="1241.4999769687622">语义分类</text></g><g id="node_priority1" display="none"><path id="kity_path_175" fill="#840023" stroke="none" d="M1216.9999757872656,185.0000026543933c0,3.866,3.134,7,7,7h6c3.866,0,7,-3.134,7,-7V179.0000026543933H1216.9999757872656V185.0000026543933z"></path><path id="kity_path_176" fill="#FF1200" stroke="none" d="M1236.9999757872656,182.0000026543933c0,3.866,-3.134,7,-7,7H1223.9999757872656c-3.866,0,-7,-3.134,-7,-7V179.0000026543933c0,-3.866,3.134,-7,7,-7h6c3.866,0,7,3.134,7,7V182.0000026543933z" opacity="0.8"></path><text id="kity_text_177" text-rendering="geometricPrecision" x="1225.9999757766693" y="181.50000264379693" text-anchor="middle" font-style="italic" font-size="12" fill="white" dy="4">1</text></g><g id="node_progress1" display="none"><path id="kity_path_520" fill="#FFED83" stroke="none" d="M1235.9999762641028,182.00000313123047A9,9,0,1,1,1217.9999762641028,182.00000313123047A9,9,0,1,1,1235.9999762641028,182.00000313123047"></path><path id="kity_path_521" fill="#43BC00" stroke="none" d="M1226.9999762641028,182.00000313123047L1235.9999762641028,182.00000313123047A9,9,0,0,0,1226.9999762641028,173.00000313123047A9,9,0,0,0,1217.9999762641028,182.00000313123047L1226.9999762641028,182.00000313123047z"></path><path id="kity_path_522" fill="#8E8E8E" stroke="none" d="M1226.9999757872656,175.0000026543933c4.418,0,8,3.582,8,8h1c0,-5.523,-3.477,-10,-9,-10S1217.9999757872656,177.47700265439332,1217.9999757872656,183.0000026543933h1C1218.9999757872656,178.5820026543933,1222.5819757872657,175.0000026543933,1226.9999757872656,175.0000026543933z"></path><path id="kity_path_524" fill="#EEE" stroke="none" d="M1242.8119762641027,189.89600313123046l-6.75,6.75l-4.5,-4.5L1233.2499762641028,190.45900313123047l2.812,2.803l5.062,-5.053L1242.8119762641027,189.89600313123046z" display="none"></path><path id="kity_path_523" fill="url(#kity_linearGradient_17)" stroke="none" d="M1226.9999757872656,172.0000026543933C1221.4769757872657,172.0000026543933,1216.9999757872656,176.47700265439332,1216.9999757872656,182.0000026543933c0,5.523,4.477,10,10,10s10,-4.477,10,-10C1236.9999757872656,176.47700265439332,1232.5229757872655,172.0000026543933,1226.9999757872656,172.0000026543933zM1226.9999757872656,190.0000026543933c-4.418,0,-8,-3.582,-8,-8s3.582,-8,8,-8s8,3.582,8,8S1231.4179757872655,190.0000026543933,1226.9999757872656,190.0000026543933z"></path></g></g><g id="minder_node16" opacity="1"><g id="node_expander15" style="cursor: pointer;"><path id="kity_path_149" fill="white" stroke="gray" d="M1694.9999862538407,268.5000053617687A6,6,0,1,1,1682.9999862538407,268.5000053617687A6,6,0,1,1,1694.9999862538407,268.5000053617687"></path><path id="kity_path_150" fill="none" stroke="gray" d="M1684.4999862538407,268.5000053617687L1693.4999862538407,268.5000053617687"></path></g><path id="node_outline16" fill="#4f81bd" stroke="none" d="M1659.4999859333002,274.5000053246813h59a5,5,0,0,1,5,5v12a5,5,0,0,1,-5,5h-59a5,5,0,0,1,-5,-5v-12a5,5,0,0,1,5,-5z" stroke-width="3"></path><g id="node_text16" fill="#ffffff"><text id="kity_text_146" text-rendering="inherit" font-size="12" dy=".8em" y="279.5000053246813" x="1664.4999859333002">标准分类</text></g></g><g id="minder_node25" opacity="1"><g id="node_expander24" style="cursor: pointer;"><path id="kity_path_237" fill="white" stroke="gray" d="M825.4999686876909,268.5000053617687A6,6,0,1,1,813.4999686876909,268.5000053617687A6,6,0,1,1,825.4999686876909,268.5000053617687"></path><path id="kity_path_238" fill="none" stroke="gray" d="M814.9999686876909,268.5000053617687L823.9999686876909,268.5000053617687"></path></g><path id="node_outline25" fill="none" stroke="none" d="M757.4999668174296,274.5000053246813h124a5,5,0,0,1,5,5v12a5,5,0,0,1,-5,5h-124a5,5,0,0,1,-5,-5v-12a5,5,0,0,1,5,-5z" stroke-width="3"></path><g id="node_text25" fill="black"><text id="kity_text_234" text-rendering="inherit" font-size="12" dy=".8em" y="279.5000053246813" x="762.4999668174296">Fault Tolerance(容错)</text></g></g><g id="minder_node35" opacity="1"><g id="node_expander34" style="cursor: pointer;"><path id="kity_path_317" fill="white" stroke="gray" d="M2384.500000535113,102.50000091658686A6,6,0,1,1,2372.500000535113,102.50000091658686A6,6,0,1,1,2384.500000535113,102.50000091658686"></path><path id="kity_path_318" fill="none" stroke="gray" d="M2374.000000535113,102.50000091658686L2383.000000535113,102.50000091658686"></path></g><path id="node_outline35" fill="rgb(238, 243, 246)" stroke="rgb(115, 161, 191)" d="M2333.500000471535,109.50000187026117h90a3,3,0,0,1,3,3v20a3,3,0,0,1,-3,3h-90a3,3,0,0,1,-3,-3v-20a3,3,0,0,1,3,-3z" stroke-width="1"></path><g id="node_text35" fill="black"><text id="kity_text_314" text-rendering="inherit" font-size="14" dy=".8em" y="115.50000187026117" x="2350.500000471535">技术安全</text></g></g><g id="minder_node48" opacity="1"><g id="node_expander47" style="cursor: pointer;"><path id="kity_path_421" fill="white" stroke="gray" d="M2670.000006916783,164.50000315772147A6,6,0,1,1,2658.000006916783,164.50000315772147A6,6,0,1,1,2670.000006916783,164.50000315772147"></path><path id="kity_path_422" fill="none" stroke="gray" d="M2659.500006916783,164.50000315772147L2668.500006916783,164.50000315772147"></path></g><path id="node_outline48" fill="#4f81bd" stroke="none" d="M2634.5000065962427,170.5000031206341h59a5,5,0,0,1,5,5v12a5,5,0,0,1,-5,5h-59a5,5,0,0,1,-5,-5v-12a5,5,0,0,1,5,-5z" stroke-width="3"></path><g id="node_text48" fill="#ffffff"><text id="kity_text_418" text-rendering="inherit" font-size="12" dy=".8em" y="175.5000031206341" x="2639.5000065962427">指标优化</text></g></g><g id="minder_node54" opacity="1"><g id="node_expander53" style="cursor: pointer;" display="none"><path id="kity_path_469" fill="white" stroke="gray" d="M1934.9999913401034,216.50000425974508A6,6,0,1,1,1922.9999913401034,216.50000425974508A6,6,0,1,1,1934.9999913401034,216.50000425974508"></path><path id="kity_path_470" fill="none" stroke="gray"></path></g><path id="node_outline54" fill="none" stroke="none" d="M1899.499991019563,222.5000042226577h59a5,5,0,0,1,5,5v12a5,5,0,0,1,-5,5h-59a5,5,0,0,1,-5,-5v-12a5,5,0,0,1,5,-5z" stroke-width="3"></path><g id="node_text54" fill="black"><text id="kity_text_466" text-rendering="inherit" font-size="12" dy=".8em" y="227.5000042226577" x="1904.499991019563">决策安全</text></g></g><g id="minder_node17"><g id="node_expander16" style="cursor: pointer;" display="none"><path id="kity_path_157" fill="white" stroke="gray" d="M1607.4999855253398,320.50000646379215A6,6,0,1,1,1595.4999855253398,320.50000646379215A6,6,0,1,1,1607.4999855253398,320.50000646379215"></path><path id="kity_path_158" fill="none" stroke="gray" d="M1596.9999855253398,320.50000646379215L1605.9999855253398,320.50000646379215"></path></g><path id="node_outline17" fill="none" stroke="none" d="M1529.4999831782413,326.5000064267048h144a5,5,0,0,1,5,5v12a5,5,0,0,1,-5,5h-144a5,5,0,0,1,-5,-5v-12a5,5,0,0,1,5,-5z" stroke-width="3"></path><g id="node_text17" fill="black"><text id="kity_text_154" text-rendering="inherit" font-size="12" dy=".8em" y="331.5000064267048" x="1534.4999831782413">系统故障失效(ISO26262)</text></g></g><g id="minder_node18"><g id="node_expander17" style="cursor: pointer;" display="none"><path id="kity_path_165" fill="white" stroke="gray" d="M1792.4999866644503,320.50000646379215A6,6,0,1,1,1780.4999866644503,320.50000646379215A6,6,0,1,1,1792.4999866644503,320.50000646379215"></path><path id="kity_path_166" fill="none" stroke="gray" d="M1781.9999866644503,320.50000646379215L1790.9999866644503,320.50000646379215"></path></g><path id="node_outline18" fill="none" stroke="none" d="M1723.499987289637,326.5000064267048h126a5,5,0,0,1,5,5v12a5,5,0,0,1,-5,5h-126a5,5,0,0,1,-5,-5v-12a5,5,0,0,1,5,-5z" stroke-width="3"></path><g id="node_text18" fill="black"><text id="kity_text_162" text-rendering="inherit" font-size="12" dy=".8em" y="331.5000064267048" x="1728.499987289637">预期功能安全(SOTIF)</text></g></g><g id="minder_node57" opacity="1"><g id="node_expander56" style="cursor: pointer;" display="none"><path id="kity_path_504" fill="white" stroke="gray" d="M2163.999995663427,216.50000425974508A6,6,0,1,1,2151.999995663427,216.50000425974508A6,6,0,1,1,2163.999995663427,216.50000425974508"></path><path id="kity_path_505" fill="none" stroke="gray"></path></g><path id="node_outline57" fill="none" stroke="none" d="M2116.4999956183924,222.5000042226577h83a5,5,0,0,1,5,5v12a5,5,0,0,1,-5,5h-83a5,5,0,0,1,-5,-5v-12a5,5,0,0,1,5,-5z" stroke-width="3"></path><g id="node_text57" fill="black"><text id="kity_text_501" text-rendering="inherit" font-size="12" dy=".8em" y="227.5000042226577" x="2121.4999956183924">物理碰撞安全</text></g></g><g id="minder_node58" opacity="1"><g id="node_expander57" style="cursor: pointer;"><path id="kity_path_517" fill="white" stroke="gray" d="M2098.9999948157165,164.50000315772147A6,6,0,1,1,2086.9999948157165,164.50000315772147A6,6,0,1,1,2098.9999948157165,164.50000315772147"></path><path id="kity_path_518" fill="none" stroke="gray" d="M2088.4999948157165,164.50000315772147L2097.4999948157165,164.50000315772147"></path></g><path id="node_outline58" fill="#4f81bd" stroke="none" d="M2063.499994495176,170.5000031206341h59a5,5,0,0,1,5,5v12a5,5,0,0,1,-5,5h-59a5,5,0,0,1,-5,-5v-12a5,5,0,0,1,5,-5z" stroke-width="3"></path><g id="node_text58" fill="#ffffff"><text id="kity_text_514" text-rendering="inherit" font-size="12" dy=".8em" y="175.5000031206341" x="2068.499994495176">技术分类</text></g></g><g id="minder_node60"><g id="node_expander59" style="cursor: pointer;" display="none"><path id="kity_path_539" fill="white" stroke="gray" d="M2043.499992778562,216.50000425974508A6,6,0,1,1,2031.499992778562,216.50000425974508A6,6,0,1,1,2043.499992778562,216.50000425974508"></path><path id="kity_path_540" fill="none" stroke="gray" d="M2032.999992778562,216.50000425974508L2041.999992778562,216.50000425974508"></path></g><path id="node_outline60" fill="none" stroke="none" d="M2008.499993329574,222.5000042226577h58a5,5,0,0,1,5,5v12a5,5,0,0,1,-5,5h-58a5,5,0,0,1,-5,-5v-12a5,5,0,0,1,5,-5z" stroke-width="3"></path><g id="node_text60" fill="black"><text id="kity_text_536" text-rendering="inherit" font-size="12" dy=".8em" y="227.5000042226577" x="2013.499993329574">交互安全</text></g></g><g id="minder_node61"><g id="node_expander60" style="cursor: pointer;" display="none"><path id="kity_path_547" fill="white" stroke="gray" d="M2273.9999986569046,216.50000293519733A6,6,0,1,1,2261.9999986569046,216.50000293519733A6,6,0,1,1,2273.9999986569046,216.50000293519733"></path><path id="kity_path_548" fill="none" stroke="gray"></path></g><path id="node_outline61" fill="none" stroke="none" d="M2249.4999984370297,222.5000042650432h37a5,5,0,0,1,5,5v16a5,5,0,0,1,-5,5h-37a5,5,0,0,1,-5,-5v-16a5,5,0,0,1,5,-5z" stroke-width="3"></path><g id="node_text61" fill="black"><text id="kity_text_544" text-rendering="inherit" font-size="16" dy=".8em" y="227.5000042650432" x="2254.4999984370297">......</text></g></g><g id="minder_node52" opacity="1"><g id="node_expander51" style="cursor: pointer;" display="none"><path id="kity_path_453" fill="white" stroke="gray" d="M2371.4999997297878,320.50000646379215A6,6,0,1,1,2359.4999997297878,320.50000646379215A6,6,0,1,1,2371.4999997297878,320.50000646379215"></path><path id="kity_path_454" fill="none" stroke="gray"></path></g><path id="node_outline52" fill="none" stroke="none" d="M2336.5000002807997,326.5000064267048h58a5,5,0,0,1,5,5v12a5,5,0,0,1,-5,5h-58a5,5,0,0,1,-5,-5v-12a5,5,0,0,1,5,-5z" stroke-width="3"></path><g id="node_text52" fill="black"><text id="kity_text_450" text-rendering="inherit" font-size="12" dy=".8em" y="331.5000064267048" x="2341.5000002807997">实时系统</text></g></g><g id="minder_node53"><g id="node_expander52" style="cursor: pointer;" display="none"><path id="kity_path_461" fill="white" stroke="gray" d="M2480.0000028901586,320.50000646379215A6,6,0,1,1,2468.0000028901586,320.50000646379215A6,6,0,1,1,2480.0000028901586,320.50000646379215"></path><path id="kity_path_462" fill="none" stroke="gray"></path></g><path id="node_outline53" fill="none" stroke="none" d="M2444.500002569618,326.5000064267048h59a5,5,0,0,1,5,5v12a5,5,0,0,1,-5,5h-59a5,5,0,0,1,-5,-5v-12a5,5,0,0,1,5,-5z" stroke-width="3"></path><g id="node_text53" fill="black"><text id="kity_text_458" text-rendering="inherit" font-size="12" dy=".8em" y="331.5000064267048" x="2449.500002569618">任务编排</text></g></g><g id="minder_node56"><g id="node_expander55" style="cursor: pointer;" display="none"><path id="kity_path_485" fill="white" stroke="gray" d="M2589.0000052001697,320.50000646379215A6,6,0,1,1,2577.0000052001697,320.50000646379215A6,6,0,1,1,2589.0000052001697,320.50000646379215"></path><path id="kity_path_486" fill="none" stroke="gray"></path></g><path id="node_outline56" fill="none" stroke="none" d="M2553.500004879629,326.5000064267048h59a5,5,0,0,1,5,5v12a5,5,0,0,1,-5,5h-59a5,5,0,0,1,-5,-5v-12a5,5,0,0,1,5,-5z" stroke-width="3"></path><g id="node_text56" fill="black"><text id="kity_text_482" text-rendering="inherit" font-size="12" dy=".8em" y="331.5000064267048" x="2558.500004879629">程序逻辑</text></g></g><g id="minder_node50"><g id="node_expander49" style="cursor: pointer;"><path id="kity_path_437" fill="white" stroke="gray" d="M2480.0000028901586,268.5000053617687A6,6,0,1,1,2468.0000028901586,268.5000053617687A6,6,0,1,1,2480.0000028901586,268.5000053617687"></path><path id="kity_path_438" fill="none" stroke="gray" d="M2469.5000028901586,268.5000053617687L2478.5000028901586,268.5000053617687"></path></g><path id="node_outline50" fill="#4bacc6" stroke="none" d="M2444.500002569618,274.5000053246813h59a5,5,0,0,1,5,5v12a5,5,0,0,1,-5,5h-59a5,5,0,0,1,-5,-5v-12a5,5,0,0,1,5,-5z" stroke-width="3"></path><g id="node_text50" fill="#ffffff"><text id="kity_text_434" text-rendering="inherit" font-size="12" dy=".8em" y="279.5000053246813" x="2449.500002569618">应对方案</text></g></g><g id="minder_node49"><g id="node_expander48" style="cursor: pointer;"><path id="kity_path_429" fill="white" stroke="gray" d="M2480.0000034199775,216.50000425974508A6,6,0,1,1,2468.0000034199775,216.50000425974508A6,6,0,1,1,2480.0000034199775,216.50000425974508"></path><path id="kity_path_430" fill="none" stroke="gray" d="M2469.5000034199775,216.50000425974508L2478.5000034199775,216.50000425974508"></path></g><path id="node_outline49" fill="none" stroke="none" d="M2456.500002823931,222.5000042226577h35a5,5,0,0,1,5,5v12a5,5,0,0,1,-5,5h-35a5,5,0,0,1,-5,-5v-12a5,5,0,0,1,5,-5z" stroke-width="3"></path><g id="node_text49" fill="black"><text id="kity_text_426" text-rendering="inherit" font-size="12" dy=".8em" y="227.5000042226577" x="2461.500002823931">延迟</text></g></g><g id="minder_node59"><g id="node_expander58" style="cursor: pointer;" display="none"><path id="kity_path_531" fill="white" stroke="gray" d="M2684.500006892941,216.50000425974508A6,6,0,1,1,2672.500006892941,216.50000425974508A6,6,0,1,1,2684.500006892941,216.50000425974508"></path><path id="kity_path_532" fill="none" stroke="gray"></path></g><path id="node_outline59" fill="none" stroke="none" d="M2661.500007168447,222.5000042226577h34a5,5,0,0,1,5,5v12a5,5,0,0,1,-5,5h-34a5,5,0,0,1,-5,-5v-12a5,5,0,0,1,5,-5z" stroke-width="3"></path><g id="node_text59" fill="black"><text id="kity_text_528" text-rendering="inherit" font-size="12" dy=".8em" y="227.5000042226577" x="2666.500007168447">盲区</text></g></g><g id="minder_node62"><g id="node_expander61" style="cursor: pointer;" display="none"><path id="kity_path_555" fill="white" stroke="gray" d="M2774.5000085353804,216.50000425974508A6,6,0,1,1,2762.5000085353804,216.50000425974508A6,6,0,1,1,2774.5000085353804,216.50000425974508"></path><path id="kity_path_556" fill="none" stroke="gray"></path></g><path id="node_outline62" fill="none" stroke="none" d="M2745.5000089486393,222.5000042226577h46a5,5,0,0,1,5,5v12a5,5,0,0,1,-5,5h-46a5,5,0,0,1,-5,-5v-12a5,5,0,0,1,5,-5z" stroke-width="3"></path><g id="node_text62" fill="black"><text id="kity_text_552" text-rendering="inherit" font-size="12" dy=".8em" y="227.5000042226577" x="2750.5000089486393">准确率</text></g></g><g id="minder_node63"><g id="node_expander62" style="cursor: pointer;" display="none"><path id="kity_path_570" fill="white" stroke="gray" d="M2862.5000114599816,216.50000425974508A6,6,0,1,1,2850.5000114599816,216.50000425974508A6,6,0,1,1,2862.5000114599816,216.50000425974508"></path><path id="kity_path_571" fill="none" stroke="gray"></path></g><path id="node_outline63" fill="none" stroke="none" d="M2841.5000109831444,222.5000042226577h30a5,5,0,0,1,5,5v12a5,5,0,0,1,-5,5h-30a5,5,0,0,1,-5,-5v-12a5,5,0,0,1,5,-5z" stroke-width="3"></path><g id="node_text63" fill="black"><text id="kity_text_567" text-rendering="inherit" font-size="12" dy=".8em" y="227.5000042226577" x="2846.5000109831444">......</text></g></g><g id="minder_node90"><g id="node_expander101" style="cursor: pointer;"><path id="kity_path_894" fill="white" stroke="gray" d="M825.999967837331,320.50000646379215A6,6,0,1,1,813.999967837331,320.50000646379215A6,6,0,1,1,825.999967837331,320.50000646379215"></path><path id="kity_path_895" fill="none" stroke="gray" d="M815.499967837331,320.50000646379215L824.499967837331,320.50000646379215"></path></g><path id="node_outline102" fill="#4f81bd" stroke="none" d="M790.4999675167905,326.5000064267048h59a5,5,0,0,1,5,5v12a5,5,0,0,1,-5,5h-59a5,5,0,0,1,-5,-5v-12a5,5,0,0,1,5,-5z" stroke-width="3"></path><g id="node_text102" fill="#ffffff"><text id="kity_text_843" text-rendering="inherit" font-size="12" dy=".8em" y="331.5000064267048" x="795.4999675167905">错误分类</text></g></g><g id="minder_node91"><g id="node_expander92" style="cursor: pointer;"><path id="kity_path_867" fill="white" stroke="gray" d="M248.999959582751,372.50000756581585A6,6,0,1,1,236.999959582751,372.50000756581585A6,6,0,1,1,248.999959582751,372.50000756581585"></path><path id="kity_path_868" fill="none" stroke="gray" d="M238.499959582751,372.50000756581585L247.499959582751,372.50000756581585"></path></g><path id="node_outline93" fill="none" stroke="none" d="M159.4999541441582,378.5000075287285h167a5,5,0,0,1,5,5v12a5,5,0,0,1,-5,5h-167a5,5,0,0,1,-5,-5v-12a5,5,0,0,1,5,-5z"></path><g id="node_text93" fill="black"><text id="kity_text_825" text-rendering="inherit" font-size="12" dy=".8em" y="383.5000075287285" x="164.4999541441582">Byzantine Faults(拜占庭错误)</text></g></g><g id="minder_node92"><g id="node_expander91" style="cursor: pointer;"><path id="kity_path_864" fill="white" stroke="gray" d="M248.9999556091077,424.50000866783944A6,6,0,1,1,236.9999556091077,424.50000866783944A6,6,0,1,1,248.9999556091077,424.50000866783944"></path><path id="kity_path_865" fill="none" stroke="gray" d="M238.4999556091077,424.50000866783944L247.4999556091077,424.50000866783944"></path></g><path id="node_outline92" fill="#4bacc6" stroke="none" d="M213.4999552885672,430.50000863075206h59a5,5,0,0,1,5,5v12a5,5,0,0,1,-5,5h-59a5,5,0,0,1,-5,-5v-12a5,5,0,0,1,5,-5z" stroke-width="3"></path><g id="node_text92" fill="#ffffff"><text id="kity_text_823" text-rendering="inherit" font-size="12" dy=".8em" y="435.50000863075206" x="218.4999552885672">应对方案</text></g></g><g id="minder_node93"><g id="node_expander89" style="cursor: pointer;" display="none"><path id="kity_path_858" fill="white" stroke="gray" d="M130.99995072417596,476.500009769863A6,6,0,1,1,118.99995072417597,476.500009769863A6,6,0,1,1,130.99995072417596,476.500009769863"></path><path id="kity_path_859" fill="none" stroke="gray"></path></g><path id="node_outline90" fill="none" stroke="none" d="M25.49995130432808,482.50000973277565h199a5,5,0,0,1,5,5v12a5,5,0,0,1,-5,5h-199a5,5,0,0,1,-5,-5v-12a5,5,0,0,1,5,-5z"></path><g id="node_text90" fill="black"><text id="kity_text_819" text-rendering="inherit" font-size="12" dy=".8em" y="487.50000973277565" x="30.49995130432808">Triple/Double Modular Redundancy</text></g></g><g id="minder_node94"><g id="node_expander90" style="cursor: pointer;" display="none"><path id="kity_path_861" fill="white" stroke="gray" d="M333.9999563508545,476.500009769863A6,6,0,1,1,321.9999563508545,476.500009769863A6,6,0,1,1,333.9999563508545,476.500009769863"></path><path id="kity_path_862" fill="none" stroke="gray"></path></g><path id="node_outline91" fill="none" stroke="none" d="M274.49995658132593,482.50000973277565h107a5,5,0,0,1,5,5v12a5,5,0,0,1,-5,5h-107a5,5,0,0,1,-5,-5v-12a5,5,0,0,1,5,-5z"></path><g id="node_text91" fill="black"><text id="kity_text_821" text-rendering="inherit" font-size="12" dy=".8em" y="487.50000973277565" x="279.49995658132593">Voting/Replication</text></g></g><g id="minder_node95"><g id="node_expander99" style="cursor: pointer;"><path id="kity_path_888" fill="white" stroke="gray" d="M960.4999682373442,372.50000756581585A6,6,0,1,1,948.4999682373442,372.50000756581585A6,6,0,1,1,960.4999682373442,372.50000756581585"></path><path id="kity_path_889" fill="none" stroke="gray" d="M949.9999682373442,372.50000756581585L958.9999682373442,372.50000756581585"></path></g><path id="node_outline100" fill="none" stroke="none" d="M857.4999689367056,378.5000075287285h194a5,5,0,0,1,5,5v12a5,5,0,0,1,-5,5h-194a5,5,0,0,1,-5,-5v-12a5,5,0,0,1,5,-5z"></path><g id="node_text100" fill="black"><text id="kity_text_839" text-rendering="inherit" font-size="12" dy=".8em" y="383.5000075287285" x="862.4999689367056"> Common Mode Failures(共因失效)</text></g></g><g id="minder_node96"><g id="node_expander98" style="cursor: pointer;"><path id="kity_path_885" fill="white" stroke="gray" d="M960.9999706983539,424.50000866783944A6,6,0,1,1,948.9999706983539,424.50000866783944A6,6,0,1,1,960.9999706983539,424.50000866783944"></path><path id="kity_path_886" fill="none" stroke="gray" d="M950.4999706983539,424.50000866783944L959.4999706983539,424.50000866783944"></path></g><path id="node_outline99" fill="#4bacc6" stroke="none" d="M925.4999703778134,430.50000863075206h59a5,5,0,0,1,5,5v12a5,5,0,0,1,-5,5h-59a5,5,0,0,1,-5,-5v-12a5,5,0,0,1,5,-5z"></path><g id="node_text99" fill="#ffffff"><text id="kity_text_837" text-rendering="inherit" font-size="12" dy=".8em" y="435.50000863075206" x="930.4999703778134">应对方案</text></g></g><g id="minder_node100"><g id="node_expander97" style="cursor: pointer;"><path id="kity_path_882" fill="white" stroke="gray" d="M740.9999655061274,476.500009769863A6,6,0,1,1,728.9999655061274,476.500009769863A6,6,0,1,1,740.9999655061274,476.500009769863"></path><path id="kity_path_883" fill="none" stroke="gray" d="M730.4999655061274,476.500009769863L739.4999655061274,476.500009769863"></path></g><path id="node_outline98" fill="none" stroke="none" d="M709.499965800177,482.50000973277565h51a5,5,0,0,1,5,5v12a5,5,0,0,1,-5,5h-51a5,5,0,0,1,-5,-5v-12a5,5,0,0,1,5,-5z" stroke-width="3"></path><g id="node_text98" fill="black"><text id="kity_text_835" text-rendering="inherit" font-size="12" dy=".8em" y="487.50000973277565" x="714.499965800177">runtime</text></g></g><g id="minder_node102"><g id="node_expander100" style="cursor: pointer;" display="none"><path id="kity_path_891" fill="white" stroke="gray" d="M1391.4999824047056,372.50000756581585A6,6,0,1,1,1379.4999824047056,372.50000756581585A6,6,0,1,1,1391.4999824047056,372.50000756581585"></path><path id="kity_path_892" fill="none" stroke="gray"></path></g><path id="node_outline101" fill="none" stroke="none" d="M1290.4999781131712,378.5000075287285h190a5,5,0,0,1,5,5v12a5,5,0,0,1,-5,5h-190a5,5,0,0,1,-5,-5v-12a5,5,0,0,1,5,-5z"></path><g id="node_text101" fill="black"><text id="kity_text_841" text-rendering="inherit" font-size="12" dy=".8em" y="383.5000075287285" x="1295.4999781131712">Performance Limitation(性能限制)</text></g></g><g id="minder_node103" opacity="1"><g id="node_expander102" style="cursor: pointer;"><path id="kity_path_902" fill="white" stroke="gray" d="M1130.9999729765755,476.500009769863A6,6,0,1,1,1118.9999729765755,476.500009769863A6,6,0,1,1,1130.9999729765755,476.500009769863"></path><path id="kity_path_903" fill="none" stroke="gray" d="M1120.4999729765755,476.500009769863L1129.4999729765755,476.500009769863"></path></g><path id="node_outline103" fill="none" stroke="none" d="M1049.4999730057157,482.50000973277565h151a5,5,0,0,1,5,5v12a5,5,0,0,1,-5,5h-151a5,5,0,0,1,-5,-5v-12a5,5,0,0,1,5,-5z" stroke-width="3"></path><g id="node_text103" fill="black"><text id="kity_text_899" text-rendering="inherit" font-size="12" dy=".8em" y="487.50000973277565" x="1054.4999730057157">此处与"功能安全设计"相连</text></g></g><g id="minder_node99" opacity="1"><g id="node_expander94" style="cursor: pointer;" display="none"><path id="kity_path_873" fill="white" stroke="gray" d="M1057.999971429504,528.5000108718867A6,6,0,1,1,1045.999971429504,528.5000108718867A6,6,0,1,1,1057.999971429504,528.5000108718867"></path><path id="kity_path_874" fill="none" stroke="gray"></path></g><path id="node_outline95" fill="none" stroke="none" d="M1008.4999721368125,534.5000108347994h87a5,5,0,0,1,5,5v12a5,5,0,0,1,-5,5h-87a5,5,0,0,1,-5,-5v-12a5,5,0,0,1,5,-5z" stroke-width="3"></path><g id="node_text95" fill="black"><text id="kity_text_829" text-rendering="inherit" font-size="12" dy=".8em" y="539.5000108347994" x="1013.4999721368125">Fault Removal</text></g></g><g id="minder_node98" opacity="1"><g id="node_expander93" style="cursor: pointer;" display="none"><path id="kity_path_870" fill="white" stroke="gray" d="M1199.4999779383313,528.5000108718867A6,6,0,1,1,1187.4999779383313,528.5000108718867A6,6,0,1,1,1199.4999779383313,528.5000108718867"></path><path id="kity_path_871" fill="none" stroke="gray"></path></g><path id="node_outline94" fill="none" stroke="none" d="M1145.499975040221,534.5000108347994h96a5,5,0,0,1,5,5v12a5,5,0,0,1,-5,5h-96a5,5,0,0,1,-5,-5v-12a5,5,0,0,1,5,-5z" stroke-width="3"></path><g id="node_text94" fill="black"><text id="kity_text_827" text-rendering="inherit" font-size="12" dy=".8em" y="539.5000108347994" x="1150.499975040221">Fault Avoidance</text></g></g><g id="minder_node105" opacity="1"><g id="node_expander104" style="cursor: pointer;" display="none"><path id="kity_path_920" fill="white" stroke="gray" d="M717.499966133963,528.5000108718867A6,6,0,1,1,705.499966133963,528.5000108718867A6,6,0,1,1,717.499966133963,528.5000108718867"></path><path id="kity_path_921" fill="none" stroke="gray"></path></g><path id="node_outline105" fill="none" stroke="none" d="M659.4999647405389,534.5000108347994h104a5,5,0,0,1,5,5v12a5,5,0,0,1,-5,5h-104a5,5,0,0,1,-5,-5v-12a5,5,0,0,1,5,-5z" stroke-width="3"></path><g id="node_text105" fill="black"><text id="kity_text_917" text-rendering="inherit" font-size="12" dy=".8em" y="539.5000108347994" x="664.4999647405389">Watchdog Timers</text></g></g><g id="minder_node106" opacity="1"><g id="node_expander105" style="cursor: pointer;" display="none"><path id="kity_path_928" fill="white" stroke="gray" d="M566.4999620066724,528.5000108718867A6,6,0,1,1,554.4999620066724,528.5000108718867A6,6,0,1,1,566.4999620066724,528.5000108718867"></path><path id="kity_path_929" fill="none" stroke="gray"></path></g><path id="node_outline106" fill="none" stroke="none" d="M511.49996160400997,534.5000108347994h98a5,5,0,0,1,5,5v12a5,5,0,0,1,-5,5h-98a5,5,0,0,1,-5,-5v-12a5,5,0,0,1,5,-5z" stroke-width="3"></path><g id="node_text106" fill="black"><text id="kity_text_925" text-rendering="inherit" font-size="12" dy=".8em" y="539.5000108347994" x="516.49996160401">Runtime Checks</text></g></g><g id="minder_node107" opacity="1"><g id="node_expander106" style="cursor: pointer;" display="none"><path id="kity_path_936" fill="white" stroke="gray" d="M851.9999693155263,528.5000108718867A6,6,0,1,1,839.9999693155263,528.5000108718867A6,6,0,1,1,851.9999693155263,528.5000108718867"></path><path id="kity_path_937" fill="none" stroke="gray"></path></g><path id="node_outline107" fill="none" stroke="none" d="M813.4999680042241,534.5000108347994h65a5,5,0,0,1,5,5v12a5,5,0,0,1,-5,5h-65a5,5,0,0,1,-5,-5v-12a5,5,0,0,1,5,-5z" stroke-width="3"></path><g id="node_text107" fill="black"><text id="kity_text_933" text-rendering="inherit" font-size="12" dy=".8em" y="539.5000108347994" x="818.4999680042241">Restarting</text></g></g><g id="minder_node108" opacity="1"><g id="node_expander107" style="cursor: pointer;" display="none"><path id="kity_path_944" fill="white" stroke="gray" d="M949.4999709182288,528.5000108718867A6,6,0,1,1,937.4999709182288,528.5000108718867A6,6,0,1,1,949.4999709182288,528.5000108718867"></path><path id="kity_path_945" fill="none" stroke="gray"></path></g><path id="node_outline108" fill="none" stroke="none" d="M928.4999704413916,534.5000108347994h30a5,5,0,0,1,5,5v12a5,5,0,0,1,-5,5h-30a5,5,0,0,1,-5,-5v-12a5,5,0,0,1,5,-5z" stroke-width="3"></path><g id="node_text108" fill="black"><text id="kity_text_941" text-rendering="inherit" font-size="12" dy=".8em" y="539.5000108347994" x="933.4999704413916">......</text></g></g><g id="minder_node109"><g id="node_expander108" style="cursor: pointer;" display="none"><path id="kity_path_952" fill="white" stroke="gray" d="M452.4999603854262,476.500009769863A6,6,0,1,1,440.4999603854262,476.500009769863A6,6,0,1,1,452.4999603854262,476.500009769863"></path><path id="kity_path_953" fill="none" stroke="gray"></path></g><path id="node_outline109" fill="none" stroke="none" d="M431.49995990858906,482.50000973277565h30a5,5,0,0,1,5,5v12a5,5,0,0,1,-5,5h-30a5,5,0,0,1,-5,-5v-12a5,5,0,0,1,5,-5z" stroke-width="3"></path><g id="node_text109" fill="black"><text id="kity_text_949" text-rendering="inherit" font-size="12" dy=".8em" y="487.50000973277565" x="436.49995990858906">......</text></g></g><g id="kity_g_12" display="none"><path id="kity_path_13" fill="none" stroke="rgb(66, 94, 112)" d="M685.4999885823954,482.500000111262h51a5,5,0,0,1,5,5v12a5,5,0,0,1,-5,5h-51a5,5,0,0,1,-5,-5v-12a5,5,0,0,1,5,-5z" stroke-width="5"></path></g></g></g></svg>