<svg id="kity_svg_6" xmlns="http://www.w3.org/2000/svg" xmlns:xlink="http://www.w3.org/1999/xlink" version="1.1" width="2904" height="577" style="background: rgb(251, 251, 251); visibility: visible;" viewBox="0 0 2904 577"><defs id="kity_defs_7"><linearGradient id="kity_linearGradient_17" x1="0" y1="0" x2="0" y2="1"><stop id="kity_stop_18" offset="0" stop-color="rgb(255, 255, 255)"></stop><stop id="kity_stop_19" offset="1" stop-color="rgb(204, 204, 204)"></stop></linearGradient><marker id="kity_marker_2" orient="auto" refX="6" refY="0" viewBox="-7 -7 14 14" markerWidth="7" markerHeight="7" markerUnits="userSpaceOnUse"><path id="kity_path_3" fill="rgb(115, 161, 191)" stroke="none" d="M6,0A6,6,0,1,1,-6,0A6,6,0,1,1,6,0"></path></marker></defs><g id="kity_g_8"><g id="minder1" text-rendering="optimize-speed"><g id="minder_connect_group1"><path id="kity_path_31" fill="none" stroke="rgb(115, 161, 191)" stroke-width="1" d="M1828.500005266399,59.500000211927585v30h-557.5V109.50000021192758"></path><path id="kity_path_33" fill="none" stroke="rgb(115, 161, 191)" stroke-width="1" d="M1270.500005266399,135.50000021192758v20h0V170.50000021192758"></path><path id="kity_path_35" fill="none" stroke="rgb(115, 161, 191)" stroke-width="1" d="M1270.500005266399,192.50000021192758v15h-447.5V222.50000021192758"></path><path id="kity_path_37" fill="none" stroke="rgb(115, 161, 191)" stroke-width="1" d="M823.5000052663991,244.50000021192758v15h0.5V274.5000002119276"></path><path id="kity_path_39" fill="none" stroke="rgb(115, 161, 191)" stroke-width="1" d="M823.5000052663991,296.5000002119276v15h0.5V326.5000002119276"></path><path id="kity_path_41" fill="none" stroke="rgb(115, 161, 191)" stroke-width="1" d="M824.5000052663991,348.5000002119276v15h-579V378.5000002119276"></path><path id="kity_path_43" fill="none" stroke="rgb(115, 161, 191)" stroke-width="1" d="M245.50000526639906,400.5000002119276v15h0V430.5000002119276"></path><path id="kity_path_45" fill="none" stroke="rgb(115, 161, 191)" stroke-width="1" d="M245.50000526639906,452.5000002119276v15h-141.5V482.5000002119276"></path><path id="kity_path_47" fill="none" stroke="rgb(115, 161, 191)" stroke-width="1" d="M245.50000526639906,452.5000002119276v15h64V482.5000002119276"></path><path id="kity_path_49" fill="none" stroke="rgb(115, 161, 191)" stroke-width="1" d="M245.50000526639906,452.5000002119276v15h205.5V482.5000002119276"></path><path id="kity_path_51" fill="none" stroke="rgb(115, 161, 191)" stroke-width="1" d="M824.5000052663991,348.5000002119276v15h135.5V378.5000002119276"></path><path id="kity_path_53" fill="none" stroke="rgb(115, 161, 191)" stroke-width="1" d="M959.5000052663991,400.5000002119276v15h0.5V430.5000002119276"></path><path id="kity_path_55" fill="none" stroke="rgb(115, 161, 191)" stroke-width="1" d="M960.5000052663991,452.5000002119276v15h-220V482.5000002119276"></path><path id="kity_path_57" fill="none" stroke="rgb(115, 161, 191)" stroke-width="1" d="M740.5000052663991,504.5000002119276v15h-174.5V534.5000002119276"></path><path id="kity_path_59" fill="none" stroke="rgb(115, 161, 191)" stroke-width="1" d="M740.5000052663991,504.5000002119276v15h-23.5V534.5000002119276"></path><path id="kity_path_61" fill="none" stroke="rgb(115, 161, 191)" stroke-width="1" d="M740.5000052663991,504.5000002119276v15h111V534.5000002119276"></path><path id="kity_path_63" fill="none" stroke="rgb(115, 161, 191)" stroke-width="1" d="M740.5000052663991,504.5000002119276v15h208.5V534.5000002119276"></path><path id="kity_path_65" fill="none" stroke="rgb(115, 161, 191)" stroke-width="1" d="M960.5000052663991,452.5000002119276v15h170V482.5000002119276"></path><path id="kity_path_67" fill="none" stroke="rgb(115, 161, 191)" stroke-width="1" d="M1130.500005266399,504.5000002119276v15h-73V534.5000002119276"></path><path id="kity_path_69" fill="none" stroke="rgb(115, 161, 191)" stroke-width="1" d="M1130.500005266399,504.5000002119276v15h68.5V534.5000002119276"></path><path id="kity_path_71" fill="none" stroke="rgb(115, 161, 191)" stroke-width="1" d="M824.5000052663991,348.5000002119276v15h567.5V378.5000002119276"></path><path id="kity_path_73" fill="none" stroke="rgb(115, 161, 191)" stroke-width="1" d="M1391.500005266399,400.5000002119276v15h0.5V430.5000002119276"></path><path id="kity_path_75" fill="none" stroke="rgb(115, 161, 191)" stroke-width="1" d="M1392.500005266399,452.5000002119276v15h-50V482.5000002119276"></path><path id="kity_path_77" fill="none" stroke="rgb(115, 161, 191)" stroke-width="1" d="M1392.500005266399,452.5000002119276v15h70.5V482.5000002119276"></path><path id="kity_path_79" fill="none" stroke="rgb(115, 161, 191)" stroke-width="1" d="M1270.500005266399,192.50000021192758v15h425.5V222.50000021192758"></path><path id="kity_path_81" fill="none" stroke="rgb(115, 161, 191)" stroke-width="1" d="M1696.500005266399,244.50000021192758v15h0V274.5000002119276"></path><path id="kity_path_83" fill="none" stroke="rgb(115, 161, 191)" stroke-width="1" d="M1696.500005266399,296.5000002119276v15h-88.5V326.5000002119276"></path><path id="kity_path_85" fill="none" stroke="rgb(115, 161, 191)" stroke-width="1" d="M1696.500005266399,296.5000002119276v15h97.5V326.5000002119276"></path><path id="kity_path_87" fill="none" stroke="rgb(115, 161, 191)" stroke-width="1" d="M1793.500005266399,348.5000002119276v15h0.5V378.5000002119276"></path><path id="kity_path_89" fill="none" stroke="rgb(115, 161, 191)" stroke-width="1" d="M1828.500005266399,59.500000211927585v30h557.5V109.50000021192758"></path><path id="kity_path_91" fill="none" stroke="rgb(115, 161, 191)" stroke-width="1" d="M2385.500005266399,135.50000021192758v20h-285.5V170.50000021192758"></path><path id="kity_path_93" fill="none" stroke="rgb(115, 161, 191)" stroke-width="1" d="M2100.500005266399,192.50000021192758v15h-164V222.50000021192758"></path><path id="kity_path_95" fill="none" stroke="rgb(115, 161, 191)" stroke-width="1" d="M2100.500005266399,192.50000021192758v15h-55.5V222.50000021192758"></path><path id="kity_path_97" fill="none" stroke="rgb(115, 161, 191)" stroke-width="1" d="M2100.500005266399,192.50000021192758v15h65V222.50000021192758"></path><path id="kity_path_99" fill="none" stroke="rgb(115, 161, 191)" stroke-width="1" d="M2100.500005266399,192.50000021192758v15h175V222.50000021192758"></path><path id="kity_path_101" fill="none" stroke="rgb(115, 161, 191)" stroke-width="1" d="M2385.500005266399,135.50000021192758v20h285.5V170.50000021192758"></path><path id="kity_path_103" fill="none" stroke="rgb(115, 161, 191)" stroke-width="1" d="M2671.500005266399,192.50000021192758v15h-190V222.50000021192758"></path><path id="kity_path_105" fill="none" stroke="rgb(115, 161, 191)" stroke-width="1" d="M2481.500005266399,244.50000021192758v15h0V274.5000002119276"></path><path id="kity_path_107" fill="none" stroke="rgb(115, 161, 191)" stroke-width="1" d="M2481.500005266399,296.5000002119276v15h-108.5V326.5000002119276"></path><path id="kity_path_109" fill="none" stroke="rgb(115, 161, 191)" stroke-width="1" d="M2481.500005266399,296.5000002119276v15h0V326.5000002119276"></path><path id="kity_path_111" fill="none" stroke="rgb(115, 161, 191)" stroke-width="1" d="M2481.500005266399,296.5000002119276v15h109V326.5000002119276"></path><path id="kity_path_113" fill="none" stroke="rgb(115, 161, 191)" stroke-width="1" d="M2671.500005266399,192.50000021192758v15h14.5V222.50000021192758"></path><path id="kity_path_115" fill="none" stroke="rgb(115, 161, 191)" stroke-width="1" d="M2671.500005266399,192.50000021192758v15h104.5V222.50000021192758"></path><path id="kity_path_117" fill="none" stroke="rgb(115, 161, 191)" stroke-width="1" d="M2671.500005266399,192.50000021192758v15h192.5V222.50000021192758"></path></g><g id="minder_node1"><path id="node_outline1" fill="rgb(115, 161, 191)" stroke="rgb(57, 80, 96)" d="M1776.500005266399,19.500000211927585h103a5,5,0,0,1,5,5v30a5,5,0,0,1,-5,5h-103a5,5,0,0,1,-5,-5v-30a5,5,0,0,1,5,-5z" stroke-width="3"></path><g id="node_text1" fill="white"><text id="kity_text_22" text-rendering="inherit" font-size="16" dy=".8em" y="31.500000211927585" x="1795.500005266399">系统安全</text></g></g><g id="kity_g_12"><path id="kity_path_13" fill="none" stroke="none" d="M1795.500005266399,39.500000211927585h0v0h0z"></path></g><g id="kity_g_14"><path id="kity_path_15" fill="none" stroke="none" d="M1795.500005266399,39.500000211927585h0v0h0z"></path><path id="kity_path_16" fill="none" stroke="none"></path></g><g id="minder_node2"><g id="node_expander29" style="cursor: pointer;"><path id="kity_path_335" fill="white" stroke="gray" d="M1276.49999361038,102.50000101725246A6,6,0,1,1,1264.49999361038,102.50000101725246A6,6,0,1,1,1276.49999361038,102.50000101725246"></path><path id="kity_path_336" fill="none" stroke="gray" d="M1265.99999361038,102.50000101725246L1274.99999361038,102.50000101725246"></path></g><path id="node_outline30" fill="rgb(238, 243, 246)" stroke="rgb(115, 161, 191)" d="M1225.4999935468018,109.50000197092677h90a3,3,0,0,1,3,3v20a3,3,0,0,1,-3,3h-90a3,3,0,0,1,-3,-3v-20a3,3,0,0,1,3,-3z" stroke-width="1"></path><g id="node_text30" fill="black"><text id="kity_text_175" text-rendering="inherit" font-size="14" dy=".8em" y="115.50000197092677" x="1242.4999935468018">功能安全</text></g></g><g id="minder_node3"><g id="node_expander28" style="cursor: pointer;"><path id="kity_path_332" fill="white" stroke="gray" d="M1276.4999930805611,164.50000325838707A6,6,0,1,1,1264.4999930805611,164.50000325838707A6,6,0,1,1,1276.4999930805611,164.50000325838707"></path><path id="kity_path_333" fill="none" stroke="gray" d="M1265.9999930805611,164.50000325838707L1274.9999930805611,164.50000325838707"></path></g><path id="node_outline29" fill="#4f81bd" stroke="none" d="M1241.499993631573,170.5000032212997h58a5,5,0,0,1,5,5v12a5,5,0,0,1,-5,5h-58a5,5,0,0,1,-5,-5v-12a5,5,0,0,1,5,-5z"></path><g id="node_text29" fill="#ffffff"><text id="kity_text_173" text-rendering="inherit" font-family="微软雅黑,Microsoft YaHei" font-size="12" dy=".8em" y="175.5000032212997" x="1246.499993631573">语义分类</text></g></g><g id="minder_node4"><g id="node_expander22" style="cursor: pointer;"><path id="kity_path_314" fill="white" stroke="gray" d="M828.9999867094875,216.50000436041068A6,6,0,1,1,816.9999867094875,216.50000436041068A6,6,0,1,1,828.9999867094875,216.50000436041068"></path><path id="kity_path_315" fill="none" stroke="gray" d="M818.4999867094875,216.50000436041068L827.4999867094875,216.50000436041068"></path></g><path id="node_outline23" fill="none" stroke="none" d="M772.4999836921679,222.5000043233233h101a5,5,0,0,1,5,5v12a5,5,0,0,1,-5,5h-101a5,5,0,0,1,-5,-5v-12a5,5,0,0,1,5,-5z"></path><g id="node_text23" fill="black"><text id="kity_text_161" text-rendering="inherit" font-size="12" dy=".8em" y="227.5000043233233" x="777.4999836921679">狭义: 安全子系统</text></g></g><g id="minder_node5"><g id="node_expander21" style="cursor: pointer;"><path id="kity_path_311" fill="white" stroke="gray" d="M829.4999853293086,268.5000054624343A6,6,0,1,1,817.4999853293086,268.5000054624343A6,6,0,1,1,829.4999853293086,268.5000054624343"></path><path id="kity_path_312" fill="none" stroke="gray" d="M818.9999853293086,268.5000054624343L827.9999853293086,268.5000054624343"></path></g><path id="node_outline22" fill="none" stroke="none" d="M761.4999834590474,274.5000054253469h124a5,5,0,0,1,5,5v12a5,5,0,0,1,-5,5h-124a5,5,0,0,1,-5,-5v-12a5,5,0,0,1,5,-5z"></path><g id="node_text22" fill="black"><text id="kity_text_159" text-rendering="inherit" font-size="12" dy=".8em" y="279.5000054253469" x="766.4999834590474">Fault Tolerance(容错)</text></g></g><g id="minder_node6"><g id="node_expander20" style="cursor: pointer;"><path id="kity_path_308" fill="white" stroke="gray" d="M829.9999844789493,320.50000656445775A6,6,0,1,1,817.9999844789493,320.50000656445775A6,6,0,1,1,829.9999844789493,320.50000656445775"></path><path id="kity_path_309" fill="none" stroke="gray" d="M819.4999844789493,320.50000656445775L828.4999844789493,320.50000656445775"></path></g><path id="node_outline21" fill="#4f81bd" stroke="none" d="M794.4999841584088,326.5000065273704h59a5,5,0,0,1,5,5v12a5,5,0,0,1,-5,5h-59a5,5,0,0,1,-5,-5v-12a5,5,0,0,1,5,-5z"></path><g id="node_text21" fill="#ffffff"><text id="kity_text_157" text-rendering="inherit" font-size="12" dy=".8em" y="331.5000065273704" x="799.4999841584088">错误分类</text></g></g><g id="minder_node7"><g id="node_expander5" style="cursor: pointer;"><path id="kity_path_263" fill="white" stroke="gray" d="M250.99997618198336,372.50000766648145A6,6,0,1,1,238.99997618198336,372.50000766648145A6,6,0,1,1,250.99997618198336,372.50000766648145"></path><path id="kity_path_264" fill="none" stroke="gray" d="M240.49997618198336,372.50000766648145L249.49997618198336,372.50000766648145"></path></g><path id="node_outline6" fill="none" stroke="none" d="M161.49997074339058,378.5000076293941h167a5,5,0,0,1,5,5v12a5,5,0,0,1,-5,5h-167a5,5,0,0,1,-5,-5v-12a5,5,0,0,1,5,-5z"></path><g id="node_text6" fill="black"><text id="kity_text_127" text-rendering="inherit" font-size="12" dy=".8em" y="383.5000076293941" x="166.49997074339058">Byzantine Faults(拜占庭错误)</text></g></g><g id="minder_node8"><g id="node_expander4" style="cursor: pointer;"><path id="kity_path_260" fill="white" stroke="gray" d="M250.99997220834052,424.50000876850504A6,6,0,1,1,238.99997220834052,424.50000876850504A6,6,0,1,1,250.99997220834052,424.50000876850504"></path><path id="kity_path_261" fill="none" stroke="gray" d="M240.49997220834052,424.50000876850504L249.49997220834052,424.50000876850504"></path></g><path id="node_outline5" fill="#4bacc6" stroke="none" d="M215.49997188780003,430.50000873141767h59a5,5,0,0,1,5,5v12a5,5,0,0,1,-5,5h-59a5,5,0,0,1,-5,-5v-12a5,5,0,0,1,5,-5z"></path><g id="node_text5" fill="#ffffff"><text id="kity_text_125" text-rendering="inherit" font-size="12" dy=".8em" y="435.50000873141767" x="220.49997188780003">应对方案</text></g></g><g id="minder_node9"><g id="node_expander1" display="none" style="cursor: pointer;"><path id="kity_path_251" fill="white" stroke="gray" d="M109.49996967315633,476.50000987052863A6,6,0,1,1,97.49996967315633,476.50000987052863A6,6,0,1,1,109.49996967315633,476.50000987052863"></path><path id="kity_path_252" fill="none" stroke="gray"></path></g><path id="node_outline2" fill="none" stroke="none" d="M24.499967839982446,482.50000983344125h158a5,5,0,0,1,5,5v12a5,5,0,0,1,-5,5h-158a5,5,0,0,1,-5,-5v-12a5,5,0,0,1,5,-5z"></path><g id="node_text2" fill="black"><text id="kity_text_119" text-rendering="inherit" font-size="12" dy=".8em" y="487.50000983344125" x="29.499967839982446">Triple Modular Redundancy</text></g></g><g id="minder_node10"><g id="node_expander2" display="none" style="cursor: pointer;"><path id="kity_path_254" fill="white" stroke="gray" d="M314.9999739620416,476.50000987052863A6,6,0,1,1,302.9999739620416,476.50000987052863A6,6,0,1,1,314.9999739620416,476.50000987052863"></path><path id="kity_path_255" fill="none" stroke="gray"></path></g><path id="node_outline3" fill="none" stroke="none" d="M232.49997224807703,482.50000983344125h153a5,5,0,0,1,5,5v12a5,5,0,0,1,-5,5h-153a5,5,0,0,1,-5,-5v-12a5,5,0,0,1,5,-5z"></path><g id="node_text3" fill="black"><text id="kity_text_121" text-rendering="inherit" font-size="12" dy=".8em" y="487.50000983344125" x="237.49997224807703">Dual Modular Redundancy</text></g></g><g id="minder_node11"><g id="node_expander3" display="none" style="cursor: pointer;"><path id="kity_path_257" fill="white" stroke="gray" d="M456.4999770270447,476.50000987052863A6,6,0,1,1,444.4999770270447,476.50000987052863A6,6,0,1,1,456.4999770270447,476.50000987052863"></path><path id="kity_path_258" fill="none" stroke="gray"></path></g><path id="node_outline4" fill="none" stroke="none" d="M435.4999765502075,482.50000983344125h30a5,5,0,0,1,5,5v12a5,5,0,0,1,-5,5h-30a5,5,0,0,1,-5,-5v-12a5,5,0,0,1,5,-5z"></path><g id="node_text4" fill="black"><text id="kity_text_123" text-rendering="inherit" font-size="12" dy=".8em" y="487.50000983344125" x="440.4999765502075">......</text></g></g><g id="minder_node12"><g id="node_expander15" style="cursor: pointer;"><path id="kity_path_293" fill="white" stroke="gray" d="M965.4999849001551,372.50000766648145A6,6,0,1,1,953.4999849001551,372.50000766648145A6,6,0,1,1,965.4999849001551,372.50000766648145"></path><path id="kity_path_294" fill="none" stroke="gray" d="M954.9999849001551,372.50000766648145L963.9999849001551,372.50000766648145"></path></g><path id="node_outline16" fill="none" stroke="none" d="M862.4999855995165,378.5000076293941h194a5,5,0,0,1,5,5v12a5,5,0,0,1,-5,5h-194a5,5,0,0,1,-5,-5v-12a5,5,0,0,1,5,-5z"></path><g id="node_text16" fill="black"><text id="kity_text_147" text-rendering="inherit" font-size="12" dy=".8em" y="383.5000076293941" x="867.4999855995165"> Common Mode Failures(共因失效)</text></g></g><g id="minder_node13"><g id="node_expander14" style="cursor: pointer;"><path id="kity_path_290" fill="white" stroke="gray" d="M965.9999873611648,424.50000876850504A6,6,0,1,1,953.9999873611648,424.50000876850504A6,6,0,1,1,965.9999873611648,424.50000876850504"></path><path id="kity_path_291" fill="none" stroke="gray" d="M955.4999873611648,424.50000876850504L964.4999873611648,424.50000876850504"></path></g><path id="node_outline15" fill="#4bacc6" stroke="none" d="M930.4999870406243,430.50000873141767h59a5,5,0,0,1,5,5v12a5,5,0,0,1,-5,5h-59a5,5,0,0,1,-5,-5v-12a5,5,0,0,1,5,-5z"></path><g id="node_text15" fill="#ffffff"><text id="kity_text_145" text-rendering="inherit" font-size="12" dy=".8em" y="435.50000873141767" x="935.4999870406243">应对方案</text></g></g><g id="minder_node14"><g id="node_expander10" style="cursor: pointer;"><path id="kity_path_278" fill="white" stroke="gray" d="M745.9999821689382,476.50000987052863A6,6,0,1,1,733.9999821689382,476.50000987052863A6,6,0,1,1,745.9999821689382,476.50000987052863"></path><path id="kity_path_279" fill="none" stroke="gray" d="M735.4999821689382,476.50000987052863L744.4999821689382,476.50000987052863"></path></g><path id="node_outline11" fill="none" stroke="none" d="M714.4999824629879,482.50000983344125h51a5,5,0,0,1,5,5v12a5,5,0,0,1,-5,5h-51a5,5,0,0,1,-5,-5v-12a5,5,0,0,1,5,-5z"></path><g id="node_text11" fill="black"><text id="kity_text_137" text-rendering="inherit" font-size="12" dy=".8em" y="487.50000983344125" x="719.4999824629879">runtime</text></g></g><g id="minder_node15"><g id="node_expander6" display="none" style="cursor: pointer;"><path id="kity_path_266" fill="white" stroke="gray" d="M571.4999786694832,528.5000109725523A6,6,0,1,1,559.4999786694832,528.5000109725523A6,6,0,1,1,571.4999786694832,528.5000109725523"></path><path id="kity_path_267" fill="none" stroke="gray"></path></g><path id="node_outline7" fill="none" stroke="none" d="M516.4999782668208,534.500010935465h98a5,5,0,0,1,5,5v12a5,5,0,0,1,-5,5h-98a5,5,0,0,1,-5,-5v-12a5,5,0,0,1,5,-5z"></path><g id="node_text7" fill="black"><text id="kity_text_129" text-rendering="inherit" font-size="12" dy=".8em" y="539.500010935465" x="521.4999782668208">Runtime Checks</text></g></g><g id="minder_node16"><g id="node_expander7" display="none" style="cursor: pointer;"><path id="kity_path_269" fill="white" stroke="gray" d="M722.4999827967738,528.5000109725523A6,6,0,1,1,710.4999827967738,528.5000109725523A6,6,0,1,1,722.4999827967738,528.5000109725523"></path><path id="kity_path_270" fill="none" stroke="gray"></path></g><path id="node_outline8" fill="none" stroke="none" d="M664.4999814033497,534.500010935465h104a5,5,0,0,1,5,5v12a5,5,0,0,1,-5,5h-104a5,5,0,0,1,-5,-5v-12a5,5,0,0,1,5,-5z"></path><g id="node_text8" fill="black"><text id="kity_text_131" text-rendering="inherit" font-size="12" dy=".8em" y="539.500010935465" x="669.4999814033497">Watchdog Timers</text></g></g><g id="minder_node17"><g id="node_expander8" display="none" style="cursor: pointer;"><path id="kity_path_272" fill="white" stroke="gray" d="M856.9999859783372,528.5000109725523A6,6,0,1,1,844.9999859783372,528.5000109725523A6,6,0,1,1,856.9999859783372,528.5000109725523"></path><path id="kity_path_273" fill="none" stroke="gray"></path></g><path id="node_outline9" fill="none" stroke="none" d="M818.499984667035,534.500010935465h65a5,5,0,0,1,5,5v12a5,5,0,0,1,-5,5h-65a5,5,0,0,1,-5,-5v-12a5,5,0,0,1,5,-5z"></path><g id="node_text9" fill="black"><text id="kity_text_133" text-rendering="inherit" font-size="12" dy=".8em" y="539.500010935465" x="823.499984667035">Restarting</text></g></g><g id="minder_node18"><g id="node_expander9" display="none" style="cursor: pointer;"><path id="kity_path_275" fill="white" stroke="gray" d="M954.4999875810397,528.5000109725523A6,6,0,1,1,942.4999875810397,528.5000109725523A6,6,0,1,1,954.4999875810397,528.5000109725523"></path><path id="kity_path_276" fill="none" stroke="gray"></path></g><path id="node_outline10" fill="none" stroke="none" d="M933.4999871042025,534.500010935465h30a5,5,0,0,1,5,5v12a5,5,0,0,1,-5,5h-30a5,5,0,0,1,-5,-5v-12a5,5,0,0,1,5,-5z"></path><g id="node_text10" fill="black"><text id="kity_text_135" text-rendering="inherit" font-size="12" dy=".8em" y="539.500010935465" x="938.4999871042025">......</text></g></g><g id="minder_node19"><g id="node_expander13" style="cursor: pointer;"><path id="kity_path_287" fill="white" stroke="gray" d="M1135.9999896393865,476.50000987052863A6,6,0,1,1,1123.9999896393865,476.50000987052863A6,6,0,1,1,1135.9999896393865,476.50000987052863"></path><path id="kity_path_288" fill="none" stroke="gray" d="M1125.4999896393865,476.50000987052863L1134.4999896393865,476.50000987052863"></path></g><path id="node_outline14" fill="none" stroke="none" d="M1054.4999896685267,482.50000983344125h151a5,5,0,0,1,5,5v12a5,5,0,0,1,-5,5h-151a5,5,0,0,1,-5,-5v-12a5,5,0,0,1,5,-5z"></path><g id="node_text14" fill="black"><text id="kity_text_143" text-rendering="inherit" font-size="12" dy=".8em" y="487.50000983344125" x="1059.4999896685267">此处与"功能安全设计"相连</text></g></g><g id="minder_node20"><g id="node_expander11" display="none" style="cursor: pointer;"><path id="kity_path_281" fill="white" stroke="gray" d="M1062.9999880923149,528.5000109725523A6,6,0,1,1,1050.9999880923149,528.5000109725523A6,6,0,1,1,1062.9999880923149,528.5000109725523"></path><path id="kity_path_282" fill="none" stroke="gray"></path></g><path id="node_outline12" fill="none" stroke="none" d="M1013.4999887996233,534.500010935465h87a5,5,0,0,1,5,5v12a5,5,0,0,1,-5,5h-87a5,5,0,0,1,-5,-5v-12a5,5,0,0,1,5,-5z"></path><g id="node_text12" fill="black"><text id="kity_text_139" text-rendering="inherit" font-size="12" dy=".8em" y="539.500010935465" x="1018.4999887996233">Fault Removal</text></g></g><g id="minder_node21"><g id="node_expander12" display="none" style="cursor: pointer;"><path id="kity_path_284" fill="white" stroke="gray" d="M1204.4999946011421,528.5000109725523A6,6,0,1,1,1192.4999946011421,528.5000109725523A6,6,0,1,1,1204.4999946011421,528.5000109725523"></path><path id="kity_path_285" fill="none" stroke="gray"></path></g><path id="node_outline13" fill="none" stroke="none" d="M1150.4999917030318,534.500010935465h96a5,5,0,0,1,5,5v12a5,5,0,0,1,-5,5h-96a5,5,0,0,1,-5,-5v-12a5,5,0,0,1,5,-5z"></path><g id="node_text13" fill="black"><text id="kity_text_141" text-rendering="inherit" font-size="12" dy=".8em" y="539.500010935465" x="1155.4999917030318">Fault Avoidance</text></g></g><g id="minder_node22"><g id="node_expander19" style="cursor: pointer;"><path id="kity_path_305" fill="white" stroke="gray" d="M1397.4999990887093,372.50000766648145A6,6,0,1,1,1385.4999990887093,372.50000766648145A6,6,0,1,1,1397.4999990887093,372.50000766648145"></path><path id="kity_path_306" fill="none" stroke="gray" d="M1386.9999990887093,372.50000766648145L1395.9999990887093,372.50000766648145"></path></g><path id="node_outline20" fill="none" stroke="none" d="M1296.4999947971748,378.5000076293941h190a5,5,0,0,1,5,5v12a5,5,0,0,1,-5,5h-190a5,5,0,0,1,-5,-5v-12a5,5,0,0,1,5,-5z"></path><g id="node_text20" fill="black"><text id="kity_text_155" text-rendering="inherit" font-size="12" dy=".8em" y="383.5000076293941" x="1301.4999947971748">Performance Limitation(性能限制)</text></g></g><g id="minder_node23"><g id="node_expander18" style="cursor: pointer;"><path id="kity_path_302" fill="white" stroke="gray" d="M1397.9999965164377,424.50000876850504A6,6,0,1,1,1385.9999965164377,424.50000876850504A6,6,0,1,1,1397.9999965164377,424.50000876850504"></path><path id="kity_path_303" fill="none" stroke="gray" d="M1387.4999965164377,424.50000876850504L1396.4999965164377,424.50000876850504"></path></g><path id="node_outline19" fill="#4bacc6" stroke="none" d="M1362.4999961958972,430.50000873141767h59a5,5,0,0,1,5,5v12a5,5,0,0,1,-5,5h-59a5,5,0,0,1,-5,-5v-12a5,5,0,0,1,5,-5z"></path><g id="node_text19" fill="#ffffff"><text id="kity_text_153" text-rendering="inherit" font-size="12" dy=".8em" y="435.50000873141767" x="1367.4999961958972">应对方案</text></g></g><g id="minder_node24"><g id="node_expander16" display="none" style="cursor: pointer;"><path id="kity_path_296" fill="white" stroke="gray" d="M1347.9999975760759,476.50000987052863A6,6,0,1,1,1335.9999975760759,476.50000987052863A6,6,0,1,1,1347.9999975760759,476.50000987052863"></path><path id="kity_path_297" fill="none" stroke="gray"></path></g><path id="node_outline17" fill="none" stroke="none" d="M1296.4999947971748,482.50000983344125h91a5,5,0,0,1,5,5v12a5,5,0,0,1,-5,5h-91a5,5,0,0,1,-5,-5v-12a5,5,0,0,1,5,-5z"></path><g id="node_text17" fill="black"><text id="kity_text_149" text-rendering="inherit" font-size="12" dy=".8em" y="487.50000983344125" x="1301.4999947971748">熔断安全(防撞)</text></g></g><g id="minder_node25"><g id="node_expander17" display="none" style="cursor: pointer;"><path id="kity_path_299" fill="white" stroke="gray" d="M1468.4999987390286,476.50000987052863A6,6,0,1,1,1456.4999987390286,476.50000987052863A6,6,0,1,1,1468.4999987390286,476.50000987052863"></path><path id="kity_path_300" fill="none" stroke="gray"></path></g><path id="node_outline18" fill="none" stroke="none" d="M1437.4999977853543,482.50000983344125h50a5,5,0,0,1,5,5v12a5,5,0,0,1,-5,5h-50a5,5,0,0,1,-5,-5v-12a5,5,0,0,1,5,-5z"></path><g id="node_text18" fill="black"><text id="kity_text_151" text-rendering="inherit" font-size="12" dy=".8em" y="487.50000983344125" x="1442.4999977853543">想象力!</text></g></g><g id="minder_node26"><g id="node_expander27" style="cursor: pointer;"><path id="kity_path_329" fill="white" stroke="gray" d="M1702.000002429218,216.50000436041068A6,6,0,1,1,1690.000002429218,216.50000436041068A6,6,0,1,1,1702.000002429218,216.50000436041068"></path><path id="kity_path_330" fill="none" stroke="gray" d="M1691.500002429218,216.50000436041068L1700.500002429218,216.50000436041068"></path></g><path id="node_outline28" fill="none" stroke="none" d="M1622.5000017060152,222.5000043233233h147a5,5,0,0,1,5,5v12a5,5,0,0,1,-5,5h-147a5,5,0,0,1,-5,-5v-12a5,5,0,0,1,5,-5z"></path><g id="node_text28" fill="black"><text id="kity_text_171" text-rendering="inherit" font-size="12" dy=".8em" y="227.5000043233233" x="1627.5000017060152">广义:&#xa0; 安全标准/流程/设计</text></g></g><g id="minder_node27"><g id="node_expander26" style="cursor: pointer;"><path id="kity_path_326" fill="white" stroke="gray" d="M1702.0000029590371,268.5000054624343A6,6,0,1,1,1690.0000029590371,268.5000054624343A6,6,0,1,1,1702.0000029590371,268.5000054624343"></path><path id="kity_path_327" fill="none" stroke="gray" d="M1691.5000029590371,268.5000054624343L1700.5000029590371,268.5000054624343"></path></g><path id="node_outline27" fill="#4f81bd" stroke="none" d="M1666.5000026384967,274.5000054253469h59a5,5,0,0,1,5,5v12a5,5,0,0,1,-5,5h-59a5,5,0,0,1,-5,-5v-12a5,5,0,0,1,5,-5z"></path><g id="node_text27" fill="#ffffff"><text id="kity_text_169" text-rendering="inherit" font-size="12" dy=".8em" y="279.5000054253469" x="1671.5000026384967">标准分类</text></g></g><g id="minder_node28"><g id="node_expander23" display="none" style="cursor: pointer;"><path id="kity_path_317" fill="white" stroke="gray" d="M1613.5000022093434,320.50000656445775A6,6,0,1,1,1601.5000022093434,320.50000656445775A6,6,0,1,1,1613.5000022093434,320.50000656445775"></path><path id="kity_path_318" fill="none" stroke="gray"></path></g><path id="node_outline24" fill="none" stroke="none" d="M1535.499999862245,326.5000065273704h144a5,5,0,0,1,5,5v12a5,5,0,0,1,-5,5h-144a5,5,0,0,1,-5,-5v-12a5,5,0,0,1,5,-5z"></path><g id="node_text24" fill="black"><text id="kity_text_163" text-rendering="inherit" font-size="12" dy=".8em" y="331.5000065273704" x="1540.499999862245">系统故障失效(ISO26262)</text></g></g><g id="minder_node29"><g id="node_expander25" style="cursor: pointer;"><path id="kity_path_323" fill="white" stroke="gray" d="M1799.5000033696467,320.50000656445775A6,6,0,1,1,1787.5000033696467,320.50000656445775A6,6,0,1,1,1799.5000033696467,320.50000656445775"></path><path id="kity_path_324" fill="none" stroke="gray" d="M1789.0000033696467,320.50000656445775L1798.0000033696467,320.50000656445775"></path></g><path id="node_outline26" fill="none" stroke="none" d="M1730.5000039948334,326.5000065273704h126a5,5,0,0,1,5,5v12a5,5,0,0,1,-5,5h-126a5,5,0,0,1,-5,-5v-12a5,5,0,0,1,5,-5z"></path><g id="node_text26" fill="black"><text id="kity_text_167" text-rendering="inherit" font-size="12" dy=".8em" y="331.5000065273704" x="1735.5000039948334">预期功能安全(SOTIF)</text></g></g><g id="minder_node30"><g id="node_expander24" display="none" style="cursor: pointer;"><path id="kity_path_320" fill="white" stroke="gray" d="M1800.0000042411991,372.50000766648145A6,6,0,1,1,1788.0000042411991,372.50000766648145A6,6,0,1,1,1800.0000042411991,372.50000766648145"></path><path id="kity_path_321" fill="none" stroke="gray"></path></g><path id="node_outline25" fill="none" stroke="none" d="M1730.5000039948334,378.5000076293941h127a5,5,0,0,1,5,5v12a5,5,0,0,1,-5,5h-127a5,5,0,0,1,-5,-5v-12a5,5,0,0,1,5,-5z"></path><g id="node_text25" fill="black"><text id="kity_text_165" text-rendering="inherit" font-size="12" dy=".8em" y="383.5000076293941" x="1735.5000039948334">此处与"技术安全"相连</text></g></g><g id="minder_node31"><g id="node_expander44" style="cursor: pointer;"><path id="kity_path_380" fill="white" stroke="gray" d="M2391.5000172403093,102.50000101725246A6,6,0,1,1,2379.5000172403093,102.50000101725246A6,6,0,1,1,2391.5000172403093,102.50000101725246"></path><path id="kity_path_381" fill="none" stroke="gray" d="M2381.0000172403093,102.50000101725246L2390.0000172403093,102.50000101725246"></path></g><path id="node_outline45" fill="rgb(238, 243, 246)" stroke="rgb(115, 161, 191)" d="M2340.500017176731,109.50000197092677h90a3,3,0,0,1,3,3v20a3,3,0,0,1,-3,3h-90a3,3,0,0,1,-3,-3v-20a3,3,0,0,1,3,-3z" stroke-width="1"></path><g id="node_text45" fill="black"><text id="kity_text_205" text-rendering="inherit" font-size="14" dy=".8em" y="115.50000197092677" x="2357.500017176731">技术安全</text></g></g><g id="minder_node32"><g id="node_expander34" style="cursor: pointer;"><path id="kity_path_350" fill="white" stroke="gray" d="M2106.0000115209127,164.50000325838707A6,6,0,1,1,2094.0000115209127,164.50000325838707A6,6,0,1,1,2106.0000115209127,164.50000325838707"></path><path id="kity_path_351" fill="none" stroke="gray" d="M2095.5000115209127,164.50000325838707L2104.5000115209127,164.50000325838707"></path></g><path id="node_outline35" fill="#4f81bd" stroke="none" d="M2070.5000112003722,170.5000032212997h59a5,5,0,0,1,5,5v12a5,5,0,0,1,-5,5h-59a5,5,0,0,1,-5,-5v-12a5,5,0,0,1,5,-5z"></path><g id="node_text35" fill="#ffffff"><text id="kity_text_185" text-rendering="inherit" font-size="12" dy=".8em" y="175.5000032212997" x="2075.5000112003722">技术分类</text></g></g><g id="minder_node33"><g id="node_expander30" display="none" style="cursor: pointer;"><path id="kity_path_338" fill="white" stroke="gray" d="M1942.0000080452999,216.50000436041068A6,6,0,1,1,1930.0000080452999,216.50000436041068A6,6,0,1,1,1942.0000080452999,216.50000436041068"></path><path id="kity_path_339" fill="none" stroke="gray"></path></g><path id="node_outline31" fill="none" stroke="none" d="M1906.5000077247594,222.5000043233233h59a5,5,0,0,1,5,5v12a5,5,0,0,1,-5,5h-59a5,5,0,0,1,-5,-5v-12a5,5,0,0,1,5,-5z"></path><g id="node_text31" fill="black"><text id="kity_text_177" text-rendering="inherit" font-size="12" dy=".8em" y="227.5000043233233" x="1911.5000077247594">决策安全</text></g></g><g id="minder_node34"><g id="node_expander31" display="none" style="cursor: pointer;"><path id="kity_path_341" fill="white" stroke="gray" d="M2050.5000094837587,216.50000436041068A6,6,0,1,1,2038.5000094837585,216.50000436041068A6,6,0,1,1,2050.5000094837587,216.50000436041068"></path><path id="kity_path_342" fill="none" stroke="gray"></path></g><path id="node_outline32" fill="none" stroke="none" d="M2015.5000100347704,222.5000043233233h58a5,5,0,0,1,5,5v12a5,5,0,0,1,-5,5h-58a5,5,0,0,1,-5,-5v-12a5,5,0,0,1,5,-5z"></path><g id="node_text32" fill="black"><text id="kity_text_179" text-rendering="inherit" font-size="12" dy=".8em" y="227.5000043233233" x="2020.5000100347704">交互安全</text></g></g><g id="minder_node35"><g id="node_expander32" display="none" style="cursor: pointer;"><path id="kity_path_344" fill="white" stroke="gray" d="M2171.000012368623,216.50000436041068A6,6,0,1,1,2159.000012368623,216.50000436041068A6,6,0,1,1,2171.000012368623,216.50000436041068"></path><path id="kity_path_345" fill="none" stroke="gray"></path></g><path id="node_outline33" fill="none" stroke="none" d="M2123.5000123235886,222.5000043233233h83a5,5,0,0,1,5,5v12a5,5,0,0,1,-5,5h-83a5,5,0,0,1,-5,-5v-12a5,5,0,0,1,5,-5z"></path><g id="node_text33" fill="black"><text id="kity_text_181" text-rendering="inherit" font-size="12" dy=".8em" y="227.5000043233233" x="2128.5000123235886">物理碰撞安全</text></g></g><g id="minder_node36"><g id="node_expander33" display="none" style="cursor: pointer;"><path id="kity_path_347" fill="white" stroke="gray" d="M2281.000015362101,216.50000303586293A6,6,0,1,1,2269.000015362101,216.50000303586293A6,6,0,1,1,2281.000015362101,216.50000303586293"></path><path id="kity_path_348" fill="none" stroke="gray"></path></g><path id="node_outline34" fill="none" stroke="none" d="M2256.500015142226,222.5000043657088h37a5,5,0,0,1,5,5v16a5,5,0,0,1,-5,5h-37a5,5,0,0,1,-5,-5v-16a5,5,0,0,1,5,-5z"></path><g id="node_text34" fill="black"><text id="kity_text_183" text-rendering="inherit" font-size="16" dy=".8em" y="227.5000043657088" x="2261.500015142226">......</text></g></g><g id="minder_node37"><g id="node_expander43" style="cursor: pointer;"><path id="kity_path_377" fill="white" stroke="gray" d="M2677.0000236219794,164.50000325838707A6,6,0,1,1,2665.0000236219794,164.50000325838707A6,6,0,1,1,2677.0000236219794,164.50000325838707"></path><path id="kity_path_378" fill="none" stroke="gray" d="M2666.5000236219794,164.50000325838707L2675.5000236219794,164.50000325838707"></path></g><path id="node_outline44" fill="#4f81bd" stroke="none" d="M2641.500023301439,170.5000032212997h59a5,5,0,0,1,5,5v12a5,5,0,0,1,-5,5h-59a5,5,0,0,1,-5,-5v-12a5,5,0,0,1,5,-5z"></path><g id="node_text44" fill="#ffffff"><text id="kity_text_203" text-rendering="inherit" font-size="12" dy=".8em" y="175.5000032212997" x="2646.500023301439">指标优化</text></g></g><g id="minder_node38"><g id="node_expander39" style="cursor: pointer;"><path id="kity_path_365" fill="white" stroke="gray" d="M2487.000020125174,216.50000436041068A6,6,0,1,1,2475.000020125174,216.50000436041068A6,6,0,1,1,2487.000020125174,216.50000436041068"></path><path id="kity_path_366" fill="none" stroke="gray" d="M2476.500020125174,216.50000436041068L2485.500020125174,216.50000436041068"></path></g><path id="node_outline40" fill="none" stroke="none" d="M2463.5000195291277,222.5000043233233h35a5,5,0,0,1,5,5v12a5,5,0,0,1,-5,5h-35a5,5,0,0,1,-5,-5v-12a5,5,0,0,1,5,-5z"></path><g id="node_text40" fill="black"><text id="kity_text_195" text-rendering="inherit" font-size="12" dy=".8em" y="227.5000043233233" x="2468.5000195291277">延迟</text></g></g><g id="minder_node39"><g id="node_expander38" style="cursor: pointer;"><path id="kity_path_362" fill="white" stroke="gray" d="M2487.000019595355,268.5000054624343A6,6,0,1,1,2475.000019595355,268.5000054624343A6,6,0,1,1,2487.000019595355,268.5000054624343"></path><path id="kity_path_363" fill="none" stroke="gray" d="M2476.500019595355,268.5000054624343L2485.500019595355,268.5000054624343"></path></g><path id="node_outline39" fill="#4bacc6" stroke="none" d="M2451.5000192748143,274.5000054253469h59a5,5,0,0,1,5,5v12a5,5,0,0,1,-5,5h-59a5,5,0,0,1,-5,-5v-12a5,5,0,0,1,5,-5z"></path><g id="node_text39" fill="#ffffff"><text id="kity_text_193" text-rendering="inherit" font-size="12" dy=".8em" y="279.5000054253469" x="2456.5000192748143">应对方案</text></g></g><g id="minder_node40"><g id="node_expander35" display="none" style="cursor: pointer;"><path id="kity_path_353" fill="white" stroke="gray" d="M2378.5000164349844,320.50000656445775A6,6,0,1,1,2366.5000164349844,320.50000656445775A6,6,0,1,1,2378.5000164349844,320.50000656445775"></path><path id="kity_path_354" fill="none" stroke="gray"></path></g><path id="node_outline36" fill="none" stroke="none" d="M2343.5000169859964,326.5000065273704h58a5,5,0,0,1,5,5v12a5,5,0,0,1,-5,5h-58a5,5,0,0,1,-5,-5v-12a5,5,0,0,1,5,-5z"></path><g id="node_text36" fill="black"><text id="kity_text_187" text-rendering="inherit" font-size="12" dy=".8em" y="331.5000065273704" x="2348.5000169859964">实时系统</text></g></g><g id="minder_node41"><g id="node_expander36" display="none" style="cursor: pointer;"><path id="kity_path_356" fill="white" stroke="gray" d="M2487.000019595355,320.50000656445775A6,6,0,1,1,2475.000019595355,320.50000656445775A6,6,0,1,1,2487.000019595355,320.50000656445775"></path><path id="kity_path_357" fill="none" stroke="gray"></path></g><path id="node_outline37" fill="none" stroke="none" d="M2451.5000192748143,326.5000065273704h59a5,5,0,0,1,5,5v12a5,5,0,0,1,-5,5h-59a5,5,0,0,1,-5,-5v-12a5,5,0,0,1,5,-5z"></path><g id="node_text37" fill="black"><text id="kity_text_189" text-rendering="inherit" font-size="12" dy=".8em" y="331.5000065273704" x="2456.5000192748143">任务编排</text></g></g><g id="minder_node42"><g id="node_expander37" display="none" style="cursor: pointer;"><path id="kity_path_359" fill="white" stroke="gray" d="M2596.000021905366,320.50000656445775A6,6,0,1,1,2584.000021905366,320.50000656445775A6,6,0,1,1,2596.000021905366,320.50000656445775"></path><path id="kity_path_360" fill="none" stroke="gray"></path></g><path id="node_outline38" fill="none" stroke="none" d="M2560.5000215848254,326.5000065273704h59a5,5,0,0,1,5,5v12a5,5,0,0,1,-5,5h-59a5,5,0,0,1,-5,-5v-12a5,5,0,0,1,5,-5z"></path><g id="node_text38" fill="black"><text id="kity_text_191" text-rendering="inherit" font-size="12" dy=".8em" y="331.5000065273704" x="2565.5000215848254">程序逻辑</text></g></g><g id="minder_node43"><g id="node_expander40" display="none" style="cursor: pointer;"><path id="kity_path_368" fill="white" stroke="gray" d="M2691.500023598138,216.50000436041068A6,6,0,1,1,2679.500023598138,216.50000436041068A6,6,0,1,1,2691.500023598138,216.50000436041068"></path><path id="kity_path_369" fill="none" stroke="gray"></path></g><path id="node_outline41" fill="none" stroke="none" d="M2668.500023873644,222.5000043233233h34a5,5,0,0,1,5,5v12a5,5,0,0,1,-5,5h-34a5,5,0,0,1,-5,-5v-12a5,5,0,0,1,5,-5z"></path><g id="node_text41" fill="black"><text id="kity_text_197" text-rendering="inherit" font-size="12" dy=".8em" y="227.5000043233233" x="2673.500023873644">盲区</text></g></g><g id="minder_node44"><g id="node_expander41" display="none" style="cursor: pointer;"><path id="kity_path_371" fill="white" stroke="gray" d="M2781.5000252405766,216.50000436041068A6,6,0,1,1,2769.5000252405766,216.50000436041068A6,6,0,1,1,2781.5000252405766,216.50000436041068"></path><path id="kity_path_372" fill="none" stroke="gray"></path></g><path id="node_outline42" fill="none" stroke="none" d="M2752.5000256538356,222.5000043233233h46a5,5,0,0,1,5,5v12a5,5,0,0,1,-5,5h-46a5,5,0,0,1,-5,-5v-12a5,5,0,0,1,5,-5z"></path><g id="node_text42" fill="black"><text id="kity_text_199" text-rendering="inherit" font-size="12" dy=".8em" y="227.5000043233233" x="2757.5000256538356">准确率</text></g></g><g id="minder_node45"><g id="node_expander42" display="none" style="cursor: pointer;"><path id="kity_path_374" fill="white" stroke="gray" d="M2869.5000281651783,216.50000436041068A6,6,0,1,1,2857.5000281651783,216.50000436041068A6,6,0,1,1,2869.5000281651783,216.50000436041068"></path><path id="kity_path_375" fill="none" stroke="gray"></path></g><path id="node_outline43" fill="none" stroke="none" d="M2848.500027688341,222.5000043233233h30a5,5,0,0,1,5,5v12a5,5,0,0,1,-5,5h-30a5,5,0,0,1,-5,-5v-12a5,5,0,0,1,5,-5z"></path><g id="node_text43" fill="black"><text id="kity_text_201" text-rendering="inherit" font-size="12" dy=".8em" y="227.5000043233233" x="2853.500027688341">......</text></g></g></g></g></svg>